G04*
G04 #@! TF.GenerationSoftware,Altium Limited,Altium Designer,21.7.1 (17)*
G04*
G04 Layer_Color=16711935*
%FSLAX25Y25*%
%MOIN*%
G70*
G04*
G04 #@! TF.SameCoordinates,4F73F3F9-A25A-42A2-B41E-11CF7C4F7039*
G04*
G04*
G04 #@! TF.FilePolarity,Positive*
G04*
G01*
G75*
%ADD11C,0.00472*%
%ADD12C,0.00984*%
%ADD14C,0.00787*%
%ADD15C,0.00500*%
%ADD53C,0.00394*%
%ADD54C,0.00100*%
D11*
X33013Y193873D02*
X33601Y194682D01*
X34101Y195548D01*
X34508Y196462D01*
X34817Y197413D01*
X35025Y198391D01*
X35129Y199385D01*
Y200385D01*
X35025Y201380D01*
X34817Y202358D01*
X34508Y203309D01*
X34101Y204223D01*
X33601Y205089D01*
X33013Y205898D01*
X32344Y206641D01*
X31601Y207310D01*
X30792Y207898D01*
X29926Y208398D01*
X29012Y208805D01*
X28061Y209114D01*
X27083Y209321D01*
X26089Y209426D01*
X25089D01*
X24094Y209321D01*
X23116Y209114D01*
X22165Y208805D01*
X21251Y208398D01*
X20385Y207898D01*
X19576Y207310D01*
X18833Y206641D01*
X18164Y205898D01*
X17576Y205089D01*
X17076Y204223D01*
X16669Y203309D01*
X16360Y202358D01*
X16152Y201380D01*
X16048Y200385D01*
Y199385D01*
X16152Y198391D01*
X16360Y197413D01*
X16669Y196462D01*
X17076Y195548D01*
X17576Y194682D01*
X18164Y193873D01*
X18138Y193905D02*
X33039D01*
D12*
X17618Y190276D02*
X16880Y190702D01*
Y189849D01*
X17618Y190276D01*
D14*
X179921Y194882D02*
X179134D01*
X179921D01*
D15*
X48386Y10827D02*
Y225000D01*
Y10827D02*
X148465Y10827D01*
X48386Y225000D02*
X148465Y225000D01*
Y10827D02*
Y225000D01*
X59055Y275590D02*
Y314961D01*
Y275590D02*
X137795D01*
Y314961D01*
X59055D02*
X137795D01*
X166142Y200000D02*
X176378D01*
X166142Y193701D02*
X176378D01*
X166142D02*
Y200000D01*
X176378Y193701D02*
Y200000D01*
D53*
X58071Y262992D02*
Y268504D01*
X46260Y262992D02*
Y268504D01*
X58071D01*
X46260Y262992D02*
X58071D01*
D54*
X52165Y307676D02*
Y312676D01*
X49665Y311676D02*
X54665D01*
X52165D02*
X54665Y308676D01*
X52165Y311676D02*
X54165Y308676D01*
X52165Y311676D02*
X53665Y308676D01*
X52165Y311676D02*
X53165Y308676D01*
X52165Y311676D02*
X52665Y308676D01*
X49665D02*
X52165Y311676D01*
X50165Y308676D02*
X52165Y311676D01*
X50665Y308676D02*
X52165Y311676D01*
X51165Y308676D02*
X52165Y311676D01*
X51665Y308676D02*
X52165Y311676D01*
X49665Y308676D02*
X54665D01*
X46665Y284876D02*
Y305676D01*
Y284876D02*
X57665D01*
Y305676D01*
X46665D02*
X57665D01*
M02*
