G04*
G04 #@! TF.GenerationSoftware,Altium Limited,Altium Designer,21.7.1 (17)*
G04*
G04 Layer_Color=255*
%FSLAX25Y25*%
%MOIN*%
G70*
G04*
G04 #@! TF.SameCoordinates,4F73F3F9-A25A-42A2-B41E-11CF7C4F7039*
G04*
G04*
G04 #@! TF.FilePolarity,Positive*
G04*
G01*
G75*
%ADD45C,0.06142*%
%ADD46R,0.06142X0.06142*%
%ADD47O,0.04370X0.08740*%
%ADD48C,0.05118*%
%ADD49C,0.06890*%
%ADD50R,0.07874X0.07874*%
%ADD51C,0.07874*%
D45*
X143425Y95906D02*
D03*
Y85905D02*
D03*
Y75906D02*
D03*
Y65905D02*
D03*
Y55905D02*
D03*
Y45906D02*
D03*
Y35906D02*
D03*
Y25905D02*
D03*
Y15905D02*
D03*
Y105905D02*
D03*
Y115905D02*
D03*
Y125906D02*
D03*
Y135906D02*
D03*
Y195905D02*
D03*
Y185906D02*
D03*
Y165905D02*
D03*
Y155905D02*
D03*
Y145905D02*
D03*
Y175906D02*
D03*
X53425Y115905D02*
D03*
Y105905D02*
D03*
Y95906D02*
D03*
Y85905D02*
D03*
Y75906D02*
D03*
Y65905D02*
D03*
Y55905D02*
D03*
Y45906D02*
D03*
Y15905D02*
D03*
Y35906D02*
D03*
Y25905D02*
D03*
Y175906D02*
D03*
Y165905D02*
D03*
Y155905D02*
D03*
Y145905D02*
D03*
Y135906D02*
D03*
Y125906D02*
D03*
Y185906D02*
D03*
D46*
Y195905D02*
D03*
D47*
X20591Y197794D02*
D03*
X25591D02*
D03*
X30591D02*
D03*
D48*
X63425Y310276D02*
D03*
Y280276D02*
D03*
D49*
X133425D02*
D03*
X103425D02*
D03*
D50*
X172244Y288386D02*
D03*
D51*
Y302165D02*
D03*
M02*
