M48
;Layer_Color=9474304
;FILE_FORMAT=2:4
INCH,TZ
;TYPE=PLATED
T1F00S00C0.0280
T2F00S00C0.0315
T3F00S00C0.0366
T4F00S00C0.0409
T5F00S00C0.0492
T6F00S00C0.0551
%
T01
X12598Y7087
X10630Y10138
X18406Y8465
X18110Y13386
X17126Y16240
X5217Y20669
T02
X6343Y28028
Y31028
T03
X2059Y19779
X2559
X3059
T04
X5343Y1591
Y2591
Y3591
Y4591
Y5591
Y6591
Y7591
Y8591
Y9591
Y10591
Y11591
Y12591
Y13591
Y14591
Y15591
X14343
Y14591
Y13591
Y12591
Y11591
Y10591
Y9591
Y8591
Y7591
Y6591
Y5591
Y4591
Y3591
Y2591
Y1591
Y16591
Y17591
Y18591
Y19591
X5343
Y18591
Y17591
Y16591
T05
X10343Y28028
X13343
T06
X17224Y28839
Y30217
M30
