G04*
G04 #@! TF.GenerationSoftware,Altium Limited,Altium Designer,21.7.1 (17)*
G04*
G04 Layer_Color=255*
%FSLAX25Y25*%
%MOIN*%
G70*
G04*
G04 #@! TF.SameCoordinates,4F73F3F9-A25A-42A2-B41E-11CF7C4F7039*
G04*
G04*
G04 #@! TF.FilePolarity,Positive*
G04*
G01*
G75*
%ADD17R,0.03150X0.03740*%
%ADD18R,0.05118X0.03937*%
%ADD19R,0.03937X0.05118*%
%ADD20R,0.03150X0.04724*%
%ADD21R,0.07402X0.07559*%
%ADD22R,0.03543X0.03150*%
G04:AMPARAMS|DCode=23|XSize=31.5mil|YSize=35.43mil|CornerRadius=7.87mil|HoleSize=0mil|Usage=FLASHONLY|Rotation=270.000|XOffset=0mil|YOffset=0mil|HoleType=Round|Shape=RoundedRectangle|*
%AMROUNDEDRECTD23*
21,1,0.03150,0.01968,0,0,270.0*
21,1,0.01575,0.03543,0,0,270.0*
1,1,0.01575,-0.00984,-0.00787*
1,1,0.01575,-0.00984,0.00787*
1,1,0.01575,0.00984,0.00787*
1,1,0.01575,0.00984,-0.00787*
%
%ADD23ROUNDEDRECTD23*%
%ADD24R,0.05512X0.08268*%
%ADD25R,0.02165X0.00984*%
%ADD45C,0.06142*%
%ADD46R,0.06142X0.06142*%
%ADD47O,0.04370X0.08740*%
%ADD48C,0.05118*%
%ADD49C,0.06890*%
%ADD50R,0.07874X0.07874*%
%ADD51C,0.07874*%
D17*
X21063Y222440D02*
D03*
X28150Y222441D02*
D03*
D18*
X48228Y244094D02*
D03*
Y251969D02*
D03*
X163386Y218504D02*
D03*
Y226378D02*
D03*
X180118Y218504D02*
D03*
Y226378D02*
D03*
X171260Y133858D02*
D03*
Y125984D02*
D03*
X180118Y59055D02*
D03*
Y66929D02*
D03*
X34449Y59055D02*
D03*
Y66929D02*
D03*
X25591Y133858D02*
D03*
Y125984D02*
D03*
X162402Y66929D02*
D03*
Y59055D02*
D03*
X16732Y66929D02*
D03*
Y59055D02*
D03*
D19*
X30512Y260827D02*
D03*
X38386D02*
D03*
X29528Y177165D02*
D03*
X21654D02*
D03*
X167323D02*
D03*
X175197D02*
D03*
X167323Y84646D02*
D03*
X175197D02*
D03*
X21654D02*
D03*
X29528D02*
D03*
D20*
X55905Y261024D02*
D03*
X48425D02*
D03*
X52165Y270472D02*
D03*
D21*
Y287276D02*
D03*
Y303276D02*
D03*
D22*
X171260Y102067D02*
D03*
X25591D02*
D03*
D23*
X171260Y108563D02*
D03*
X25591D02*
D03*
D24*
X180118Y13583D02*
D03*
Y49409D02*
D03*
X162402D02*
D03*
Y13583D02*
D03*
X34449D02*
D03*
Y49409D02*
D03*
X16732D02*
D03*
Y13583D02*
D03*
D25*
X165847Y194882D02*
D03*
Y196850D02*
D03*
Y198819D02*
D03*
X176673D02*
D03*
Y196850D02*
D03*
Y194882D02*
D03*
D45*
X143425Y95906D02*
D03*
Y85905D02*
D03*
Y75906D02*
D03*
Y65905D02*
D03*
Y55905D02*
D03*
Y45906D02*
D03*
Y35906D02*
D03*
Y25905D02*
D03*
Y15905D02*
D03*
Y105905D02*
D03*
Y115905D02*
D03*
Y125906D02*
D03*
Y135906D02*
D03*
Y195905D02*
D03*
Y185906D02*
D03*
Y165905D02*
D03*
Y155905D02*
D03*
Y145905D02*
D03*
Y175906D02*
D03*
X53425Y115905D02*
D03*
Y105905D02*
D03*
Y95906D02*
D03*
Y85905D02*
D03*
Y75906D02*
D03*
Y65905D02*
D03*
Y55905D02*
D03*
Y45906D02*
D03*
Y15905D02*
D03*
Y35906D02*
D03*
Y25905D02*
D03*
Y175906D02*
D03*
Y165905D02*
D03*
Y155905D02*
D03*
Y145905D02*
D03*
Y135906D02*
D03*
Y125906D02*
D03*
Y185906D02*
D03*
D46*
Y195905D02*
D03*
D47*
X20591Y197794D02*
D03*
X25591D02*
D03*
X30591D02*
D03*
D48*
X63425Y310276D02*
D03*
Y280276D02*
D03*
D49*
X133425D02*
D03*
X103425D02*
D03*
D50*
X172244Y288386D02*
D03*
D51*
Y302165D02*
D03*
M02*
