G04*
G04 #@! TF.GenerationSoftware,Altium Limited,Altium Designer,21.7.1 (17)*
G04*
G04 Layer_Color=16711935*
%FSLAX25Y25*%
%MOIN*%
G70*
G04*
G04 #@! TF.SameCoordinates,4F73F3F9-A25A-42A2-B41E-11CF7C4F7039*
G04*
G04*
G04 #@! TF.FilePolarity,Positive*
G04*
G01*
G75*
%ADD13C,0.01000*%
D13*
X181102D02*
X182091Y31D01*
X183076Y124D01*
X184053Y279D01*
X185019Y495D01*
X185969Y771D01*
X186900Y1106D01*
X187808Y1499D01*
X188689Y1948D01*
X189541Y2451D01*
X190359Y3008D01*
X191141Y3614D01*
X191883Y4268D01*
X192582Y4968D01*
X193236Y5710D01*
X193843Y6492D01*
X194399Y7310D01*
X194903Y8161D01*
X195352Y9043D01*
X195745Y9951D01*
X196080Y10882D01*
X196356Y11832D01*
X196572Y12797D01*
X196726Y13774D01*
X196819Y14759D01*
X196850Y15748D01*
X0D02*
X31Y14759D01*
X124Y13774D01*
X279Y12797D01*
X495Y11832D01*
X771Y10882D01*
X1106Y9951D01*
X1499Y9043D01*
X1948Y8161D01*
X2451Y7310D01*
X3008Y6492D01*
X3614Y5710D01*
X4268Y4968D01*
X4968Y4268D01*
X5710Y3614D01*
X6492Y3008D01*
X7310Y2451D01*
X8161Y1948D01*
X9043Y1499D01*
X9951Y1106D01*
X10882Y771D01*
X11832Y495D01*
X12797Y279D01*
X13774Y124D01*
X14759Y31D01*
X15748Y0D01*
Y334646D02*
X14759Y334615D01*
X13774Y334522D01*
X12797Y334367D01*
X11832Y334151D01*
X10882Y333875D01*
X9951Y333540D01*
X9043Y333147D01*
X8161Y332698D01*
X7310Y332194D01*
X6492Y331638D01*
X5710Y331032D01*
X4968Y330378D01*
X4268Y329678D01*
X3614Y328936D01*
X3008Y328154D01*
X2451Y327336D01*
X1948Y326484D01*
X1499Y325603D01*
X1106Y324695D01*
X771Y323764D01*
X495Y322814D01*
X279Y321849D01*
X124Y320871D01*
X31Y319886D01*
X0Y318898D01*
X196850D02*
X196819Y319886D01*
X196726Y320871D01*
X196572Y321849D01*
X196356Y322814D01*
X196080Y323764D01*
X195745Y324695D01*
X195352Y325603D01*
X194903Y326484D01*
X194399Y327336D01*
X193843Y328154D01*
X193236Y328936D01*
X192582Y329678D01*
X191883Y330378D01*
X191140Y331032D01*
X190359Y331638D01*
X189541Y332194D01*
X188689Y332698D01*
X187808Y333147D01*
X186900Y333540D01*
X185969Y333875D01*
X185019Y334151D01*
X184053Y334367D01*
X183076Y334522D01*
X182091Y334615D01*
X181102Y334646D01*
X-0Y318898D02*
X0Y15748D01*
X15748Y334646D02*
X181102Y334646D01*
X196850Y318898D02*
X196850Y15748D01*
X15748Y-0D02*
X181102Y0D01*
M02*
