G04*
G04 #@! TF.GenerationSoftware,Altium Limited,Altium Designer,21.7.1 (17)*
G04*
G04 Layer_Color=65535*
%FSLAX25Y25*%
%MOIN*%
G70*
G04*
G04 #@! TF.SameCoordinates,805F3405-D18D-4A14-B230-685FC2141578*
G04*
G04*
G04 #@! TF.FilePolarity,Positive*
G04*
G01*
G75*
%ADD10C,0.01000*%
%ADD11C,0.00984*%
%ADD12C,0.00787*%
%ADD13C,0.00600*%
%ADD14C,0.00500*%
%ADD15C,0.00300*%
D10*
X225394Y48031D02*
X225383Y49033D01*
X225349Y50034D01*
X225294Y51034D01*
X225217Y52033D01*
X225117Y53030D01*
X224995Y54024D01*
X224852Y55015D01*
X224686Y56003D01*
X224499Y56987D01*
X224290Y57967D01*
X224060Y58942D01*
X223808Y59911D01*
X223534Y60874D01*
X223239Y61832D01*
X222923Y62782D01*
X222587Y63726D01*
X222229Y64661D01*
X221851Y65589D01*
X221452Y66508D01*
X221033Y67418D01*
X220595Y68318D01*
X220136Y69208D01*
X219657Y70088D01*
X219160Y70958D01*
X218643Y71816D01*
X218108Y72662D01*
X217553Y73497D01*
X216981Y74319D01*
X216390Y75128D01*
X215782Y75924D01*
X215156Y76706D01*
X214513Y77474D01*
X213854Y78227D01*
X213177Y78966D01*
X212485Y79690D01*
X211777Y80398D01*
X211053Y81091D01*
X210314Y81767D01*
X209560Y82427D01*
X208792Y83070D01*
X208010Y83695D01*
X207214Y84304D01*
X206405Y84894D01*
X205583Y85467D01*
X204749Y86021D01*
X203903Y86557D01*
X203045Y87073D01*
X202175Y87571D01*
X201295Y88049D01*
X200405Y88508D01*
X199504Y88947D01*
X198594Y89366D01*
X197675Y89764D01*
X196748Y90142D01*
X195812Y90500D01*
X194869Y90837D01*
X193918Y91153D01*
X192961Y91447D01*
X191998Y91721D01*
X191028Y91973D01*
X190053Y92204D01*
X189074Y92413D01*
X188090Y92600D01*
X187102Y92765D01*
X186110Y92909D01*
X185116Y93030D01*
X184120Y93130D01*
X183121Y93207D01*
X182121Y93263D01*
X181120Y93296D01*
X180118Y93307D01*
X179116Y93296D01*
X178115Y93263D01*
X177115Y93207D01*
X176117Y93130D01*
X175120Y93030D01*
X174126Y92909D01*
X173134Y92765D01*
X172146Y92600D01*
X171162Y92413D01*
X170183Y92203D01*
X169208Y91973D01*
X168239Y91721D01*
X167275Y91447D01*
X166318Y91153D01*
X165367Y90837D01*
X164424Y90500D01*
X163488Y90142D01*
X162561Y89764D01*
X161642Y89366D01*
X160732Y88947D01*
X159832Y88508D01*
X158941Y88049D01*
X158061Y87571D01*
X157192Y87073D01*
X156334Y86557D01*
X155487Y86021D01*
X154653Y85467D01*
X153831Y84894D01*
X153022Y84304D01*
X152226Y83695D01*
X151444Y83070D01*
X150676Y82427D01*
X149922Y81767D01*
X149183Y81091D01*
X148459Y80398D01*
X147751Y79690D01*
X147059Y78966D01*
X146382Y78227D01*
X145723Y77474D01*
X145080Y76705D01*
X144454Y75923D01*
X143846Y75128D01*
X143255Y74318D01*
X142683Y73497D01*
X142129Y72662D01*
X141593Y71816D01*
X141076Y70958D01*
X140579Y70088D01*
X140100Y69208D01*
X139642Y68318D01*
X139203Y67418D01*
X138784Y66508D01*
X138385Y65589D01*
X138007Y64661D01*
X137650Y63726D01*
X137313Y62782D01*
X136997Y61832D01*
X136702Y60874D01*
X136429Y59911D01*
X136177Y58941D01*
X135946Y57967D01*
X135737Y56987D01*
X135550Y56003D01*
X135384Y55015D01*
X135241Y54024D01*
X135119Y53030D01*
X135020Y52033D01*
X134942Y51034D01*
X134887Y50034D01*
X134854Y49033D01*
X134843Y48031D01*
X134854Y47030D01*
X134887Y46029D01*
X134942Y45028D01*
X135020Y44030D01*
X135119Y43033D01*
X135241Y42039D01*
X135384Y41048D01*
X135550Y40060D01*
X135737Y39076D01*
X135946Y38096D01*
X136177Y37121D01*
X136429Y36152D01*
X136702Y35188D01*
X136997Y34231D01*
X137313Y33281D01*
X137650Y32337D01*
X138007Y31402D01*
X138385Y30474D01*
X138784Y29555D01*
X139203Y28645D01*
X139642Y27745D01*
X140101Y26854D01*
X140579Y25974D01*
X141076Y25105D01*
X141593Y24247D01*
X142129Y23400D01*
X142683Y22566D01*
X143255Y21744D01*
X143846Y20935D01*
X144454Y20139D01*
X145080Y19357D01*
X145723Y18589D01*
X146383Y17835D01*
X147059Y17097D01*
X147751Y16373D01*
X148460Y15664D01*
X149183Y14972D01*
X149922Y14296D01*
X150676Y13636D01*
X151444Y12993D01*
X152226Y12367D01*
X153022Y11759D01*
X153831Y11169D01*
X154653Y10596D01*
X155488Y10042D01*
X156334Y9506D01*
X157192Y8990D01*
X158061Y8492D01*
X158941Y8014D01*
X159832Y7555D01*
X160732Y7116D01*
X161642Y6697D01*
X162561Y6299D01*
X163489Y5920D01*
X164424Y5563D01*
X165368Y5226D01*
X166318Y4910D01*
X167276Y4615D01*
X168239Y4342D01*
X169209Y4090D01*
X170183Y3859D01*
X171163Y3650D01*
X172147Y3463D01*
X173135Y3298D01*
X174126Y3154D01*
X175120Y3033D01*
X176117Y2933D01*
X177116Y2856D01*
X178116Y2800D01*
X179117Y2767D01*
X180119Y2756D01*
X181120Y2767D01*
X182121Y2800D01*
X183121Y2856D01*
X184120Y2933D01*
X185117Y3033D01*
X186111Y3154D01*
X187102Y3298D01*
X188090Y3463D01*
X189074Y3650D01*
X190054Y3859D01*
X191028Y4090D01*
X191998Y4342D01*
X192961Y4616D01*
X193919Y4910D01*
X194869Y5226D01*
X195813Y5563D01*
X196748Y5921D01*
X197676Y6299D01*
X198595Y6698D01*
X199505Y7116D01*
X200405Y7555D01*
X201295Y8014D01*
X202175Y8492D01*
X203045Y8990D01*
X203903Y9507D01*
X204749Y10042D01*
X205584Y10596D01*
X206406Y11169D01*
X207215Y11760D01*
X208010Y12368D01*
X208793Y12994D01*
X209561Y13636D01*
X210314Y14296D01*
X211053Y14973D01*
X211777Y15665D01*
X212485Y16373D01*
X213178Y17097D01*
X213854Y17836D01*
X214514Y18590D01*
X215157Y19358D01*
X215782Y20140D01*
X216391Y20936D01*
X216981Y21745D01*
X217554Y22567D01*
X218108Y23401D01*
X218643Y24248D01*
X219160Y25106D01*
X219658Y25975D01*
X220136Y26855D01*
X220595Y27745D01*
X221034Y28646D01*
X221452Y29556D01*
X221851Y30475D01*
X222229Y31402D01*
X222587Y32338D01*
X222924Y33281D01*
X223239Y34232D01*
X223534Y35189D01*
X223808Y36153D01*
X224060Y37122D01*
X224290Y38097D01*
X224499Y39076D01*
X224687Y40060D01*
X224852Y41048D01*
X224995Y42040D01*
X225117Y43034D01*
X225217Y44031D01*
X225294Y45029D01*
X225349Y46029D01*
X225383Y47030D01*
X225394Y48031D01*
X192913D02*
X192874Y49035D01*
X192756Y50033D01*
X192560Y51019D01*
X192287Y51986D01*
X191939Y52928D01*
X191519Y53840D01*
X191028Y54717D01*
X190470Y55552D01*
X189848Y56341D01*
X189166Y57079D01*
X188428Y57761D01*
X187639Y58383D01*
X186804Y58941D01*
X185927Y59432D01*
X185015Y59853D01*
X184072Y60201D01*
X183105Y60473D01*
X182120Y60669D01*
X181122Y60787D01*
X180118Y60827D01*
X179114Y60787D01*
X178117Y60669D01*
X177131Y60473D01*
X176164Y60201D01*
X175222Y59853D01*
X174309Y59432D01*
X173433Y58941D01*
X172597Y58383D01*
X171808Y57761D01*
X171071Y57079D01*
X170388Y56341D01*
X169766Y55552D01*
X169208Y54717D01*
X168717Y53840D01*
X168297Y52928D01*
X167949Y51986D01*
X167676Y51019D01*
X167480Y50033D01*
X167362Y49035D01*
X167323Y48031D01*
X167362Y47028D01*
X167480Y46030D01*
X167676Y45044D01*
X167949Y44078D01*
X168297Y43135D01*
X168717Y42223D01*
X169208Y41346D01*
X169766Y40511D01*
X170388Y39722D01*
X171071Y38984D01*
X171808Y38302D01*
X172597Y37680D01*
X173433Y37122D01*
X174309Y36631D01*
X175222Y36210D01*
X176164Y35862D01*
X177131Y35590D01*
X178117Y35394D01*
X179114Y35276D01*
X180118Y35236D01*
X181122Y35276D01*
X182120Y35394D01*
X183105Y35590D01*
X184072Y35862D01*
X185015Y36210D01*
X185927Y36631D01*
X186804Y37122D01*
X187639Y37680D01*
X188428Y38302D01*
X189166Y38984D01*
X189848Y39722D01*
X190470Y40511D01*
X191028Y41346D01*
X191519Y42223D01*
X191939Y43135D01*
X192287Y44078D01*
X192560Y45044D01*
X192756Y46030D01*
X192874Y47028D01*
X192913Y48031D01*
X83071Y13780D02*
X82975Y14785D01*
X82690Y15755D01*
X82227Y16653D01*
X81603Y17447D01*
X80839Y18109D01*
X79964Y18614D01*
X79009Y18945D01*
X78009Y19089D01*
X76999Y19040D01*
X76017Y18802D01*
X75098Y18383D01*
X74275Y17796D01*
X73578Y17065D01*
X73032Y16215D01*
X72656Y15277D01*
X72465Y14285D01*
Y13274D01*
X72656Y12282D01*
X73032Y11344D01*
X73578Y10494D01*
X74275Y9763D01*
X75098Y9177D01*
X76017Y8757D01*
X76999Y8519D01*
X78009Y8471D01*
X79009Y8614D01*
X79964Y8945D01*
X80839Y9450D01*
X81603Y10112D01*
X82227Y10906D01*
X82690Y11804D01*
X82975Y12774D01*
X83071Y13780D01*
Y39370D02*
X82975Y40376D01*
X82690Y41346D01*
X82227Y42244D01*
X81603Y43038D01*
X80839Y43700D01*
X79964Y44205D01*
X79009Y44535D01*
X78009Y44679D01*
X76999Y44631D01*
X76017Y44393D01*
X75098Y43973D01*
X74275Y43387D01*
X73578Y42656D01*
X73032Y41806D01*
X72656Y40867D01*
X72465Y39875D01*
Y38865D01*
X72656Y37873D01*
X73032Y36935D01*
X73578Y36084D01*
X74275Y35353D01*
X75098Y34767D01*
X76017Y34347D01*
X76999Y34109D01*
X78009Y34061D01*
X79009Y34205D01*
X79964Y34535D01*
X80839Y35041D01*
X81603Y35702D01*
X82227Y36496D01*
X82690Y37395D01*
X82975Y38364D01*
X83071Y39370D01*
X47638Y39370D02*
X47542Y40376D01*
X47257Y41346D01*
X46794Y42244D01*
X46169Y43038D01*
X45406Y43700D01*
X44531Y44205D01*
X43576Y44535D01*
X42576Y44679D01*
X41566Y44631D01*
X40584Y44393D01*
X39665Y43973D01*
X38842Y43387D01*
X38145Y42656D01*
X37599Y41806D01*
X37223Y40867D01*
X37032Y39875D01*
Y38865D01*
X37223Y37873D01*
X37599Y36935D01*
X38145Y36084D01*
X38842Y35353D01*
X39665Y34767D01*
X40584Y34347D01*
X41566Y34109D01*
X42576Y34061D01*
X43576Y34205D01*
X44531Y34535D01*
X45406Y35041D01*
X46169Y35702D01*
X46794Y36496D01*
X47257Y37395D01*
X47542Y38364D01*
X47638Y39370D01*
X83071Y64961D02*
X82975Y65966D01*
X82690Y66936D01*
X82227Y67834D01*
X81603Y68629D01*
X80839Y69290D01*
X79964Y69795D01*
X79009Y70126D01*
X78009Y70270D01*
X76999Y70222D01*
X76017Y69983D01*
X75098Y69564D01*
X74275Y68977D01*
X73578Y68246D01*
X73032Y67396D01*
X72656Y66458D01*
X72465Y65466D01*
Y64455D01*
X72656Y63463D01*
X73032Y62525D01*
X73578Y61675D01*
X74275Y60944D01*
X75098Y60358D01*
X76017Y59938D01*
X76999Y59700D01*
X78009Y59652D01*
X79009Y59795D01*
X79964Y60126D01*
X80839Y60631D01*
X81603Y61293D01*
X82227Y62087D01*
X82690Y62985D01*
X82975Y63955D01*
X83071Y64961D01*
X118504Y40354D02*
X118408Y41360D01*
X118123Y42330D01*
X117660Y43228D01*
X117036Y44022D01*
X116272Y44684D01*
X115397Y45189D01*
X114442Y45520D01*
X113442Y45663D01*
X112433Y45615D01*
X111451Y45377D01*
X110531Y44957D01*
X109708Y44371D01*
X109011Y43640D01*
X108465Y42790D01*
X108089Y41852D01*
X107898Y40860D01*
Y39849D01*
X108089Y38857D01*
X108465Y37919D01*
X109011Y37069D01*
X109708Y36338D01*
X110531Y35751D01*
X111451Y35332D01*
X112433Y35093D01*
X113442Y35045D01*
X114442Y35189D01*
X115397Y35520D01*
X116272Y36025D01*
X117036Y36687D01*
X117660Y37481D01*
X118123Y38379D01*
X118408Y39348D01*
X118504Y40354D01*
X107874Y181220D02*
Y191220D01*
X47756Y181220D02*
X107874D01*
X47756Y191220D02*
X107874D01*
X47756Y181220D02*
Y191220D01*
X311417Y156299D02*
Y182283D01*
X342126Y156299D02*
Y182283D01*
X311417Y183858D02*
Y209842D01*
X342126Y183858D02*
Y209842D01*
X284252Y188386D02*
X310236D01*
X284252Y219094D02*
X310236D01*
X256693Y188386D02*
X282677D01*
X256693Y219094D02*
X282677D01*
X309449Y94291D02*
Y120276D01*
X340158Y94291D02*
Y120276D01*
X309449Y66732D02*
Y92716D01*
X340158Y66732D02*
Y92716D01*
X309449Y39173D02*
Y65158D01*
X340158Y39173D02*
Y65158D01*
X309449Y11614D02*
Y37598D01*
X340158Y11614D02*
Y37598D01*
X67756Y3280D02*
X87756D01*
Y24280D01*
X67756D02*
X87756D01*
X67756Y3280D02*
Y24280D01*
Y49870D02*
X87756D01*
X67756Y28870D02*
Y49870D01*
Y28870D02*
X87756D01*
Y49870D01*
X31823Y29370D02*
Y49370D01*
Y29370D02*
X52823D01*
Y49370D01*
X31823D02*
X52823D01*
X67756Y54461D02*
X87756D01*
Y75461D01*
X67756D02*
X87756D01*
X67756Y54461D02*
Y75461D01*
X123689Y30354D02*
Y50354D01*
X102689D02*
X123689D01*
X102689Y30354D02*
Y50354D01*
Y30354D02*
X123689D01*
X221426Y183978D02*
X225425D01*
Y185977D01*
X224758Y186644D01*
X222092D01*
X221426Y185977D01*
Y183978D01*
X225425Y187977D02*
Y189310D01*
Y188643D01*
X221426D01*
X222092Y187977D01*
Y191309D02*
X221426Y191975D01*
Y193308D01*
X222092Y193975D01*
X224758D01*
X225425Y193308D01*
Y191975D01*
X224758Y191309D01*
X222092D01*
X221426Y172849D02*
X225425D01*
Y174848D01*
X224758Y175515D01*
X222092D01*
X221426Y174848D01*
Y172849D01*
X224758Y176848D02*
X225425Y177514D01*
Y178847D01*
X224758Y179513D01*
X222092D01*
X221426Y178847D01*
Y177514D01*
X222092Y176848D01*
X222759D01*
X223425Y177514D01*
Y179513D01*
X221426Y160054D02*
X225425D01*
Y162053D01*
X224758Y162719D01*
X222092D01*
X221426Y162053D01*
Y160054D01*
X222092Y164052D02*
X221426Y164719D01*
Y166052D01*
X222092Y166718D01*
X222759D01*
X223425Y166052D01*
X224092Y166718D01*
X224758D01*
X225425Y166052D01*
Y164719D01*
X224758Y164052D01*
X224092D01*
X223425Y164719D01*
X222759Y164052D01*
X222092D01*
X223425Y164719D02*
Y166052D01*
X221426Y147258D02*
X225425D01*
Y149258D01*
X224758Y149924D01*
X222092D01*
X221426Y149258D01*
Y147258D01*
Y151257D02*
Y153923D01*
X222092D01*
X224758Y151257D01*
X225425D01*
X158479Y168228D02*
X156813D01*
X155980Y167394D01*
Y164062D01*
X156813Y163229D01*
X158479D01*
X159312Y164062D01*
Y167394D01*
X158479Y168228D01*
X164310Y167394D02*
X163477Y168228D01*
X161811D01*
X160978Y167394D01*
Y164062D01*
X161811Y163229D01*
X163477D01*
X164310Y164062D01*
X165976Y163229D02*
X167642D01*
X166809D01*
Y168228D01*
X165976Y167394D01*
X136175Y117444D02*
X133510D01*
X132843Y116777D01*
Y115444D01*
X133510Y114778D01*
X136175D01*
X136842Y115444D01*
Y116777D01*
X135509Y116111D02*
X136842Y117444D01*
Y116777D02*
X136175Y117444D01*
X136842Y120776D02*
X132843D01*
X134843Y118777D01*
Y121442D01*
X136175Y133192D02*
X133510D01*
X132843Y132525D01*
Y131193D01*
X133510Y130526D01*
X136175D01*
X136842Y131193D01*
Y132525D01*
X135509Y131859D02*
X136842Y133192D01*
Y132525D02*
X136175Y133192D01*
X133510Y134525D02*
X132843Y135191D01*
Y136524D01*
X133510Y137190D01*
X134176D01*
X134843Y136524D01*
Y135858D01*
Y136524D01*
X135509Y137190D01*
X136175D01*
X136842Y136524D01*
Y135191D01*
X136175Y134525D01*
Y148940D02*
X133510D01*
X132843Y148273D01*
Y146941D01*
X133510Y146274D01*
X136175D01*
X136842Y146941D01*
Y148273D01*
X135509Y147607D02*
X136842Y148940D01*
Y148273D02*
X136175Y148940D01*
X136842Y152939D02*
Y150273D01*
X134176Y152939D01*
X133510D01*
X132843Y152272D01*
Y150939D01*
X133510Y150273D01*
X136175Y164370D02*
X133510D01*
X132843Y163704D01*
Y162371D01*
X133510Y161704D01*
X136175D01*
X136842Y162371D01*
Y163704D01*
X135509Y163037D02*
X136842Y164370D01*
Y163704D02*
X136175Y164370D01*
X136842Y165703D02*
Y167036D01*
Y166369D01*
X132843D01*
X133510Y165703D01*
X49817Y92066D02*
X53150Y87068D01*
Y92066D02*
X49817Y87068D01*
X54816D02*
X56482D01*
X55649D01*
Y92066D01*
X54816Y91233D01*
X91082Y89110D02*
X86084D01*
Y91610D01*
X86917Y92443D01*
X88583D01*
X89416Y91610D01*
Y89110D01*
Y90776D02*
X91082Y92443D01*
X86084Y94109D02*
Y97441D01*
Y95775D01*
X91082D01*
X86917Y102439D02*
X86084Y101606D01*
Y99940D01*
X86917Y99107D01*
X90249D01*
X91082Y99940D01*
Y101606D01*
X90249Y102439D01*
X91082Y104105D02*
Y105772D01*
Y104938D01*
X86084D01*
X86917Y104105D01*
X100968Y107253D02*
Y111251D01*
X102967D01*
X103633Y110585D01*
Y109252D01*
X102967Y108586D01*
X100968D01*
X102301D02*
X103633Y107253D01*
X104966Y110585D02*
X105633Y111251D01*
X106966D01*
X107632Y110585D01*
Y109918D01*
X106966Y109252D01*
X106299D01*
X106966D01*
X107632Y108586D01*
Y107919D01*
X106966Y107253D01*
X105633D01*
X104966Y107919D01*
X111631Y107253D02*
X108965D01*
X111631Y109918D01*
Y110585D01*
X110964Y111251D01*
X109632D01*
X108965Y110585D01*
X101634Y123001D02*
Y126999D01*
X103633D01*
X104300Y126333D01*
Y125000D01*
X103633Y124334D01*
X101634D01*
X102967D02*
X104300Y123001D01*
X105633Y126333D02*
X106299Y126999D01*
X107632D01*
X108299Y126333D01*
Y125666D01*
X107632Y125000D01*
X106966D01*
X107632D01*
X108299Y124334D01*
Y123667D01*
X107632Y123001D01*
X106299D01*
X105633Y123667D01*
X109632Y123001D02*
X110964D01*
X110298D01*
Y126999D01*
X109632Y126333D01*
X100968Y138749D02*
Y142747D01*
X102967D01*
X103633Y142081D01*
Y140748D01*
X102967Y140082D01*
X100968D01*
X102301D02*
X103633Y138749D01*
X104966Y142081D02*
X105633Y142747D01*
X106966D01*
X107632Y142081D01*
Y141414D01*
X106966Y140748D01*
X106299D01*
X106966D01*
X107632Y140082D01*
Y139415D01*
X106966Y138749D01*
X105633D01*
X104966Y139415D01*
X108965Y142081D02*
X109632Y142747D01*
X110964D01*
X111631Y142081D01*
Y139415D01*
X110964Y138749D01*
X109632D01*
X108965Y139415D01*
Y142081D01*
X100968Y154497D02*
Y158495D01*
X102967D01*
X103633Y157829D01*
Y156496D01*
X102967Y155830D01*
X100968D01*
X102301D02*
X103633Y154497D01*
X107632D02*
X104966D01*
X107632Y157162D01*
Y157829D01*
X106966Y158495D01*
X105633D01*
X104966Y157829D01*
X108965Y155163D02*
X109632Y154497D01*
X110964D01*
X111631Y155163D01*
Y157829D01*
X110964Y158495D01*
X109632D01*
X108965Y157829D01*
Y157162D01*
X109632Y156496D01*
X111631D01*
X96972Y112143D02*
X93973D01*
Y113643D01*
X94473Y114142D01*
X95472D01*
X95972Y113643D01*
Y112143D01*
Y113143D02*
X96972Y114142D01*
Y117141D02*
Y115142D01*
X94973Y117141D01*
X94473D01*
X93973Y116642D01*
Y115642D01*
X94473Y115142D01*
Y118141D02*
X93973Y118641D01*
Y119641D01*
X94473Y120140D01*
X94973D01*
X95472Y119641D01*
X95972Y120140D01*
X96472D01*
X96972Y119641D01*
Y118641D01*
X96472Y118141D01*
X95972D01*
X95472Y118641D01*
X94973Y118141D01*
X94473D01*
X95472Y118641D02*
Y119641D01*
X96972Y127891D02*
X93973D01*
Y129391D01*
X94473Y129890D01*
X95472D01*
X95972Y129391D01*
Y127891D01*
Y128891D02*
X96972Y129890D01*
Y132889D02*
Y130890D01*
X94973Y132889D01*
X94473D01*
X93973Y132390D01*
Y131390D01*
X94473Y130890D01*
X93973Y133889D02*
Y135889D01*
X94473D01*
X96472Y133889D01*
X96972D01*
Y143639D02*
X93973D01*
Y145139D01*
X94473Y145638D01*
X95472D01*
X95972Y145139D01*
Y143639D01*
Y144639D02*
X96972Y145638D01*
Y148637D02*
Y146638D01*
X94973Y148637D01*
X94473D01*
X93973Y148138D01*
Y147138D01*
X94473Y146638D01*
X93973Y151637D02*
X94473Y150637D01*
X95472Y149637D01*
X96472D01*
X96972Y150137D01*
Y151137D01*
X96472Y151637D01*
X95972D01*
X95472Y151137D01*
Y149637D01*
X96972Y159387D02*
X93973D01*
Y160887D01*
X94473Y161387D01*
X95472D01*
X95972Y160887D01*
Y159387D01*
Y160387D02*
X96972Y161387D01*
Y164385D02*
Y162386D01*
X94973Y164385D01*
X94473D01*
X93973Y163886D01*
Y162886D01*
X94473Y162386D01*
X93973Y167385D02*
Y165385D01*
X95472D01*
X94973Y166385D01*
Y166885D01*
X95472Y167385D01*
X96472D01*
X96972Y166885D01*
Y165885D01*
X96472Y165385D01*
X38960Y127922D02*
Y131921D01*
X40959D01*
X41625Y131254D01*
Y129921D01*
X40959Y129255D01*
X38960D01*
X40293D02*
X41625Y127922D01*
X45624D02*
X42958D01*
X45624Y130588D01*
Y131254D01*
X44958Y131921D01*
X43625D01*
X42958Y131254D01*
X48957Y127922D02*
Y131921D01*
X46957Y129921D01*
X49623D01*
X38960Y119064D02*
Y123062D01*
X40959D01*
X41625Y122396D01*
Y121063D01*
X40959Y120396D01*
X38960D01*
X40293D02*
X41625Y119064D01*
X45624D02*
X42958D01*
X45624Y121729D01*
Y122396D01*
X44958Y123062D01*
X43625D01*
X42958Y122396D01*
X46957D02*
X47624Y123062D01*
X48957D01*
X49623Y122396D01*
Y121729D01*
X48957Y121063D01*
X48290D01*
X48957D01*
X49623Y120396D01*
Y119730D01*
X48957Y119064D01*
X47624D01*
X46957Y119730D01*
X38960Y110205D02*
Y114204D01*
X40959D01*
X41625Y113538D01*
Y112205D01*
X40959Y111538D01*
X38960D01*
X40293D02*
X41625Y110205D01*
X45624D02*
X42958D01*
X45624Y112871D01*
Y113538D01*
X44958Y114204D01*
X43625D01*
X42958Y113538D01*
X49623Y110205D02*
X46957D01*
X49623Y112871D01*
Y113538D01*
X48957Y114204D01*
X47624D01*
X46957Y113538D01*
X38642Y101347D02*
Y105346D01*
X40641D01*
X41308Y104679D01*
Y103347D01*
X40641Y102680D01*
X38642D01*
X39975D02*
X41308Y101347D01*
X45306D02*
X42641D01*
X45306Y104013D01*
Y104679D01*
X44640Y105346D01*
X43307D01*
X42641Y104679D01*
X46639Y101347D02*
X47972D01*
X47306D01*
Y105346D01*
X46639Y104679D01*
X118298Y80193D02*
Y83192D01*
X119798D01*
X120298Y82693D01*
Y81693D01*
X119798Y81193D01*
X118298D01*
X119298D02*
X120298Y80193D01*
X121298D02*
X122297D01*
X121797D01*
Y83192D01*
X121298Y82693D01*
X125796Y83192D02*
X124796Y82693D01*
X123797Y81693D01*
Y80693D01*
X124296Y80193D01*
X125296D01*
X125796Y80693D01*
Y81193D01*
X125296Y81693D01*
X123797D01*
X127157Y73304D02*
Y76303D01*
X128656D01*
X129156Y75803D01*
Y74803D01*
X128656Y74303D01*
X127157D01*
X128156D02*
X129156Y73304D01*
X130156D02*
X131155D01*
X130656D01*
Y76303D01*
X130156Y75803D01*
X134654Y76303D02*
X132655D01*
Y74803D01*
X133655Y75303D01*
X134154D01*
X134654Y74803D01*
Y73804D01*
X134154Y73304D01*
X133155D01*
X132655Y73804D01*
X29716Y80193D02*
Y83192D01*
X31215D01*
X31715Y82693D01*
Y81693D01*
X31215Y81193D01*
X29716D01*
X30716D02*
X31715Y80193D01*
X32715D02*
X33715D01*
X33215D01*
Y83192D01*
X32715Y82693D01*
X36713Y80193D02*
Y83192D01*
X35214Y81693D01*
X37213D01*
X20857Y73304D02*
Y76303D01*
X22357D01*
X22857Y75803D01*
Y74803D01*
X22357Y74303D01*
X20857D01*
X21857D02*
X22857Y73304D01*
X23856D02*
X24856D01*
X24356D01*
Y76303D01*
X23856Y75803D01*
X26356D02*
X26856Y76303D01*
X27855D01*
X28355Y75803D01*
Y75303D01*
X27855Y74803D01*
X27355D01*
X27855D01*
X28355Y74303D01*
Y73804D01*
X27855Y73304D01*
X26856D01*
X26356Y73804D01*
X24264Y2422D02*
Y7420D01*
X26763D01*
X27596Y6587D01*
Y4921D01*
X26763Y4088D01*
X24264D01*
X25930D02*
X27596Y2422D01*
X29262D02*
X30928D01*
X30095D01*
Y7420D01*
X29262Y6587D01*
X36760Y2422D02*
X33428D01*
X36760Y5754D01*
Y6587D01*
X35927Y7420D01*
X34261D01*
X33428Y6587D01*
X118601Y4391D02*
Y9389D01*
X121100D01*
X121933Y8556D01*
Y6890D01*
X121100Y6057D01*
X118601D01*
X120267D02*
X121933Y4391D01*
X123599D02*
X125265D01*
X124432D01*
Y9389D01*
X123599Y8556D01*
X127764Y4391D02*
X129431D01*
X128598D01*
Y9389D01*
X127764Y8556D01*
X5677Y30965D02*
Y35964D01*
X8176D01*
X9009Y35131D01*
Y33465D01*
X8176Y32631D01*
X5677D01*
X7343D02*
X9009Y30965D01*
X10676Y31798D02*
X11509Y30965D01*
X13175D01*
X14008Y31798D01*
Y35131D01*
X13175Y35964D01*
X11509D01*
X10676Y35131D01*
Y34298D01*
X11509Y33465D01*
X14008D01*
X28315Y10296D02*
Y15294D01*
X30814D01*
X31647Y14461D01*
Y12795D01*
X30814Y11962D01*
X28315D01*
X29981D02*
X31647Y10296D01*
X33313Y15294D02*
X36646D01*
Y14461D01*
X33313Y11129D01*
Y10296D01*
X118866Y12265D02*
Y17263D01*
X121365D01*
X122198Y16430D01*
Y14764D01*
X121365Y13931D01*
X118866D01*
X120532D02*
X122198Y12265D01*
X127197Y17263D02*
X125531Y16430D01*
X123865Y14764D01*
Y13098D01*
X124698Y12265D01*
X126364D01*
X127197Y13098D01*
Y13931D01*
X126364Y14764D01*
X123865D01*
X11583Y61477D02*
Y66476D01*
X14082D01*
X14915Y65642D01*
Y63976D01*
X14082Y63143D01*
X11583D01*
X13249D02*
X14915Y61477D01*
X19080D02*
Y66476D01*
X16581Y63976D01*
X19913D01*
X3709Y168761D02*
Y173759D01*
X6208D01*
X7041Y172926D01*
Y171260D01*
X6208Y170427D01*
X3709D01*
X5375D02*
X7041Y168761D01*
X12039D02*
X8707D01*
X12039Y172093D01*
Y172926D01*
X11206Y173759D01*
X9540D01*
X8707Y172926D01*
X15369Y168761D02*
Y173759D01*
X17868D01*
X18701Y172926D01*
Y171260D01*
X17868Y170427D01*
X15369D01*
X17035D02*
X18701Y168761D01*
X20367D02*
X22033D01*
X21200D01*
Y173759D01*
X20367Y172926D01*
X32706Y195897D02*
X31373D01*
X30706Y195230D01*
Y192565D01*
X31373Y191898D01*
X32706D01*
X33372Y192565D01*
Y195230D01*
X32706Y195897D01*
X34705D02*
Y191898D01*
X37371D01*
X41369Y195897D02*
X38704D01*
Y191898D01*
X41369D01*
X38704Y193898D02*
X40036D01*
X42702Y195897D02*
Y191898D01*
X44702D01*
X45368Y192565D01*
Y195230D01*
X44702Y195897D01*
X42702D01*
X46701Y191898D02*
X48034D01*
X47368D01*
Y195897D01*
X46701Y195230D01*
X60984Y172775D02*
X62650D01*
X61817D01*
Y167776D01*
X60984D01*
X62650D01*
X67648Y172775D02*
X65982D01*
X65149Y171942D01*
Y168609D01*
X65982Y167776D01*
X67648D01*
X68481Y168609D01*
Y171942D01*
X67648Y172775D01*
X73479D02*
X70147D01*
Y167776D01*
X73479D01*
X70147Y170276D02*
X71813D01*
X75146Y167776D02*
X76812D01*
X75979D01*
Y172775D01*
X75146Y171942D01*
X180118Y195413D02*
X176786D01*
Y190414D01*
X180118D01*
X176786Y192913D02*
X178452D01*
X181784Y190414D02*
X183450D01*
X182617D01*
Y195413D01*
X181784Y194580D01*
X191898Y94411D02*
X195897D01*
Y96410D01*
X195230Y97077D01*
X192565D01*
X191898Y96410D01*
Y94411D01*
X195897Y98410D02*
Y99743D01*
Y99076D01*
X191898D01*
X192565Y98410D01*
X195897Y103741D02*
X191898D01*
X193898Y101742D01*
Y104408D01*
X191898Y107206D02*
X195897D01*
Y109206D01*
X195230Y109872D01*
X192565D01*
X191898Y109206D01*
Y107206D01*
X195897Y111205D02*
Y112538D01*
Y111872D01*
X191898D01*
X192565Y111205D01*
Y114537D02*
X191898Y115204D01*
Y116537D01*
X192565Y117203D01*
X193231D01*
X193898Y116537D01*
Y115870D01*
Y116537D01*
X194564Y117203D01*
X195230D01*
X195897Y116537D01*
Y115204D01*
X195230Y114537D01*
X191898Y120002D02*
X195897D01*
Y122001D01*
X195230Y122667D01*
X192565D01*
X191898Y122001D01*
Y120002D01*
X195897Y124000D02*
Y125333D01*
Y124667D01*
X191898D01*
X192565Y124000D01*
X195897Y129998D02*
Y127333D01*
X193231Y129998D01*
X192565D01*
X191898Y129332D01*
Y127999D01*
X192565Y127333D01*
X191898Y133463D02*
X195897D01*
Y135463D01*
X195230Y136129D01*
X192565D01*
X191898Y135463D01*
Y133463D01*
X195897Y137462D02*
Y138795D01*
Y138128D01*
X191898D01*
X192565Y137462D01*
X195897Y140794D02*
Y142127D01*
Y141461D01*
X191898D01*
X192565Y140794D01*
X99878Y65414D02*
X102877D01*
Y66914D01*
X102378Y67414D01*
X100378D01*
X99878Y66914D01*
Y65414D01*
Y70413D02*
X100378Y69413D01*
X101378Y68413D01*
X102378D01*
X102877Y68913D01*
Y69913D01*
X102378Y70413D01*
X101878D01*
X101378Y69913D01*
Y68413D01*
X103800Y83192D02*
Y80193D01*
X105299D01*
X105799Y80693D01*
Y82693D01*
X105299Y83192D01*
X103800D01*
X108798D02*
X106799D01*
Y81693D01*
X107799Y82193D01*
X108299D01*
X108798Y81693D01*
Y80693D01*
X108299Y80193D01*
X107299D01*
X106799Y80693D01*
X52634Y65414D02*
X55633D01*
Y66914D01*
X55133Y67414D01*
X53134D01*
X52634Y66914D01*
Y65414D01*
X55633Y69913D02*
X52634D01*
X54134Y68413D01*
Y70413D01*
X46713Y83192D02*
Y80193D01*
X48213D01*
X48713Y80693D01*
Y82693D01*
X48213Y83192D01*
X46713D01*
X49712Y82693D02*
X50212Y83192D01*
X51212D01*
X51712Y82693D01*
Y82193D01*
X51212Y81693D01*
X50712D01*
X51212D01*
X51712Y81193D01*
Y80693D01*
X51212Y80193D01*
X50212D01*
X49712Y80693D01*
X4693Y150137D02*
Y145139D01*
X7192D01*
X8025Y145972D01*
Y149304D01*
X7192Y150137D01*
X4693D01*
X13024Y145139D02*
X9691D01*
X13024Y148471D01*
Y149304D01*
X12190Y150137D01*
X10524D01*
X9691Y149304D01*
X15369Y150137D02*
Y145139D01*
X17868D01*
X18701Y145972D01*
Y149304D01*
X17868Y150137D01*
X15369D01*
X20367Y145139D02*
X22033D01*
X21200D01*
Y150137D01*
X20367Y149304D01*
X342822Y19759D02*
X341989Y18926D01*
Y17260D01*
X342822Y16427D01*
X346154D01*
X346987Y17260D01*
Y18926D01*
X346154Y19759D01*
X341989Y21425D02*
Y24757D01*
Y23091D01*
X346987D01*
X341989Y26424D02*
X346987D01*
Y28923D01*
X346154Y29756D01*
X345321D01*
X344488Y28923D01*
Y26424D01*
Y28923D01*
X343655Y29756D01*
X342822D01*
X341989Y28923D01*
Y26424D01*
X342822Y31422D02*
X341989Y32255D01*
Y33921D01*
X342822Y34754D01*
X343655D01*
X344488Y33921D01*
X345321Y34754D01*
X346154D01*
X346987Y33921D01*
Y32255D01*
X346154Y31422D01*
X345321D01*
X344488Y32255D01*
X343655Y31422D01*
X342822D01*
X344488Y32255D02*
Y33921D01*
X342822Y46334D02*
X341989Y45501D01*
Y43835D01*
X342822Y43002D01*
X346154D01*
X346987Y43835D01*
Y45501D01*
X346154Y46334D01*
X341989Y48000D02*
Y51332D01*
Y49666D01*
X346987D01*
X341989Y52998D02*
X346987D01*
Y55498D01*
X346154Y56331D01*
X345321D01*
X344488Y55498D01*
Y52998D01*
Y55498D01*
X343655Y56331D01*
X342822D01*
X341989Y55498D01*
Y52998D01*
Y57997D02*
Y61329D01*
X342822D01*
X346154Y57997D01*
X346987D01*
X342822Y73893D02*
X341989Y73060D01*
Y71394D01*
X342822Y70561D01*
X346154D01*
X346987Y71394D01*
Y73060D01*
X346154Y73893D01*
X341989Y75559D02*
Y78891D01*
Y77225D01*
X346987D01*
X341989Y80558D02*
X346987D01*
Y83057D01*
X346154Y83890D01*
X345321D01*
X344488Y83057D01*
Y80558D01*
Y83057D01*
X343655Y83890D01*
X342822D01*
X341989Y83057D01*
Y80558D01*
Y88888D02*
X342822Y87222D01*
X344488Y85556D01*
X346154D01*
X346987Y86389D01*
Y88055D01*
X346154Y88888D01*
X345321D01*
X344488Y88055D01*
Y85556D01*
X342822Y101452D02*
X341989Y100619D01*
Y98953D01*
X342822Y98120D01*
X346154D01*
X346987Y98953D01*
Y100619D01*
X346154Y101452D01*
X341989Y103118D02*
Y106450D01*
Y104784D01*
X346987D01*
X341989Y108116D02*
X346987D01*
Y110616D01*
X346154Y111449D01*
X345321D01*
X344488Y110616D01*
Y108116D01*
Y110616D01*
X343655Y111449D01*
X342822D01*
X341989Y110616D01*
Y108116D01*
Y116447D02*
Y113115D01*
X344488D01*
X343655Y114781D01*
Y115614D01*
X344488Y116447D01*
X346154D01*
X346987Y115614D01*
Y113948D01*
X346154Y113115D01*
X240232Y192611D02*
X239399Y193444D01*
X237732D01*
X236899Y192611D01*
Y189279D01*
X237732Y188446D01*
X239399D01*
X240232Y189279D01*
X241898Y193444D02*
X245230D01*
X243564D01*
Y188446D01*
X246896Y193444D02*
Y188446D01*
X249395D01*
X250228Y189279D01*
Y190112D01*
X249395Y190945D01*
X246896D01*
X249395D01*
X250228Y191778D01*
Y192611D01*
X249395Y193444D01*
X246896D01*
X254394Y188446D02*
Y193444D01*
X251894Y190945D01*
X255227D01*
X315035Y217217D02*
X314202Y218050D01*
X312536D01*
X311702Y217217D01*
Y213885D01*
X312536Y213052D01*
X314202D01*
X315035Y213885D01*
X316701Y218050D02*
X320033D01*
X318367D01*
Y213052D01*
X321699Y218050D02*
Y213052D01*
X324198D01*
X325031Y213885D01*
Y214718D01*
X324198Y215551D01*
X321699D01*
X324198D01*
X325031Y216384D01*
Y217217D01*
X324198Y218050D01*
X321699D01*
X326698Y217217D02*
X327531Y218050D01*
X329197D01*
X330030Y217217D01*
Y216384D01*
X329197Y215551D01*
X328364D01*
X329197D01*
X330030Y214718D01*
Y213885D01*
X329197Y213052D01*
X327531D01*
X326698Y213885D01*
X344791Y190035D02*
X343957Y189202D01*
Y187536D01*
X344791Y186702D01*
X348123D01*
X348956Y187536D01*
Y189202D01*
X348123Y190035D01*
X343957Y191701D02*
Y195033D01*
Y193367D01*
X348956D01*
X343957Y196699D02*
X348956D01*
Y199198D01*
X348123Y200031D01*
X347290D01*
X346457Y199198D01*
Y196699D01*
Y199198D01*
X345624Y200031D01*
X344791D01*
X343957Y199198D01*
Y196699D01*
X348956Y205030D02*
Y201698D01*
X345624Y205030D01*
X344791D01*
X343957Y204197D01*
Y202531D01*
X344791Y201698D01*
Y165277D02*
X343957Y164444D01*
Y162778D01*
X344791Y161945D01*
X348123D01*
X348956Y162778D01*
Y164444D01*
X348123Y165277D01*
X343957Y166943D02*
Y170276D01*
Y168609D01*
X348956D01*
X343957Y171942D02*
X348956D01*
Y174441D01*
X348123Y175274D01*
X347290D01*
X346457Y174441D01*
Y171942D01*
Y174441D01*
X345624Y175274D01*
X344791D01*
X343957Y174441D01*
Y171942D01*
X348956Y176940D02*
Y178606D01*
Y177773D01*
X343957D01*
X344791Y176940D01*
X140899Y190642D02*
X140066Y191476D01*
X138400D01*
X137567Y190642D01*
Y187310D01*
X138400Y186477D01*
X140066D01*
X140899Y187310D01*
X142565D02*
X143398Y186477D01*
X145064D01*
X145898Y187310D01*
Y190642D01*
X145064Y191476D01*
X143398D01*
X142565Y190642D01*
Y189809D01*
X143398Y188976D01*
X145898D01*
X41490Y169973D02*
X40657Y170806D01*
X38991D01*
X38157Y169973D01*
Y166641D01*
X38991Y165808D01*
X40657D01*
X41490Y166641D01*
X43156Y169973D02*
X43989Y170806D01*
X45655D01*
X46488Y169973D01*
Y169140D01*
X45655Y168307D01*
X46488Y167474D01*
Y166641D01*
X45655Y165808D01*
X43989D01*
X43156Y166641D01*
Y167474D01*
X43989Y168307D01*
X43156Y169140D01*
Y169973D01*
X43989Y168307D02*
X45655D01*
X103498Y92217D02*
X102665Y93050D01*
X100998D01*
X100165Y92217D01*
Y88885D01*
X100998Y88052D01*
X102665D01*
X103498Y88885D01*
X105164Y93050D02*
X108496D01*
Y92217D01*
X105164Y88885D01*
Y88052D01*
X23773Y44973D02*
X22940Y45806D01*
X21274D01*
X20441Y44973D01*
Y41641D01*
X21274Y40808D01*
X22940D01*
X23773Y41641D01*
X28772Y45806D02*
X27106Y44973D01*
X25439Y43307D01*
Y41641D01*
X26272Y40808D01*
X27939D01*
X28772Y41641D01*
Y42474D01*
X27939Y43307D01*
X25439D01*
X130072Y24304D02*
X129239Y25137D01*
X127573D01*
X126740Y24304D01*
Y20972D01*
X127573Y20139D01*
X129239D01*
X130072Y20972D01*
X135071Y25137D02*
X131739D01*
Y22638D01*
X133405Y23471D01*
X134238D01*
X135071Y22638D01*
Y20972D01*
X134238Y20139D01*
X132572D01*
X131739Y20972D01*
X5072Y65642D02*
X4239Y66476D01*
X2573D01*
X1740Y65642D01*
Y62310D01*
X2573Y61477D01*
X4239D01*
X5072Y62310D01*
X6739Y65642D02*
X7572Y66476D01*
X9238D01*
X10071Y65642D01*
Y64810D01*
X9238Y63976D01*
X8405D01*
X9238D01*
X10071Y63143D01*
Y62310D01*
X9238Y61477D01*
X7572D01*
X6739Y62310D01*
X33465Y154225D02*
X32631Y155058D01*
X30965D01*
X30132Y154225D01*
Y150893D01*
X30965Y150060D01*
X32631D01*
X33465Y150893D01*
X35131Y150060D02*
X36797D01*
X35964D01*
Y155058D01*
X35131Y154225D01*
X210704Y34783D02*
Y29784D01*
X213203D01*
X214036Y30617D01*
Y31450D01*
X213203Y32283D01*
X210704D01*
X213203D01*
X214036Y33116D01*
Y33950D01*
X213203Y34783D01*
X210704D01*
X215702D02*
Y29784D01*
Y32283D01*
X219035D01*
Y34783D01*
Y29784D01*
X220701D02*
X222367D01*
X221534D01*
Y34783D01*
X220701Y33950D01*
X55874Y16279D02*
Y11280D01*
X58373D01*
X59206Y12113D01*
Y12946D01*
X58373Y13780D01*
X55874D01*
X58373D01*
X59206Y14613D01*
Y15446D01*
X58373Y16279D01*
X55874D01*
X64205D02*
X60872D01*
Y13780D01*
X62539Y14613D01*
X63372D01*
X64205Y13780D01*
Y12113D01*
X63372Y11280D01*
X61705D01*
X60872Y12113D01*
X109024Y60570D02*
Y55572D01*
X111523D01*
X112356Y56405D01*
Y57238D01*
X111523Y58071D01*
X109024D01*
X111523D01*
X112356Y58904D01*
Y59737D01*
X111523Y60570D01*
X109024D01*
X116521Y55572D02*
Y60570D01*
X114022Y58071D01*
X117354D01*
X55874Y41869D02*
Y36871D01*
X58373D01*
X59206Y37704D01*
Y38537D01*
X58373Y39370D01*
X55874D01*
X58373D01*
X59206Y40203D01*
Y41036D01*
X58373Y41869D01*
X55874D01*
X60872Y41036D02*
X61705Y41869D01*
X63372D01*
X64205Y41036D01*
Y40203D01*
X63372Y39370D01*
X62539D01*
X63372D01*
X64205Y38537D01*
Y37704D01*
X63372Y36871D01*
X61705D01*
X60872Y37704D01*
X38157Y59586D02*
Y54587D01*
X40657D01*
X41490Y55421D01*
Y56253D01*
X40657Y57087D01*
X38157D01*
X40657D01*
X41490Y57920D01*
Y58753D01*
X40657Y59586D01*
X38157D01*
X46488Y54587D02*
X43156D01*
X46488Y57920D01*
Y58753D01*
X45655Y59586D01*
X43989D01*
X43156Y58753D01*
X56707Y67460D02*
Y62461D01*
X59206D01*
X60039Y63295D01*
Y64128D01*
X59206Y64961D01*
X56707D01*
X59206D01*
X60039Y65794D01*
Y66627D01*
X59206Y67460D01*
X56707D01*
X61705Y62461D02*
X63372D01*
X62539D01*
Y67460D01*
X61705Y66627D01*
D11*
X124508Y119390D02*
X123770Y119816D01*
Y118964D01*
X124508Y119390D01*
Y135138D02*
X123770Y135564D01*
Y134712D01*
X124508Y135138D01*
Y150886D02*
X123770Y151312D01*
Y150460D01*
X124508Y150886D01*
Y166634D02*
X123770Y167060D01*
Y166208D01*
X124508Y166634D01*
D12*
X174605Y120106D02*
X173817D01*
X174605D01*
X49232Y162972D02*
X48445D01*
X49232D01*
X227874Y196772D02*
Y216772D01*
X27874Y196772D02*
Y216772D01*
X227874D01*
X27874Y196772D02*
X227874D01*
X131693Y106299D02*
Y109350D01*
X127756Y106299D02*
X131693D01*
Y115059D02*
Y118110D01*
X127756D02*
X131693D01*
Y122047D02*
Y125098D01*
X127756Y122047D02*
X131693D01*
Y130807D02*
Y133858D01*
X127756D02*
X131693D01*
Y137795D02*
Y140847D01*
X127756Y137795D02*
X131693D01*
Y146555D02*
Y149606D01*
X127756D02*
X131693D01*
Y153543D02*
Y156595D01*
X127756Y153543D02*
X131693D01*
Y162303D02*
Y165354D01*
X127756D02*
X131693D01*
X118307Y78937D02*
X125787D01*
X118307Y64764D02*
Y78937D01*
X125787Y64764D02*
Y78937D01*
X118307Y64764D02*
X125787D01*
X46063Y140551D02*
Y154724D01*
X38583Y140551D02*
X46063D01*
X38583Y154724D02*
X46063D01*
X38583Y140551D02*
Y154724D01*
X86417Y86417D02*
X100591D01*
Y78937D02*
Y86417D01*
X86417Y78937D02*
Y86417D01*
Y78937D02*
X100591D01*
X23425Y126181D02*
Y133661D01*
Y126181D02*
X37598D01*
X23425Y133661D02*
X37598D01*
Y126181D02*
Y133661D01*
X23425Y117323D02*
Y124803D01*
Y117323D02*
X37598D01*
X23425Y124803D02*
X37598D01*
Y117323D02*
Y124803D01*
X23425Y108465D02*
Y115945D01*
Y108465D02*
X37598D01*
X23425Y115945D02*
X37598D01*
Y108465D02*
Y115945D01*
X23425Y99606D02*
Y107087D01*
Y99606D02*
X37598D01*
X23425Y107087D02*
X37598D01*
Y99606D02*
Y107087D01*
X137992Y171063D02*
Y185236D01*
X145472D01*
X137992Y171063D02*
X145472D01*
Y185236D01*
X113386Y120276D02*
X120866D01*
X113386Y106102D02*
Y120276D01*
X120866Y106102D02*
Y120276D01*
X113386Y106102D02*
X120866D01*
X113386Y136024D02*
X120866D01*
X113386Y121850D02*
Y136024D01*
X120866Y121850D02*
Y136024D01*
X113386Y121850D02*
X120866D01*
X113386Y151772D02*
X120866D01*
X113386Y137598D02*
Y151772D01*
X120866Y137598D02*
Y151772D01*
X113386Y137598D02*
X120866D01*
X112402Y112402D02*
Y119882D01*
X98228D02*
X112402D01*
X98228Y112402D02*
X112402D01*
X98228D02*
Y119882D01*
X112402Y128150D02*
Y135630D01*
X98228D02*
X112402D01*
X98228Y128150D02*
X112402D01*
X98228D02*
Y135630D01*
X112402Y143898D02*
Y151378D01*
X98228D02*
X112402D01*
X98228Y143898D02*
X112402D01*
X98228D02*
Y151378D01*
X112402Y159646D02*
Y167126D01*
X98228D02*
X112402D01*
X98228Y159646D02*
X112402D01*
X98228D02*
Y167126D01*
X113386Y167520D02*
X120866D01*
X113386Y153347D02*
Y167520D01*
X120866Y153347D02*
Y167520D01*
X113386Y153347D02*
X120866D01*
X21654Y154035D02*
Y165549D01*
X17836D02*
X21654D01*
X15748D02*
X17836D01*
X21063Y153445D02*
X21654Y154035D01*
X16240Y153445D02*
X21063D01*
X15748Y153937D02*
Y165549D01*
Y153937D02*
X16240Y153445D01*
X4921Y153937D02*
Y165549D01*
X7010D01*
X4921Y153937D02*
X5413Y153445D01*
X10236D01*
X10827Y154035D01*
Y165549D01*
X7010D02*
X10827D01*
X127165Y72047D02*
X134646D01*
X127165Y57874D02*
Y72047D01*
X134646Y57874D02*
Y72047D01*
X127165Y57874D02*
X134646D01*
X29724Y64764D02*
X37205D01*
Y78937D01*
X29724Y64764D02*
Y78937D01*
X37205D01*
X20866Y72047D02*
X28346D01*
X20866Y57874D02*
Y72047D01*
X28346Y57874D02*
Y72047D01*
X20866Y57874D02*
X28346D01*
X104232Y70374D02*
X104724Y70866D01*
X116336D01*
X104232Y65551D02*
Y70374D01*
Y65551D02*
X104823Y64961D01*
X116336Y68778D02*
Y70866D01*
Y64961D02*
Y68778D01*
X104823Y64961D02*
X116336D01*
X104232Y78248D02*
X104724Y78740D01*
X116336D01*
X104232Y73425D02*
Y78248D01*
Y73425D02*
X104823Y72835D01*
X116336Y76652D02*
Y78740D01*
Y72835D02*
Y76652D01*
X104823Y72835D02*
X116336D01*
X50787Y64961D02*
X51279Y65453D01*
X39176Y64961D02*
X50787D01*
X51279Y65453D02*
Y70276D01*
X50689Y70866D02*
X51279Y70276D01*
X39176Y64961D02*
Y67049D01*
Y70866D01*
X50689D01*
X51083Y72835D02*
X51575Y73327D01*
X39471Y72835D02*
X51083D01*
X51575Y73327D02*
Y78150D01*
X50984Y78740D02*
X51575Y78150D01*
X39471Y72835D02*
Y74923D01*
Y78740D01*
X50984D01*
X39173Y179921D02*
X53347D01*
Y172441D02*
Y179921D01*
X39173Y172441D02*
Y179921D01*
Y172441D02*
X53347D01*
X52362Y2165D02*
Y9646D01*
X38189D02*
X52362D01*
X38189Y2165D02*
X52362D01*
X38189D02*
Y9646D01*
X38583Y24803D02*
X46063D01*
X38583Y10630D02*
Y24803D01*
X46063Y10630D02*
Y24803D01*
X38583Y10630D02*
X46063D01*
X28346Y25394D02*
Y39567D01*
X20866Y25394D02*
X28346D01*
X20866Y39567D02*
X28346D01*
X20866Y25394D02*
Y39567D01*
X109449Y25787D02*
X116929D01*
X109449Y11614D02*
Y25787D01*
X116929Y11614D02*
Y25787D01*
X109449Y11614D02*
X116929D01*
X103150Y3150D02*
Y10630D01*
Y3150D02*
X117323D01*
X103150Y10630D02*
X117323D01*
Y3150D02*
Y10630D01*
X133661Y26378D02*
Y40551D01*
X126181Y26378D02*
X133661D01*
X126181Y40551D02*
X133661D01*
X126181Y26378D02*
Y40551D01*
X2165Y46063D02*
Y60236D01*
X9646D01*
X2165Y46063D02*
X9646D01*
Y60236D01*
X11024D02*
X18504D01*
X11024Y46063D02*
Y60236D01*
X18504Y46063D02*
Y60236D01*
X11024Y46063D02*
X18504D01*
X16929Y37598D02*
Y45079D01*
X2756D02*
X16929D01*
X2756Y37598D02*
X16929D01*
X2756D02*
Y45079D01*
X4134Y175984D02*
X11614D01*
Y190157D01*
X4134Y175984D02*
Y190157D01*
X11614D01*
X14961D02*
X22441D01*
X14961Y175984D02*
Y190157D01*
X22441Y175984D02*
Y190157D01*
X14961Y175984D02*
X22441D01*
D13*
X60339Y78646D02*
X59739D01*
X60339D01*
X191261Y188976D02*
X196261D01*
X192261Y186476D02*
Y191476D01*
Y188976D02*
X195261Y191476D01*
X192261Y188976D02*
X195261Y190976D01*
X192261Y188976D02*
X195261Y190476D01*
X192261Y188976D02*
X195261Y189976D01*
X192261Y188976D02*
X195261Y189476D01*
X192261Y188976D02*
X195261Y186476D01*
X192261Y188976D02*
X195261Y186976D01*
X192261Y188976D02*
X195261Y187476D01*
X192261Y188976D02*
X195261Y187976D01*
X192261Y188976D02*
X195261Y188476D01*
Y186476D02*
Y191476D01*
X197761Y182976D02*
X219561D01*
Y184416D01*
X197761Y194976D02*
X219561D01*
X197761Y193536D02*
Y194976D01*
Y182976D02*
Y184416D01*
X219561Y193536D02*
Y194976D01*
X191261Y176181D02*
X196261D01*
X192261Y173681D02*
Y178681D01*
Y176181D02*
X195261Y178681D01*
X192261Y176181D02*
X195261Y178181D01*
X192261Y176181D02*
X195261Y177681D01*
X192261Y176181D02*
X195261Y177181D01*
X192261Y176181D02*
X195261Y176681D01*
X192261Y176181D02*
X195261Y173681D01*
X192261Y176181D02*
X195261Y174181D01*
X192261Y176181D02*
X195261Y174681D01*
X192261Y176181D02*
X195261Y175181D01*
X192261Y176181D02*
X195261Y175681D01*
Y173681D02*
Y178681D01*
X197761Y170181D02*
X219561D01*
Y171621D01*
X197761Y182181D02*
X219561D01*
X197761Y180741D02*
Y182181D01*
Y170181D02*
Y171621D01*
X219561Y180741D02*
Y182181D01*
X191261Y163386D02*
X196261D01*
X192261Y160886D02*
Y165886D01*
Y163386D02*
X195261Y165886D01*
X192261Y163386D02*
X195261Y165386D01*
X192261Y163386D02*
X195261Y164886D01*
X192261Y163386D02*
X195261Y164386D01*
X192261Y163386D02*
X195261Y163886D01*
X192261Y163386D02*
X195261Y160886D01*
X192261Y163386D02*
X195261Y161386D01*
X192261Y163386D02*
X195261Y161886D01*
X192261Y163386D02*
X195261Y162386D01*
X192261Y163386D02*
X195261Y162886D01*
Y160886D02*
Y165886D01*
X197761Y157386D02*
X219561D01*
Y158826D01*
X197761Y169386D02*
X219561D01*
X197761Y167946D02*
Y169386D01*
Y157386D02*
Y158826D01*
X219561Y167946D02*
Y169386D01*
X191261Y150591D02*
X196261D01*
X192261Y148091D02*
Y153091D01*
Y150591D02*
X195261Y153091D01*
X192261Y150591D02*
X195261Y152591D01*
X192261Y150591D02*
X195261Y152091D01*
X192261Y150591D02*
X195261Y151591D01*
X192261Y150591D02*
X195261Y151091D01*
X192261Y150591D02*
X195261Y148091D01*
X192261Y150591D02*
X195261Y148591D01*
X192261Y150591D02*
X195261Y149091D01*
X192261Y150591D02*
X195261Y149591D01*
X192261Y150591D02*
X195261Y150091D01*
Y148091D02*
Y153091D01*
X197761Y144591D02*
X219561D01*
Y146030D01*
X197761Y156591D02*
X219561D01*
X197761Y155150D02*
Y156591D01*
Y144591D02*
Y146030D01*
X219561Y155150D02*
Y156591D01*
X197761Y93410D02*
Y94849D01*
X219561Y103970D02*
Y105409D01*
Y93410D02*
Y94849D01*
X197761Y93410D02*
X219561D01*
X197761Y103970D02*
Y105409D01*
X219561D01*
X222061Y96909D02*
Y101909D01*
Y99910D02*
X225061Y99410D01*
X222061Y100409D02*
X225061Y99410D01*
X222061Y100909D02*
X225061Y99410D01*
X222061Y101409D02*
X225061Y99410D01*
X222061Y101909D02*
X225061Y99410D01*
X222061Y98909D02*
X225061Y99410D01*
X222061Y98409D02*
X225061Y99410D01*
X222061Y97909D02*
X225061Y99410D01*
X222061Y97409D02*
X225061Y99410D01*
X222061Y96909D02*
X225061Y99410D01*
Y96909D02*
Y101909D01*
X221061Y99410D02*
X226061D01*
X197761Y106205D02*
Y107645D01*
X219561Y116765D02*
Y118205D01*
Y106205D02*
Y107645D01*
X197761Y106205D02*
X219561D01*
X197761Y116765D02*
Y118205D01*
X219561D01*
X222061Y109705D02*
Y114705D01*
Y112705D02*
X225061Y112205D01*
X222061Y113205D02*
X225061Y112205D01*
X222061Y113705D02*
X225061Y112205D01*
X222061Y114205D02*
X225061Y112205D01*
X222061Y114705D02*
X225061Y112205D01*
X222061Y111705D02*
X225061Y112205D01*
X222061Y111205D02*
X225061Y112205D01*
X222061Y110705D02*
X225061Y112205D01*
X222061Y110205D02*
X225061Y112205D01*
X222061Y109705D02*
X225061Y112205D01*
Y109705D02*
Y114705D01*
X221061Y112205D02*
X226061D01*
X197761Y119000D02*
Y120440D01*
X219561Y129560D02*
Y131000D01*
Y119000D02*
Y120440D01*
X197761Y119000D02*
X219561D01*
X197761Y129560D02*
Y131000D01*
X219561D01*
X222061Y122500D02*
Y127500D01*
Y125500D02*
X225061Y125000D01*
X222061Y126000D02*
X225061Y125000D01*
X222061Y126500D02*
X225061Y125000D01*
X222061Y127000D02*
X225061Y125000D01*
X222061Y127500D02*
X225061Y125000D01*
X222061Y124500D02*
X225061Y125000D01*
X222061Y124000D02*
X225061Y125000D01*
X222061Y123500D02*
X225061Y125000D01*
X222061Y123000D02*
X225061Y125000D01*
X222061Y122500D02*
X225061Y125000D01*
Y122500D02*
Y127500D01*
X221061Y125000D02*
X226061D01*
X197761Y131795D02*
Y133235D01*
X219561Y142355D02*
Y143795D01*
Y131795D02*
Y133235D01*
X197761Y131795D02*
X219561D01*
X197761Y142355D02*
Y143795D01*
X219561D01*
X222061Y135295D02*
Y140295D01*
Y138295D02*
X225061Y137795D01*
X222061Y138795D02*
X225061Y137795D01*
X222061Y139295D02*
X225061Y137795D01*
X222061Y139795D02*
X225061Y137795D01*
X222061Y140295D02*
X225061Y137795D01*
X222061Y137295D02*
X225061Y137795D01*
X222061Y136795D02*
X225061Y137795D01*
X222061Y136295D02*
X225061Y137795D01*
X222061Y135795D02*
X225061Y137795D01*
X222061Y135295D02*
X225061Y137795D01*
Y135295D02*
Y140295D01*
X221061Y137795D02*
X226061D01*
X84380Y87098D02*
X85343D01*
X64264D02*
X65226D01*
X64264D02*
Y105815D01*
X84380D02*
X85343D01*
Y87098D02*
Y105815D01*
X64264D02*
X65226D01*
X56989Y84248D02*
Y85044D01*
X63089Y84248D02*
Y85044D01*
X153017Y191452D02*
X169817D01*
X153017Y170752D02*
X169817D01*
D14*
X237441Y65709D02*
X306653D01*
Y36181D02*
Y65709D01*
X277402Y26339D02*
X297126D01*
X237441D02*
X267106D01*
X227913Y36181D02*
Y55866D01*
Y76535D02*
Y96220D01*
X237441Y66693D02*
X267106D01*
X277402D02*
X297126D01*
X306653Y76535D02*
Y106063D01*
X237441D02*
X306653D01*
X227913Y116890D02*
Y136575D01*
X237441Y107047D02*
X267106D01*
X277402D02*
X297126D01*
X306653Y116890D02*
Y146417D01*
X237441D02*
X306653D01*
X227913Y157244D02*
Y176929D01*
X237441Y147402D02*
X267106D01*
X277402D02*
X297126D01*
X306653Y157244D02*
Y186772D01*
X237441D02*
X306653D01*
X152854Y121831D02*
X170768D01*
X152854Y162382D02*
X170768D01*
X57874Y166339D02*
X79921D01*
X57874Y125000D02*
X79921D01*
X57874Y164528D02*
Y166339D01*
X79921Y164528D02*
Y166339D01*
X57874Y125000D02*
Y126811D01*
X79921Y125000D02*
Y126811D01*
D15*
X174217Y167737D02*
X170885Y171069D01*
X174217D02*
X170885Y167737D01*
X174217Y169403D02*
X170885D01*
X172551Y171069D02*
Y167737D01*
M02*
