G04*
G04 #@! TF.GenerationSoftware,Altium Limited,Altium Designer,21.7.1 (17)*
G04*
G04 Layer_Color=255*
%FSLAX25Y25*%
%MOIN*%
G70*
G04*
G04 #@! TF.SameCoordinates,805F3405-D18D-4A14-B230-685FC2141578*
G04*
G04*
G04 #@! TF.FilePolarity,Positive*
G04*
G01*
G75*
%ADD18R,0.05118X0.03937*%
%ADD21R,0.03937X0.05118*%
%ADD59C,0.06693*%
%ADD60C,0.05906*%
%ADD61R,0.05906X0.05906*%
%ADD62C,0.13780*%
%ADD63R,0.05906X0.05906*%
%ADD64R,0.07874X0.07874*%
%ADD65C,0.07874*%
%ADD66R,0.07874X0.07874*%
%ADD67C,0.05118*%
%ADD68C,0.06890*%
%ADD69C,0.24410*%
%ADD71R,0.03740X0.03150*%
D18*
X337598Y169291D02*
D03*
Y177165D02*
D03*
Y196850D02*
D03*
Y204724D02*
D03*
X128937Y52165D02*
D03*
Y44291D02*
D03*
D21*
X298228Y214567D02*
D03*
X290354D02*
D03*
X269685D02*
D03*
X261811D02*
D03*
X58071Y82677D02*
D03*
X50197D02*
D03*
X121063Y53150D02*
D03*
X113189D02*
D03*
Y44291D02*
D03*
X121063D02*
D03*
X58071Y73819D02*
D03*
X50197D02*
D03*
Y64961D02*
D03*
X58071D02*
D03*
D59*
X180118Y101378D02*
D03*
Y22638D02*
D03*
D60*
X92756Y186221D02*
D03*
X102756D02*
D03*
X62756D02*
D03*
X72756D02*
D03*
X82756D02*
D03*
X32874Y211772D02*
D03*
X42874Y201772D02*
D03*
Y211772D02*
D03*
X52874Y201772D02*
D03*
Y211772D02*
D03*
X62874Y201772D02*
D03*
Y211772D02*
D03*
X72874Y201772D02*
D03*
Y211772D02*
D03*
X82874Y201772D02*
D03*
Y211772D02*
D03*
X92874Y201772D02*
D03*
Y211772D02*
D03*
X102874Y201772D02*
D03*
Y211772D02*
D03*
X112874Y201772D02*
D03*
Y211772D02*
D03*
X122874Y201772D02*
D03*
Y211772D02*
D03*
X132874Y201772D02*
D03*
Y211772D02*
D03*
X142874Y201772D02*
D03*
Y211772D02*
D03*
X152874Y201772D02*
D03*
Y211772D02*
D03*
X162874Y201772D02*
D03*
Y211772D02*
D03*
X172874Y201772D02*
D03*
Y211772D02*
D03*
X182874Y201772D02*
D03*
Y211772D02*
D03*
X192874Y201772D02*
D03*
Y211772D02*
D03*
X202874Y201772D02*
D03*
Y211772D02*
D03*
X212874Y201772D02*
D03*
Y211772D02*
D03*
X222874Y201772D02*
D03*
Y211772D02*
D03*
D61*
X52756Y186221D02*
D03*
D62*
X31890Y184252D02*
D03*
X123622D02*
D03*
Y90551D02*
D03*
X31890D02*
D03*
D63*
X32874Y201772D02*
D03*
D64*
X326772Y162402D02*
D03*
Y189961D02*
D03*
X324803Y100394D02*
D03*
Y72835D02*
D03*
Y45276D02*
D03*
Y17717D02*
D03*
D65*
X326772Y176181D02*
D03*
Y203740D02*
D03*
X290354D02*
D03*
X262795D02*
D03*
X324803Y114173D02*
D03*
Y86614D02*
D03*
Y59055D02*
D03*
Y31496D02*
D03*
D66*
X304134Y203740D02*
D03*
X276575D02*
D03*
D67*
X232283Y31024D02*
D03*
Y61024D02*
D03*
Y101378D02*
D03*
Y71378D02*
D03*
Y141732D02*
D03*
Y111732D02*
D03*
Y182087D02*
D03*
Y152087D02*
D03*
D68*
X272284Y31024D02*
D03*
X302284D02*
D03*
Y71378D02*
D03*
X272284D02*
D03*
X302284Y111732D02*
D03*
X272284D02*
D03*
X302284Y152087D02*
D03*
X272284D02*
D03*
D69*
X13780Y206693D02*
D03*
X242126D02*
D03*
Y13780D02*
D03*
X13780D02*
D03*
D71*
X159448Y171653D02*
D03*
X159449Y178740D02*
D03*
X167322Y171653D02*
D03*
X167323Y178740D02*
D03*
M02*
