G04*
G04 #@! TF.GenerationSoftware,Altium Limited,Altium Designer,21.7.1 (17)*
G04*
G04 Layer_Color=8388736*
%FSLAX25Y25*%
%MOIN*%
G70*
G04*
G04 #@! TF.SameCoordinates,805F3405-D18D-4A14-B230-685FC2141578*
G04*
G04*
G04 #@! TF.FilePolarity,Negative*
G04*
G01*
G75*
%ADD27R,0.04300X0.02400*%
%ADD28R,0.06100X0.02200*%
%ADD31R,0.05524X0.03950*%
%ADD32R,0.08359X0.08202*%
%ADD33R,0.05918X0.04737*%
%ADD34R,0.05524X0.03950*%
G04:AMPARAMS|DCode=35|XSize=82.8mil|YSize=24.54mil|CornerRadius=6.07mil|HoleSize=0mil|Usage=FLASHONLY|Rotation=180.000|XOffset=0mil|YOffset=0mil|HoleType=Round|Shape=RoundedRectangle|*
%AMROUNDEDRECTD35*
21,1,0.08280,0.01240,0,0,180.0*
21,1,0.07067,0.02454,0,0,180.0*
1,1,0.01213,-0.03533,0.00620*
1,1,0.01213,0.03533,0.00620*
1,1,0.01213,0.03533,-0.00620*
1,1,0.01213,-0.03533,-0.00620*
%
%ADD35ROUNDEDRECTD35*%
%ADD36R,0.04737X0.05918*%
%ADD37R,0.04343X0.03950*%
G04:AMPARAMS|DCode=38|XSize=39.5mil|YSize=43.43mil|CornerRadius=11.87mil|HoleSize=0mil|Usage=FLASHONLY|Rotation=270.000|XOffset=0mil|YOffset=0mil|HoleType=Round|Shape=RoundedRectangle|*
%AMROUNDEDRECTD38*
21,1,0.03950,0.01968,0,0,270.0*
21,1,0.01575,0.04343,0,0,270.0*
1,1,0.02375,-0.00984,-0.00787*
1,1,0.02375,-0.00984,0.00787*
1,1,0.02375,0.00984,0.00787*
1,1,0.02375,0.00984,-0.00787*
%
%ADD38ROUNDEDRECTD38*%
G04:AMPARAMS|DCode=39|XSize=39.5mil|YSize=43.43mil|CornerRadius=11.87mil|HoleSize=0mil|Usage=FLASHONLY|Rotation=180.000|XOffset=0mil|YOffset=0mil|HoleType=Round|Shape=RoundedRectangle|*
%AMROUNDEDRECTD39*
21,1,0.03950,0.01968,0,0,180.0*
21,1,0.01575,0.04343,0,0,180.0*
1,1,0.02375,-0.00787,0.00984*
1,1,0.02375,0.00787,0.00984*
1,1,0.02375,0.00787,-0.00984*
1,1,0.02375,-0.00787,-0.00984*
%
%ADD39ROUNDEDRECTD39*%
%ADD40R,0.03950X0.04343*%
%ADD41R,0.01959X0.06400*%
%ADD42R,0.09068X0.06312*%
%ADD43R,0.06312X0.09068*%
%ADD44C,0.07493*%
%ADD45C,0.06706*%
%ADD46R,0.06706X0.06706*%
%ADD47C,0.14580*%
%ADD48R,0.06706X0.06706*%
%ADD49R,0.08674X0.08674*%
%ADD50C,0.08674*%
%ADD51R,0.08674X0.08674*%
%ADD52C,0.05918*%
%ADD53C,0.07690*%
%ADD54C,0.25210*%
%ADD55C,0.05800*%
D27*
X60039Y87196D02*
D03*
Y82096D02*
D03*
D28*
X171967Y173602D02*
D03*
Y183602D02*
D03*
Y188602D02*
D03*
X150867D02*
D03*
Y183602D02*
D03*
Y178602D02*
D03*
Y173602D02*
D03*
X171967Y178602D02*
D03*
D31*
X124213Y108465D02*
D03*
Y115945D02*
D03*
X133661Y112205D02*
D03*
X124213Y124213D02*
D03*
Y131693D02*
D03*
X133661Y127953D02*
D03*
X124213Y139961D02*
D03*
Y147441D02*
D03*
X133661Y143701D02*
D03*
X124213Y155709D02*
D03*
Y163189D02*
D03*
X133661Y159449D02*
D03*
D32*
X216661Y188976D02*
D03*
X200661D02*
D03*
X216661Y176181D02*
D03*
X200661D02*
D03*
X216661Y163386D02*
D03*
X200661D02*
D03*
X216661Y150591D02*
D03*
X200661D02*
D03*
X216661Y99410D02*
D03*
X200661D02*
D03*
X216661Y112205D02*
D03*
X200661D02*
D03*
X216661Y125000D02*
D03*
X200661D02*
D03*
X216661Y137795D02*
D03*
X200661D02*
D03*
D33*
X122047Y75787D02*
D03*
Y67913D02*
D03*
X42323Y143701D02*
D03*
Y151575D02*
D03*
X141732Y182087D02*
D03*
Y174213D02*
D03*
X117126Y117126D02*
D03*
Y109252D02*
D03*
Y132874D02*
D03*
Y125000D02*
D03*
Y148622D02*
D03*
Y140748D02*
D03*
Y164370D02*
D03*
Y156496D02*
D03*
X130905Y68898D02*
D03*
Y61024D02*
D03*
X33465Y67913D02*
D03*
Y75787D02*
D03*
X24606Y68898D02*
D03*
Y61024D02*
D03*
X42323Y21654D02*
D03*
Y13780D02*
D03*
X24606Y28543D02*
D03*
Y36417D02*
D03*
X113189Y22638D02*
D03*
Y14764D02*
D03*
X129921Y29528D02*
D03*
Y37402D02*
D03*
X5906Y57087D02*
D03*
Y49213D02*
D03*
X14764Y57087D02*
D03*
Y49213D02*
D03*
X7874Y179134D02*
D03*
Y187008D02*
D03*
X18701D02*
D03*
Y179134D02*
D03*
D34*
X174213Y124606D02*
D03*
Y129606D02*
D03*
Y134606D02*
D03*
Y139606D02*
D03*
Y144606D02*
D03*
Y149606D02*
D03*
Y154606D02*
D03*
Y159606D02*
D03*
X149409D02*
D03*
Y154606D02*
D03*
Y149606D02*
D03*
Y144606D02*
D03*
Y139606D02*
D03*
Y134606D02*
D03*
Y129606D02*
D03*
Y124606D02*
D03*
D35*
X82697Y129035D02*
D03*
Y131595D02*
D03*
Y134153D02*
D03*
Y136713D02*
D03*
Y139272D02*
D03*
Y141831D02*
D03*
Y144390D02*
D03*
Y146949D02*
D03*
Y149508D02*
D03*
Y152067D02*
D03*
Y154626D02*
D03*
Y157185D02*
D03*
Y159744D02*
D03*
Y162303D02*
D03*
X55098Y129035D02*
D03*
Y131595D02*
D03*
Y134153D02*
D03*
Y136713D02*
D03*
Y139272D02*
D03*
Y141831D02*
D03*
Y144390D02*
D03*
Y146949D02*
D03*
Y149508D02*
D03*
Y152067D02*
D03*
Y154626D02*
D03*
Y157185D02*
D03*
Y159744D02*
D03*
Y162303D02*
D03*
D36*
X97441Y82677D02*
D03*
X89567D02*
D03*
X26575Y129921D02*
D03*
X34449D02*
D03*
X26575Y121063D02*
D03*
X34449D02*
D03*
X26575Y112205D02*
D03*
X34449D02*
D03*
X26575Y103347D02*
D03*
X34449D02*
D03*
X109252Y116142D02*
D03*
X101378D02*
D03*
X109252Y131890D02*
D03*
X101378D02*
D03*
X109252Y147638D02*
D03*
X101378D02*
D03*
X109252Y163386D02*
D03*
X101378D02*
D03*
X50197Y176181D02*
D03*
X42323D02*
D03*
X49213Y5906D02*
D03*
X41339D02*
D03*
X106299Y6890D02*
D03*
X114173D02*
D03*
X13780Y41339D02*
D03*
X5906D02*
D03*
D37*
X18701Y156201D02*
D03*
X7874D02*
D03*
D38*
X18701Y162697D02*
D03*
X7874D02*
D03*
D39*
X113484Y67913D02*
D03*
Y75787D02*
D03*
X42028Y67913D02*
D03*
X42323Y75787D02*
D03*
D40*
X106988Y67913D02*
D03*
Y75787D02*
D03*
X48524Y67913D02*
D03*
X48819Y75787D02*
D03*
D41*
X67126Y108110D02*
D03*
X69685D02*
D03*
X72244D02*
D03*
X74803D02*
D03*
X77362D02*
D03*
X79921D02*
D03*
X82480D02*
D03*
X82480Y84803D02*
D03*
X79921D02*
D03*
X77362D02*
D03*
X74803D02*
D03*
X72244D02*
D03*
X69685D02*
D03*
X67126D02*
D03*
D42*
X95669Y4921D02*
D03*
X59842D02*
D03*
Y22638D02*
D03*
X95669D02*
D03*
X59842Y48228D02*
D03*
X95669D02*
D03*
Y30512D02*
D03*
X59842D02*
D03*
X95669Y56102D02*
D03*
X59842D02*
D03*
Y73819D02*
D03*
X95669D02*
D03*
D43*
X33465Y21457D02*
D03*
Y57284D02*
D03*
X51181D02*
D03*
Y21457D02*
D03*
X122047Y58268D02*
D03*
Y22441D02*
D03*
X104331D02*
D03*
Y58268D02*
D03*
D44*
X180118Y101378D02*
D03*
Y22638D02*
D03*
D45*
X92756Y186221D02*
D03*
X102756D02*
D03*
X62756D02*
D03*
X72756D02*
D03*
X82756D02*
D03*
X32874Y211772D02*
D03*
X42874Y201772D02*
D03*
Y211772D02*
D03*
X52874Y201772D02*
D03*
Y211772D02*
D03*
X62874Y201772D02*
D03*
Y211772D02*
D03*
X72874Y201772D02*
D03*
Y211772D02*
D03*
X82874Y201772D02*
D03*
Y211772D02*
D03*
X92874Y201772D02*
D03*
Y211772D02*
D03*
X102874Y201772D02*
D03*
Y211772D02*
D03*
X112874Y201772D02*
D03*
Y211772D02*
D03*
X122874Y201772D02*
D03*
Y211772D02*
D03*
X132874Y201772D02*
D03*
Y211772D02*
D03*
X142874Y201772D02*
D03*
Y211772D02*
D03*
X152874Y201772D02*
D03*
Y211772D02*
D03*
X162874Y201772D02*
D03*
Y211772D02*
D03*
X172874Y201772D02*
D03*
Y211772D02*
D03*
X182874Y201772D02*
D03*
Y211772D02*
D03*
X192874Y201772D02*
D03*
Y211772D02*
D03*
X202874Y201772D02*
D03*
Y211772D02*
D03*
X212874Y201772D02*
D03*
Y211772D02*
D03*
X222874Y201772D02*
D03*
Y211772D02*
D03*
D46*
X52756Y186221D02*
D03*
D47*
X31890Y184252D02*
D03*
X123622D02*
D03*
Y90551D02*
D03*
X31890D02*
D03*
D48*
X32874Y201772D02*
D03*
D49*
X326772Y162402D02*
D03*
Y189961D02*
D03*
X324803Y100394D02*
D03*
Y72835D02*
D03*
Y45276D02*
D03*
Y17717D02*
D03*
D50*
X326772Y176181D02*
D03*
Y203740D02*
D03*
X290354D02*
D03*
X262795D02*
D03*
X324803Y114173D02*
D03*
Y86614D02*
D03*
Y59055D02*
D03*
Y31496D02*
D03*
D51*
X304134Y203740D02*
D03*
X276575D02*
D03*
D52*
X232283Y31024D02*
D03*
Y61024D02*
D03*
Y101378D02*
D03*
Y71378D02*
D03*
Y141732D02*
D03*
Y111732D02*
D03*
Y182087D02*
D03*
Y152087D02*
D03*
D53*
X272284Y31024D02*
D03*
X302284D02*
D03*
Y71378D02*
D03*
X272284D02*
D03*
X302284Y111732D02*
D03*
X272284D02*
D03*
X302284Y152087D02*
D03*
X272284D02*
D03*
D54*
X13780Y206693D02*
D03*
X242126D02*
D03*
Y13780D02*
D03*
X13780D02*
D03*
D55*
X77756Y9279D02*
D03*
X133858D02*
D03*
X208661Y187992D02*
D03*
X158086Y154478D02*
D03*
X164035Y155252D02*
D03*
X141732Y86614D02*
D03*
X123031Y101378D02*
D03*
X92827Y123957D02*
D03*
X70187Y121369D02*
D03*
X83850Y115850D02*
D03*
X78803Y119095D02*
D03*
X65945Y117126D02*
D03*
X111221Y86614D02*
D03*
X105315Y42323D02*
D03*
X240158Y182087D02*
D03*
X232283Y174213D02*
D03*
X208661Y150591D02*
D03*
Y163386D02*
D03*
Y176181D02*
D03*
X179134Y184055D02*
D03*
X139764Y97441D02*
D03*
X157480Y104331D02*
D03*
X166339D02*
D03*
X162402Y119095D02*
D03*
X155512Y120079D02*
D03*
X132874Y172244D02*
D03*
X24606Y54134D02*
D03*
X43044Y81956D02*
D03*
X151575Y54134D02*
D03*
X56102Y96457D02*
D03*
X67913Y73819D02*
D03*
X89909Y158371D02*
D03*
X47244Y159449D02*
D03*
X163386Y190850D02*
D03*
X157480Y188976D02*
D03*
X95472Y93504D02*
D03*
Y106299D02*
D03*
X74740Y138779D02*
D03*
X53517Y167691D02*
D03*
X69882Y157480D02*
D03*
X141732Y153449D02*
D03*
Y159449D02*
D03*
X90361Y131924D02*
D03*
X90551Y149726D02*
D03*
X90547Y143726D02*
D03*
X91538Y137808D02*
D03*
X141732Y147449D02*
D03*
X143701Y129921D02*
D03*
X69882Y95472D02*
D03*
X79724Y100394D02*
D03*
X111221Y178150D02*
D03*
X70866Y38386D02*
D03*
X61024Y110236D02*
D03*
X77756Y76772D02*
D03*
X63976Y151575D02*
D03*
X113189Y97441D02*
D03*
X134843Y180118D02*
D03*
X208661Y99410D02*
D03*
Y112205D02*
D03*
Y125000D02*
D03*
Y137795D02*
D03*
M02*
