M48
;Layer_Color=9474304
;FILE_FORMAT=2:4
INCH,TZ
;TYPE=PLATED
T1F00S00C0.0280
T2F00S00C0.0315
T3F00S00C0.0354
T4F00S00C0.0433
T5F00S00C0.0472
T6F00S00C0.0492
T7F00S00C0.0551
T8F00S00C0.0787
;TYPE=NON_PLATED
T9F00S00C0.1083
%
T01
X20866Y9941
Y11220
Y12500
Y13780
Y15059
Y16339
X16404Y15525
X15809Y15448
X14173Y15345
Y15945
Y14745
X14370Y12992
X15551Y12008
X16240Y11909
X16634Y10433
X15748
X13976Y9744
X14173Y8661
X11122
X11319Y9744
X12303Y10138
X9547Y10630
Y9350
X7972Y10039
X6988Y9547
X5610Y9646
X6102Y11024
X6594Y11713
X7019Y12137
X7880Y11909
X8385Y11585
X9283Y12396
X9036Y13192
X9154Y13781
X9055Y14373
X9055Y14973
X8991Y15837
X6988Y15748
X6398Y15157
X7474Y13878
X4724Y15945
X4304Y8196
X6791Y7382
X7776Y7677
X7087Y3839
X7776Y928
X13386
X10532Y4232
X15157Y5413
X2461
X5352Y16769
X11122Y17815
X13484Y18012
X13287Y17224
X15748Y18898
X16339Y19085
X17913Y18406
X20866Y18799
Y17618
X23228Y17421
X24016Y18209
T02
X23228Y3102
Y6102
Y7138
Y10138
Y11173
Y14173
Y15209
Y18209
T03
X3287Y20177
Y21177
X4287
Y20177
X5287
Y21177
X6287
Y20177
X7287
Y21177
X8287
Y20177
X9287
Y21177
X10287
Y20177
X11287
Y21177
X12287
Y20177
X13287
Y21177
X14287
Y20177
X15287
Y21177
X16287
Y20177
X17287
Y21177
X18287
Y20177
X19287
Y21177
X20287
Y20177
X21287
Y21177
X22287
Y20177
T04
X5276Y18622
X6276
X7276
X8276
X9276
X10276
T05
X18012Y2264
Y10138
T06
X27228Y3102
X30228
Y7138
X27228
Y11173
X30228
Y15209
X27228
T07
X32480Y1772
Y3150
Y4528
Y5906
Y7283
Y8661
Y10039
Y11417
X32677Y16240
Y17618
Y18996
Y20374
X30413
X29035
X27657
X26280
T08
X3189Y9055
X12362
Y18425
X3189
T09
X24213Y1378
X1378
Y20669
X24213
M30
