G04*
G04 #@! TF.GenerationSoftware,Altium Limited,Altium Designer,21.7.1 (17)*
G04*
G04 Layer_Color=16711935*
%FSLAX25Y25*%
%MOIN*%
G70*
G04*
G04 #@! TF.SameCoordinates,805F3405-D18D-4A14-B230-685FC2141578*
G04*
G04*
G04 #@! TF.FilePolarity,Positive*
G04*
G01*
G75*
%ADD12C,0.00787*%
%ADD14C,0.00500*%
%ADD15C,0.00300*%
%ADD73C,0.00000*%
%ADD74C,0.00394*%
%ADD75C,0.00100*%
D12*
X49232Y162972D02*
X48445D01*
X49232D01*
D14*
X227913Y65709D02*
X306653D01*
Y26339D02*
Y65709D01*
X227913Y26339D02*
X306653D01*
X227913D02*
Y65709D01*
Y66693D02*
Y106063D01*
Y66693D02*
X306653D01*
Y106063D01*
X227913D02*
X306653D01*
X227913Y107047D02*
Y146417D01*
Y107047D02*
X306653D01*
Y146417D01*
X227913D02*
X306653D01*
X227913Y147402D02*
Y186772D01*
Y147402D02*
X306653D01*
Y186772D01*
X227913D02*
X306653D01*
X152854Y121831D02*
X170768D01*
X152854Y162382D02*
X170768D01*
Y121831D02*
Y162382D01*
X152854Y121831D02*
Y162382D01*
X57874Y166339D02*
X79921D01*
X57874Y125000D02*
X79921D01*
X57874D02*
Y166339D01*
X79921Y125000D02*
Y166339D01*
D15*
X169067Y172387D02*
X165735Y175719D01*
X169067D02*
X165735Y172387D01*
X169067Y174053D02*
X165735D01*
X167401Y175719D02*
Y172387D01*
D73*
X64764Y95257D02*
X65612Y95608D01*
X65964Y96457D01*
X65612Y97305D01*
X64764Y97657D01*
X60339Y84646D02*
X59739D01*
X60339D01*
X162617Y171252D02*
X162266Y172101D01*
X161417Y172452D01*
X160569Y172101D01*
X160217Y171252D01*
D74*
X126181Y106299D02*
X131693D01*
X126181Y118110D02*
X131693D01*
Y106299D02*
Y118110D01*
X126181Y106299D02*
Y118110D01*
Y122047D02*
X131693D01*
X126181Y133858D02*
X131693D01*
Y122047D02*
Y133858D01*
X126181Y122047D02*
Y133858D01*
Y137795D02*
X131693D01*
X126181Y149606D02*
X131693D01*
Y137795D02*
Y149606D01*
X126181Y137795D02*
Y149606D01*
Y153543D02*
X131693D01*
X126181Y165354D02*
X131693D01*
Y153543D02*
Y165354D01*
X126181Y153543D02*
Y165354D01*
D75*
X191261Y188976D02*
X196261D01*
X192261Y186476D02*
Y191476D01*
Y188976D02*
X195261Y191476D01*
X192261Y188976D02*
X195261Y190976D01*
X192261Y188976D02*
X195261Y190476D01*
X192261Y188976D02*
X195261Y189976D01*
X192261Y188976D02*
X195261Y189476D01*
X192261Y188976D02*
X195261Y186476D01*
X192261Y188976D02*
X195261Y186976D01*
X192261Y188976D02*
X195261Y187476D01*
X192261Y188976D02*
X195261Y187976D01*
X192261Y188976D02*
X195261Y188476D01*
Y186476D02*
Y191476D01*
X198261Y183476D02*
X219061D01*
Y194476D01*
X198261D02*
X219061D01*
X198261Y183476D02*
Y194476D01*
X191261Y176181D02*
X196261D01*
X192261Y173681D02*
Y178681D01*
Y176181D02*
X195261Y178681D01*
X192261Y176181D02*
X195261Y178181D01*
X192261Y176181D02*
X195261Y177681D01*
X192261Y176181D02*
X195261Y177181D01*
X192261Y176181D02*
X195261Y176681D01*
X192261Y176181D02*
X195261Y173681D01*
X192261Y176181D02*
X195261Y174181D01*
X192261Y176181D02*
X195261Y174681D01*
X192261Y176181D02*
X195261Y175181D01*
X192261Y176181D02*
X195261Y175681D01*
Y173681D02*
Y178681D01*
X198261Y170681D02*
X219061D01*
Y181681D01*
X198261D02*
X219061D01*
X198261Y170681D02*
Y181681D01*
X191261Y163386D02*
X196261D01*
X192261Y160886D02*
Y165886D01*
Y163386D02*
X195261Y165886D01*
X192261Y163386D02*
X195261Y165386D01*
X192261Y163386D02*
X195261Y164886D01*
X192261Y163386D02*
X195261Y164386D01*
X192261Y163386D02*
X195261Y163886D01*
X192261Y163386D02*
X195261Y160886D01*
X192261Y163386D02*
X195261Y161386D01*
X192261Y163386D02*
X195261Y161886D01*
X192261Y163386D02*
X195261Y162386D01*
X192261Y163386D02*
X195261Y162886D01*
Y160886D02*
Y165886D01*
X198261Y157886D02*
X219061D01*
Y168886D01*
X198261D02*
X219061D01*
X198261Y157886D02*
Y168886D01*
X191261Y150591D02*
X196261D01*
X192261Y148091D02*
Y153091D01*
Y150591D02*
X195261Y153091D01*
X192261Y150591D02*
X195261Y152591D01*
X192261Y150591D02*
X195261Y152091D01*
X192261Y150591D02*
X195261Y151591D01*
X192261Y150591D02*
X195261Y151091D01*
X192261Y150591D02*
X195261Y148091D01*
X192261Y150591D02*
X195261Y148591D01*
X192261Y150591D02*
X195261Y149091D01*
X192261Y150591D02*
X195261Y149591D01*
X192261Y150591D02*
X195261Y150091D01*
Y148091D02*
Y153091D01*
X198261Y145091D02*
X219061D01*
Y156091D01*
X198261D02*
X219061D01*
X198261Y145091D02*
Y156091D01*
X219061Y93910D02*
Y104909D01*
X198261Y93910D02*
X219061D01*
X198261D02*
Y104909D01*
X219061D01*
X222061Y96909D02*
Y101909D01*
Y99910D02*
X225061Y99410D01*
X222061Y100409D02*
X225061Y99410D01*
X222061Y100909D02*
X225061Y99410D01*
X222061Y101409D02*
X225061Y99410D01*
X222061Y101909D02*
X225061Y99410D01*
X222061Y98909D02*
X225061Y99410D01*
X222061Y98409D02*
X225061Y99410D01*
X222061Y97909D02*
X225061Y99410D01*
X222061Y97409D02*
X225061Y99410D01*
X222061Y96909D02*
X225061Y99410D01*
Y96909D02*
Y101909D01*
X221061Y99410D02*
X226061D01*
X219061Y106705D02*
Y117705D01*
X198261Y106705D02*
X219061D01*
X198261D02*
Y117705D01*
X219061D01*
X222061Y109705D02*
Y114705D01*
Y112705D02*
X225061Y112205D01*
X222061Y113205D02*
X225061Y112205D01*
X222061Y113705D02*
X225061Y112205D01*
X222061Y114205D02*
X225061Y112205D01*
X222061Y114705D02*
X225061Y112205D01*
X222061Y111705D02*
X225061Y112205D01*
X222061Y111205D02*
X225061Y112205D01*
X222061Y110705D02*
X225061Y112205D01*
X222061Y110205D02*
X225061Y112205D01*
X222061Y109705D02*
X225061Y112205D01*
Y109705D02*
Y114705D01*
X221061Y112205D02*
X226061D01*
X219061Y119500D02*
Y130500D01*
X198261Y119500D02*
X219061D01*
X198261D02*
Y130500D01*
X219061D01*
X222061Y122500D02*
Y127500D01*
Y125500D02*
X225061Y125000D01*
X222061Y126000D02*
X225061Y125000D01*
X222061Y126500D02*
X225061Y125000D01*
X222061Y127000D02*
X225061Y125000D01*
X222061Y127500D02*
X225061Y125000D01*
X222061Y124500D02*
X225061Y125000D01*
X222061Y124000D02*
X225061Y125000D01*
X222061Y123500D02*
X225061Y125000D01*
X222061Y123000D02*
X225061Y125000D01*
X222061Y122500D02*
X225061Y125000D01*
Y122500D02*
Y127500D01*
X221061Y125000D02*
X226061D01*
X219061Y132295D02*
Y143295D01*
X198261Y132295D02*
X219061D01*
X198261D02*
Y143295D01*
X219061D01*
X222061Y135295D02*
Y140295D01*
Y138295D02*
X225061Y137795D01*
X222061Y138795D02*
X225061Y137795D01*
X222061Y139295D02*
X225061Y137795D01*
X222061Y139795D02*
X225061Y137795D01*
X222061Y140295D02*
X225061Y137795D01*
X222061Y137295D02*
X225061Y137795D01*
X222061Y136795D02*
X225061Y137795D01*
X222061Y136295D02*
X225061Y137795D01*
X222061Y135795D02*
X225061Y137795D01*
X222061Y135295D02*
X225061Y137795D01*
Y135295D02*
Y140295D01*
X221061Y137795D02*
X226061D01*
X64764Y87598D02*
X84842D01*
X64764D02*
Y105315D01*
X84842D01*
Y87598D02*
Y105315D01*
X57489Y80496D02*
X62589D01*
X57489D02*
Y88796D01*
X62589D01*
Y80496D02*
Y88796D01*
X169317Y172602D02*
Y174602D01*
Y172602D02*
X173617D01*
Y174602D01*
X169317D02*
X173617D01*
X169317Y177602D02*
Y179602D01*
Y177602D02*
X173617D01*
Y179602D01*
X169317D02*
X173617D01*
X169317Y182602D02*
Y184602D01*
Y182602D02*
X173617D01*
Y184602D01*
X169317D02*
X173617D01*
X169317Y187602D02*
Y189602D01*
Y187602D02*
X173617D01*
Y189602D01*
X169317D02*
X173617D01*
X153517Y187602D02*
Y189602D01*
X149217D02*
X153517D01*
X149217Y187602D02*
Y189602D01*
Y187602D02*
X153517D01*
Y182602D02*
Y184602D01*
X149217D02*
X153517D01*
X149217Y182602D02*
Y184602D01*
Y182602D02*
X153517D01*
Y177602D02*
Y179602D01*
X149217D02*
X153517D01*
X149217Y177602D02*
Y179602D01*
Y177602D02*
X153517D01*
Y172602D02*
Y174602D01*
X149217D02*
X153517D01*
X149217Y172602D02*
Y174602D01*
Y172602D02*
X153517D01*
Y190952D02*
X169317D01*
X153517Y171252D02*
Y190952D01*
Y171252D02*
X169317D01*
Y190952D01*
M02*
