G04*
G04 #@! TF.GenerationSoftware,Altium Limited,Altium Designer,21.7.1 (17)*
G04*
G04 Layer_Color=8421504*
%FSLAX25Y25*%
%MOIN*%
G70*
G04*
G04 #@! TF.SameCoordinates,805F3405-D18D-4A14-B230-685FC2141578*
G04*
G04*
G04 #@! TF.FilePolarity,Positive*
G04*
G01*
G75*
%ADD16R,0.04724X0.03150*%
%ADD17R,0.07559X0.07402*%
%ADD18R,0.05118X0.03937*%
%ADD19R,0.04724X0.03150*%
G04:AMPARAMS|DCode=20|XSize=74.8mil|YSize=16.54mil|CornerRadius=2.07mil|HoleSize=0mil|Usage=FLASHONLY|Rotation=180.000|XOffset=0mil|YOffset=0mil|HoleType=Round|Shape=RoundedRectangle|*
%AMROUNDEDRECTD20*
21,1,0.07480,0.01240,0,0,180.0*
21,1,0.07067,0.01654,0,0,180.0*
1,1,0.00413,-0.03533,0.00620*
1,1,0.00413,0.03533,0.00620*
1,1,0.00413,0.03533,-0.00620*
1,1,0.00413,-0.03533,-0.00620*
%
%ADD20ROUNDEDRECTD20*%
%ADD21R,0.03937X0.05118*%
%ADD22R,0.03543X0.03150*%
G04:AMPARAMS|DCode=23|XSize=31.5mil|YSize=35.43mil|CornerRadius=7.87mil|HoleSize=0mil|Usage=FLASHONLY|Rotation=270.000|XOffset=0mil|YOffset=0mil|HoleType=Round|Shape=RoundedRectangle|*
%AMROUNDEDRECTD23*
21,1,0.03150,0.01968,0,0,270.0*
21,1,0.01575,0.03543,0,0,270.0*
1,1,0.01575,-0.00984,-0.00787*
1,1,0.01575,-0.00984,0.00787*
1,1,0.01575,0.00984,0.00787*
1,1,0.01575,0.00984,-0.00787*
%
%ADD23ROUNDEDRECTD23*%
G04:AMPARAMS|DCode=24|XSize=31.5mil|YSize=35.43mil|CornerRadius=7.87mil|HoleSize=0mil|Usage=FLASHONLY|Rotation=180.000|XOffset=0mil|YOffset=0mil|HoleType=Round|Shape=RoundedRectangle|*
%AMROUNDEDRECTD24*
21,1,0.03150,0.01968,0,0,180.0*
21,1,0.01575,0.03543,0,0,180.0*
1,1,0.01575,-0.00787,0.00984*
1,1,0.01575,0.00787,0.00984*
1,1,0.01575,0.00787,-0.00984*
1,1,0.01575,-0.00787,-0.00984*
%
%ADD24ROUNDEDRECTD24*%
%ADD25R,0.03150X0.03543*%
%ADD26R,0.01559X0.06000*%
%ADD27R,0.04300X0.02400*%
%ADD28R,0.06100X0.02200*%
%ADD29R,0.08268X0.05512*%
%ADD30R,0.05512X0.08268*%
D16*
X124213Y108465D02*
D03*
Y115945D02*
D03*
X133661Y112205D02*
D03*
X124213Y124213D02*
D03*
Y131693D02*
D03*
X133661Y127953D02*
D03*
X124213Y139961D02*
D03*
Y147441D02*
D03*
X133661Y143701D02*
D03*
X124213Y155709D02*
D03*
Y163189D02*
D03*
X133661Y159449D02*
D03*
D17*
X216661Y188976D02*
D03*
X200661D02*
D03*
X216661Y176181D02*
D03*
X200661D02*
D03*
X216661Y163386D02*
D03*
X200661D02*
D03*
X216661Y150591D02*
D03*
X200661D02*
D03*
X216661Y99410D02*
D03*
X200661D02*
D03*
X216661Y112205D02*
D03*
X200661D02*
D03*
X216661Y125000D02*
D03*
X200661D02*
D03*
X216661Y137795D02*
D03*
X200661D02*
D03*
D18*
X122047Y75787D02*
D03*
Y67913D02*
D03*
X42323Y143701D02*
D03*
Y151575D02*
D03*
X141732Y182087D02*
D03*
Y174213D02*
D03*
X117126Y117126D02*
D03*
Y109252D02*
D03*
Y132874D02*
D03*
Y125000D02*
D03*
Y148622D02*
D03*
Y140748D02*
D03*
Y164370D02*
D03*
Y156496D02*
D03*
X130905Y68898D02*
D03*
Y61024D02*
D03*
X33465Y67913D02*
D03*
Y75787D02*
D03*
X24606Y68898D02*
D03*
Y61024D02*
D03*
X42323Y21654D02*
D03*
Y13780D02*
D03*
X24606Y28543D02*
D03*
Y36417D02*
D03*
X113189Y22638D02*
D03*
Y14764D02*
D03*
X129921Y29528D02*
D03*
Y37402D02*
D03*
X5906Y57087D02*
D03*
Y49213D02*
D03*
X14764Y57087D02*
D03*
Y49213D02*
D03*
X7874Y179134D02*
D03*
Y187008D02*
D03*
X18701D02*
D03*
Y179134D02*
D03*
D19*
X174213Y124606D02*
D03*
Y129606D02*
D03*
Y134606D02*
D03*
Y139606D02*
D03*
Y144606D02*
D03*
Y149606D02*
D03*
Y154606D02*
D03*
Y159606D02*
D03*
X149409D02*
D03*
Y154606D02*
D03*
Y149606D02*
D03*
Y144606D02*
D03*
Y139606D02*
D03*
Y134606D02*
D03*
Y129606D02*
D03*
Y124606D02*
D03*
D20*
X82697Y129035D02*
D03*
Y131595D02*
D03*
Y134153D02*
D03*
Y136713D02*
D03*
Y139272D02*
D03*
Y141831D02*
D03*
Y144390D02*
D03*
Y146949D02*
D03*
Y149508D02*
D03*
Y152067D02*
D03*
Y154626D02*
D03*
Y157185D02*
D03*
Y159744D02*
D03*
Y162303D02*
D03*
X55098Y129035D02*
D03*
Y131595D02*
D03*
Y134153D02*
D03*
Y136713D02*
D03*
Y139272D02*
D03*
Y141831D02*
D03*
Y144390D02*
D03*
Y146949D02*
D03*
Y149508D02*
D03*
Y152067D02*
D03*
Y154626D02*
D03*
Y157185D02*
D03*
Y159744D02*
D03*
Y162303D02*
D03*
D21*
X97441Y82677D02*
D03*
X89567D02*
D03*
X26575Y129921D02*
D03*
X34449D02*
D03*
X26575Y121063D02*
D03*
X34449D02*
D03*
X26575Y112205D02*
D03*
X34449D02*
D03*
X26575Y103347D02*
D03*
X34449D02*
D03*
X109252Y116142D02*
D03*
X101378D02*
D03*
X109252Y131890D02*
D03*
X101378D02*
D03*
X109252Y147638D02*
D03*
X101378D02*
D03*
X109252Y163386D02*
D03*
X101378D02*
D03*
X50197Y176181D02*
D03*
X42323D02*
D03*
X49213Y5906D02*
D03*
X41339D02*
D03*
X106299Y6890D02*
D03*
X114173D02*
D03*
X13780Y41339D02*
D03*
X5906D02*
D03*
D22*
X18701Y156201D02*
D03*
X7874D02*
D03*
D23*
X18701Y162697D02*
D03*
X7874D02*
D03*
D24*
X113484Y67913D02*
D03*
Y75787D02*
D03*
X42028Y67913D02*
D03*
X42323Y75787D02*
D03*
D25*
X106988Y67913D02*
D03*
Y75787D02*
D03*
X48524Y67913D02*
D03*
X48819Y75787D02*
D03*
D26*
X67126Y108110D02*
D03*
X69685D02*
D03*
X72244D02*
D03*
X74803D02*
D03*
X77362D02*
D03*
X79921D02*
D03*
X82480D02*
D03*
X82480Y84803D02*
D03*
X79921D02*
D03*
X77362D02*
D03*
X74803D02*
D03*
X72244D02*
D03*
X69685D02*
D03*
X67126D02*
D03*
D27*
X60039Y87196D02*
D03*
Y82096D02*
D03*
D28*
X171967Y173602D02*
D03*
Y183602D02*
D03*
Y188602D02*
D03*
X150867D02*
D03*
Y183602D02*
D03*
Y178602D02*
D03*
Y173602D02*
D03*
X171967Y178602D02*
D03*
D29*
X95669Y4921D02*
D03*
X59842D02*
D03*
Y22638D02*
D03*
X95669D02*
D03*
X59842Y48228D02*
D03*
X95669D02*
D03*
Y30512D02*
D03*
X59842D02*
D03*
X95669Y56102D02*
D03*
X59842D02*
D03*
Y73819D02*
D03*
X95669D02*
D03*
D30*
X33465Y21457D02*
D03*
Y57284D02*
D03*
X51181D02*
D03*
Y21457D02*
D03*
X122047Y58268D02*
D03*
Y22441D02*
D03*
X104331D02*
D03*
Y58268D02*
D03*
M02*
