G04*
G04 #@! TF.GenerationSoftware,Altium Limited,Altium Designer,21.7.1 (17)*
G04*
G04 Layer_Physical_Order=1*
G04 Layer_Color=255*
%FSLAX25Y25*%
%MOIN*%
G70*
G04*
G04 #@! TF.SameCoordinates,805F3405-D18D-4A14-B230-685FC2141578*
G04*
G04*
G04 #@! TF.FilePolarity,Positive*
G04*
G01*
G75*
%ADD10C,0.01000*%
%ADD16R,0.04724X0.03150*%
%ADD17R,0.07559X0.07402*%
%ADD18R,0.05118X0.03937*%
%ADD19R,0.04724X0.03150*%
G04:AMPARAMS|DCode=20|XSize=74.8mil|YSize=16.54mil|CornerRadius=2.07mil|HoleSize=0mil|Usage=FLASHONLY|Rotation=180.000|XOffset=0mil|YOffset=0mil|HoleType=Round|Shape=RoundedRectangle|*
%AMROUNDEDRECTD20*
21,1,0.07480,0.01240,0,0,180.0*
21,1,0.07067,0.01654,0,0,180.0*
1,1,0.00413,-0.03533,0.00620*
1,1,0.00413,0.03533,0.00620*
1,1,0.00413,0.03533,-0.00620*
1,1,0.00413,-0.03533,-0.00620*
%
%ADD20ROUNDEDRECTD20*%
%ADD21R,0.03937X0.05118*%
%ADD22R,0.03543X0.03150*%
G04:AMPARAMS|DCode=23|XSize=31.5mil|YSize=35.43mil|CornerRadius=7.87mil|HoleSize=0mil|Usage=FLASHONLY|Rotation=270.000|XOffset=0mil|YOffset=0mil|HoleType=Round|Shape=RoundedRectangle|*
%AMROUNDEDRECTD23*
21,1,0.03150,0.01968,0,0,270.0*
21,1,0.01575,0.03543,0,0,270.0*
1,1,0.01575,-0.00984,-0.00787*
1,1,0.01575,-0.00984,0.00787*
1,1,0.01575,0.00984,0.00787*
1,1,0.01575,0.00984,-0.00787*
%
%ADD23ROUNDEDRECTD23*%
G04:AMPARAMS|DCode=24|XSize=31.5mil|YSize=35.43mil|CornerRadius=7.87mil|HoleSize=0mil|Usage=FLASHONLY|Rotation=180.000|XOffset=0mil|YOffset=0mil|HoleType=Round|Shape=RoundedRectangle|*
%AMROUNDEDRECTD24*
21,1,0.03150,0.01968,0,0,180.0*
21,1,0.01575,0.03543,0,0,180.0*
1,1,0.01575,-0.00787,0.00984*
1,1,0.01575,0.00787,0.00984*
1,1,0.01575,0.00787,-0.00984*
1,1,0.01575,-0.00787,-0.00984*
%
%ADD24ROUNDEDRECTD24*%
%ADD25R,0.03150X0.03543*%
%ADD26R,0.01559X0.06000*%
%ADD27R,0.04300X0.02400*%
%ADD28R,0.06100X0.02200*%
%ADD29R,0.08268X0.05512*%
%ADD30R,0.05512X0.08268*%
%ADD56C,0.01500*%
%ADD57C,0.06000*%
%ADD58C,0.02000*%
%ADD59C,0.06693*%
%ADD60C,0.05906*%
%ADD61R,0.05906X0.05906*%
%ADD62C,0.13780*%
%ADD63R,0.05906X0.05906*%
%ADD64R,0.07874X0.07874*%
%ADD65C,0.07874*%
%ADD66R,0.07874X0.07874*%
%ADD67C,0.05118*%
%ADD68C,0.06890*%
%ADD69C,0.24410*%
%ADD70C,0.05000*%
G36*
X237255Y218994D02*
X237057Y218930D01*
X235205Y217987D01*
X233524Y216765D01*
X232054Y215295D01*
X230832Y213614D01*
X229889Y211762D01*
X229246Y209785D01*
X228921Y207732D01*
Y205654D01*
X229246Y203601D01*
X229889Y201624D01*
X230832Y199772D01*
X232054Y198091D01*
X233524Y196621D01*
X235205Y195399D01*
X237057Y194456D01*
X237803Y194213D01*
X237723Y193713D01*
X220570D01*
X220560Y193711D01*
X219612D01*
X219612Y193711D01*
X219440Y193677D01*
X214358D01*
X212446Y195589D01*
X211867Y195976D01*
X211185Y196111D01*
X196730D01*
X196538Y196573D01*
X198698Y198732D01*
X199029Y199229D01*
X199073Y199450D01*
X199600Y199537D01*
X199711Y199345D01*
X200447Y198609D01*
X201348Y198088D01*
X202354Y197819D01*
X203394D01*
X204400Y198088D01*
X205301Y198609D01*
X206037Y199345D01*
X206557Y200246D01*
X206827Y201251D01*
Y202292D01*
X206557Y203297D01*
X206037Y204199D01*
X206003Y204233D01*
X206194Y204695D01*
X207788D01*
X209190Y203293D01*
X208921Y202292D01*
Y201251D01*
X209191Y200246D01*
X209711Y199345D01*
X210447Y198609D01*
X211348Y198088D01*
X212354Y197819D01*
X213394D01*
X214400Y198088D01*
X215301Y198609D01*
X216037Y199345D01*
X216557Y200246D01*
X216827Y201251D01*
Y202292D01*
X216557Y203297D01*
X216037Y204199D01*
X215301Y204935D01*
X214400Y205455D01*
X213394Y205724D01*
X212354D01*
X211352Y205456D01*
X209503Y207306D01*
X209007Y207637D01*
X208421Y207754D01*
X204820D01*
X204686Y208254D01*
X205301Y208609D01*
X206037Y209345D01*
X206557Y210246D01*
X206827Y211251D01*
Y212292D01*
X206557Y213297D01*
X206037Y214199D01*
X205301Y214935D01*
X204400Y215455D01*
X203394Y215724D01*
X202354D01*
X201348Y215455D01*
X200447Y214935D01*
X199711Y214199D01*
X199191Y213297D01*
X198921Y212292D01*
Y211251D01*
X199191Y210246D01*
X199711Y209345D01*
X200447Y208609D01*
X201062Y208254D01*
X201042Y207940D01*
X200954Y207739D01*
X200444Y207637D01*
X199948Y207306D01*
X196697Y204055D01*
X196109Y204073D01*
X196037Y204199D01*
X195301Y204935D01*
X194400Y205455D01*
X193394Y205724D01*
X192354D01*
X191348Y205455D01*
X190447Y204935D01*
X190022Y204509D01*
X189522Y204716D01*
Y206653D01*
X189405Y207239D01*
X189074Y207735D01*
X186558Y210250D01*
X186827Y211251D01*
Y212292D01*
X186557Y213297D01*
X186037Y214199D01*
X185301Y214935D01*
X184400Y215455D01*
X183394Y215724D01*
X182354D01*
X181348Y215455D01*
X180447Y214935D01*
X179711Y214199D01*
X179191Y213297D01*
X178921Y212292D01*
Y211251D01*
X179191Y210246D01*
X179711Y209345D01*
X180447Y208609D01*
X181348Y208088D01*
X182354Y207819D01*
X183394D01*
X184396Y208087D01*
X186463Y206020D01*
Y204378D01*
X185963Y204273D01*
X185301Y204935D01*
X184400Y205455D01*
X183394Y205724D01*
X182354D01*
X181348Y205455D01*
X180447Y204935D01*
X179711Y204199D01*
X179191Y203297D01*
X178921Y202292D01*
Y201251D01*
X179191Y200246D01*
X179711Y199345D01*
X180176Y198880D01*
X179969Y198380D01*
X175779D01*
X175572Y198880D01*
X176037Y199345D01*
X176557Y200246D01*
X176827Y201251D01*
Y202292D01*
X176557Y203297D01*
X176037Y204199D01*
X175301Y204935D01*
X174400Y205455D01*
X173394Y205724D01*
X172354D01*
X171348Y205455D01*
X170447Y204935D01*
X169711Y204199D01*
X169191Y203297D01*
X168921Y202292D01*
Y201251D01*
X169191Y200246D01*
X169711Y199345D01*
X170176Y198880D01*
X169969Y198380D01*
X165779D01*
X165572Y198880D01*
X166037Y199345D01*
X166557Y200246D01*
X166827Y201251D01*
Y202292D01*
X166557Y203297D01*
X166037Y204199D01*
X165301Y204935D01*
X164400Y205455D01*
X163394Y205724D01*
X162354D01*
X161348Y205455D01*
X160447Y204935D01*
X159711Y204199D01*
X159191Y203297D01*
X158921Y202292D01*
Y201251D01*
X159191Y200246D01*
X159711Y199345D01*
X160176Y198880D01*
X159969Y198380D01*
X155779D01*
X155572Y198880D01*
X156037Y199345D01*
X156557Y200246D01*
X156827Y201251D01*
Y201272D01*
X148921D01*
Y201251D01*
X149191Y200246D01*
X149711Y199345D01*
X150176Y198880D01*
X149969Y198380D01*
X145779D01*
X145572Y198880D01*
X146037Y199345D01*
X146557Y200246D01*
X146827Y201251D01*
Y202292D01*
X146557Y203297D01*
X146037Y204199D01*
X145301Y204935D01*
X144400Y205455D01*
X143394Y205724D01*
X142354D01*
X141352Y205456D01*
X139503Y207306D01*
X139006Y207637D01*
X138421Y207754D01*
X134820D01*
X134686Y208254D01*
X135301Y208609D01*
X136037Y209345D01*
X136557Y210246D01*
X136827Y211251D01*
Y212292D01*
X136557Y213297D01*
X136037Y214199D01*
X135301Y214935D01*
X134400Y215455D01*
X133394Y215724D01*
X132354D01*
X131348Y215455D01*
X130447Y214935D01*
X129711Y214199D01*
X129191Y213297D01*
X128921Y212292D01*
Y211251D01*
X129191Y210246D01*
X129711Y209345D01*
X130447Y208609D01*
X131062Y208254D01*
X130928Y207754D01*
X124820D01*
X124686Y208254D01*
X125301Y208609D01*
X126037Y209345D01*
X126557Y210246D01*
X126827Y211251D01*
Y211272D01*
X118921D01*
Y211251D01*
X119191Y210246D01*
X119711Y209345D01*
X120447Y208609D01*
X121062Y208254D01*
X120928Y207754D01*
X114820D01*
X114686Y208254D01*
X115301Y208609D01*
X116037Y209345D01*
X116557Y210246D01*
X116827Y211251D01*
Y212292D01*
X116557Y213297D01*
X116037Y214199D01*
X115301Y214935D01*
X114400Y215455D01*
X113394Y215724D01*
X112354D01*
X111348Y215455D01*
X110447Y214935D01*
X109711Y214199D01*
X109191Y213297D01*
X108921Y212292D01*
Y211251D01*
X109191Y210246D01*
X109711Y209345D01*
X110447Y208609D01*
X111062Y208254D01*
X110928Y207754D01*
X104820D01*
X104686Y208254D01*
X105301Y208609D01*
X106037Y209345D01*
X106557Y210246D01*
X106827Y211251D01*
Y212292D01*
X106557Y213297D01*
X106037Y214199D01*
X105301Y214935D01*
X104400Y215455D01*
X103394Y215724D01*
X102354D01*
X101348Y215455D01*
X100447Y214935D01*
X99711Y214199D01*
X99191Y213297D01*
X98921Y212292D01*
Y211251D01*
X99191Y210246D01*
X99711Y209345D01*
X100447Y208609D01*
X101062Y208254D01*
X100928Y207754D01*
X94820D01*
X94686Y208254D01*
X95301Y208609D01*
X96037Y209345D01*
X96557Y210246D01*
X96827Y211251D01*
Y211272D01*
X88921D01*
Y211251D01*
X89191Y210246D01*
X89711Y209345D01*
X90447Y208609D01*
X91062Y208254D01*
X91041Y207940D01*
X90954Y207739D01*
X90444Y207637D01*
X89948Y207306D01*
X86622Y203979D01*
X86126Y204045D01*
X86037Y204199D01*
X85301Y204935D01*
X84400Y205455D01*
X83394Y205724D01*
X82354D01*
X81348Y205455D01*
X80447Y204935D01*
X79711Y204199D01*
X79191Y203297D01*
X78921Y202292D01*
Y201251D01*
X79191Y200246D01*
X79711Y199345D01*
X80447Y198609D01*
X81348Y198088D01*
X82354Y197819D01*
X82402D01*
X82594Y197357D01*
X74826Y189590D01*
X74282Y189904D01*
X73276Y190173D01*
X72236D01*
X71230Y189904D01*
X70329Y189383D01*
X69943Y188997D01*
X69443Y189204D01*
Y198906D01*
X69943Y199113D01*
X70447Y198609D01*
X71348Y198088D01*
X72354Y197819D01*
X72374D01*
Y201772D01*
Y205724D01*
X72354D01*
X71348Y205455D01*
X70447Y204935D01*
X69943Y204430D01*
X69443Y204638D01*
Y206177D01*
X71352Y208087D01*
X72354Y207819D01*
X73394D01*
X74400Y208088D01*
X75301Y208609D01*
X76037Y209345D01*
X76557Y210246D01*
X76827Y211251D01*
Y212292D01*
X76557Y213297D01*
X76037Y214199D01*
X75301Y214935D01*
X74400Y215455D01*
X73394Y215724D01*
X72354D01*
X71348Y215455D01*
X70447Y214935D01*
X69711Y214199D01*
X69191Y213297D01*
X68921Y212292D01*
Y211251D01*
X69190Y210250D01*
X66832Y207892D01*
X66500Y207396D01*
X66384Y206811D01*
Y204559D01*
X65884Y204352D01*
X65301Y204935D01*
X64400Y205455D01*
X63394Y205724D01*
X62354D01*
X61348Y205455D01*
X60447Y204935D01*
X59711Y204199D01*
X59191Y203297D01*
X58921Y202292D01*
Y201251D01*
X59191Y200246D01*
X59711Y199345D01*
X60447Y198609D01*
X61348Y198088D01*
X62354Y197819D01*
X63394D01*
X64400Y198088D01*
X65301Y198609D01*
X65884Y199192D01*
X66384Y198985D01*
Y188772D01*
X66146Y188708D01*
X65884Y188682D01*
X65183Y189383D01*
X64282Y189904D01*
X63276Y190173D01*
X62236D01*
X61519Y189981D01*
X57706Y193794D01*
X57127Y194180D01*
X56445Y194316D01*
X38662D01*
X35621Y197357D01*
X35813Y197819D01*
X36827D01*
Y205724D01*
X29697D01*
X29490Y206224D01*
X31352Y208087D01*
X32354Y207819D01*
X33394D01*
X34400Y208088D01*
X35301Y208609D01*
X36037Y209345D01*
X36261Y209733D01*
X39487D01*
X39711Y209345D01*
X40447Y208609D01*
X41348Y208088D01*
X42354Y207819D01*
X43394D01*
X44400Y208088D01*
X45301Y208609D01*
X46037Y209345D01*
X46557Y210246D01*
X46827Y211251D01*
Y212292D01*
X46557Y213297D01*
X46037Y214199D01*
X45301Y214935D01*
X44400Y215455D01*
X43394Y215724D01*
X42354D01*
X41348Y215455D01*
X40447Y214935D01*
X39711Y214199D01*
X39487Y213811D01*
X36261D01*
X36037Y214199D01*
X35301Y214935D01*
X34400Y215455D01*
X33394Y215724D01*
X32354D01*
X31348Y215455D01*
X30447Y214935D01*
X29711Y214199D01*
X29191Y213297D01*
X28921Y212292D01*
Y211251D01*
X29190Y210250D01*
X27331Y208391D01*
X26855Y208546D01*
X26659Y209785D01*
X26017Y211762D01*
X25073Y213614D01*
X23852Y215295D01*
X22382Y216765D01*
X20700Y217987D01*
X18848Y218930D01*
X18651Y218994D01*
X18729Y219488D01*
X237176Y219488D01*
X237255Y218994D01*
D02*
G37*
G36*
X116887Y192891D02*
X111746Y187750D01*
X106437D01*
X105919Y188647D01*
X105183Y189383D01*
X104282Y189904D01*
X103276Y190173D01*
X102236D01*
X101230Y189904D01*
X100329Y189383D01*
X99593Y188647D01*
X99073Y187746D01*
X98803Y186741D01*
Y185700D01*
X99073Y184695D01*
X99593Y183793D01*
X100329Y183057D01*
X101230Y182537D01*
X102236Y182268D01*
X103276D01*
X104282Y182537D01*
X105183Y183057D01*
X105919Y183793D01*
X106437Y184691D01*
X112380D01*
X112965Y184808D01*
X113461Y185139D01*
X115932Y187610D01*
X116356Y187327D01*
X116035Y186553D01*
X115732Y185029D01*
Y183475D01*
X116035Y181951D01*
X116630Y180515D01*
X117494Y179223D01*
X118593Y178124D01*
X119885Y177260D01*
X121321Y176665D01*
X122845Y176362D01*
X124399D01*
X125923Y176665D01*
X127359Y177260D01*
X128651Y178124D01*
X129750Y179223D01*
X130614Y180515D01*
X131209Y181951D01*
X131512Y183475D01*
Y185029D01*
X131209Y186553D01*
X130614Y187989D01*
X129750Y189281D01*
X128651Y190380D01*
X127945Y190852D01*
X128096Y191352D01*
X129890D01*
X130475Y191469D01*
X130971Y191800D01*
X132492Y193321D01*
X160245D01*
X160482Y192821D01*
X160124Y192201D01*
X160063Y191971D01*
X159511Y191845D01*
X158831Y192238D01*
X157941Y192476D01*
X157019D01*
X156129Y192238D01*
X155331Y191777D01*
X154680Y191125D01*
X154435Y190702D01*
X146817D01*
Y186502D01*
X154917D01*
X154917Y186502D01*
Y186502D01*
X155286Y186221D01*
X155331Y186176D01*
X156129Y185715D01*
X156440Y185632D01*
X156374Y185132D01*
X154917D01*
Y185702D01*
X146817D01*
Y181502D01*
X154917D01*
Y182073D01*
X159980D01*
X160566Y182189D01*
X161062Y182521D01*
X164310Y185769D01*
X164641Y186265D01*
X164758Y186850D01*
Y187601D01*
X165356Y187947D01*
X165856Y187710D01*
Y185926D01*
X160063Y180132D01*
X154917D01*
Y180702D01*
X146817D01*
Y176502D01*
X154917D01*
Y177073D01*
X160696D01*
X161281Y177189D01*
X161777Y177521D01*
X167455Y183199D01*
X167917Y183008D01*
Y181502D01*
X171467D01*
Y183602D01*
X172467D01*
Y181502D01*
X176017D01*
Y181515D01*
X176517Y181722D01*
X176985Y181254D01*
X177604Y180897D01*
Y175131D01*
X176517Y174044D01*
X176112Y174162D01*
X176017Y174231D01*
Y175702D01*
X172467D01*
Y173602D01*
Y171502D01*
X173322D01*
X173514Y171040D01*
X172310Y169836D01*
X137606D01*
X136223Y171219D01*
X136374Y171783D01*
Y172705D01*
X136135Y173595D01*
X135675Y174393D01*
X135023Y175045D01*
X134225Y175506D01*
X133335Y175744D01*
X132413D01*
X131523Y175506D01*
X130725Y175045D01*
X130073Y174393D01*
X129613Y173595D01*
X129374Y172705D01*
Y171783D01*
X129613Y170893D01*
X130073Y170095D01*
X130725Y169443D01*
X131523Y168983D01*
X132413Y168744D01*
X133335D01*
X134153Y168963D01*
X135891Y167226D01*
X136387Y166894D01*
X136972Y166778D01*
X172943D01*
X173529Y166894D01*
X174025Y167226D01*
X178577Y171778D01*
X178577Y171778D01*
X180215Y173416D01*
X180547Y173912D01*
X180663Y174498D01*
Y180897D01*
X181283Y181254D01*
X181935Y181906D01*
X182395Y182704D01*
X182634Y183594D01*
Y184516D01*
X182395Y185406D01*
X181935Y186204D01*
X181283Y186856D01*
X180485Y187317D01*
X179595Y187555D01*
X178673D01*
X177783Y187317D01*
X176985Y186856D01*
X176437Y186308D01*
X176017Y186595D01*
Y188102D01*
X171967D01*
Y188602D01*
X171467D01*
Y190702D01*
X171080D01*
X170816Y191202D01*
X170897Y191321D01*
X189129D01*
X189320Y190859D01*
X185746Y187285D01*
X185359Y186706D01*
X185224Y186024D01*
Y176920D01*
X172951Y164647D01*
X172564Y164069D01*
X172428Y163386D01*
Y162181D01*
X170850D01*
Y157032D01*
Y152032D01*
Y147031D01*
Y142032D01*
Y137031D01*
Y132032D01*
Y127032D01*
Y124876D01*
X170377Y124668D01*
X170091Y124898D01*
Y158570D01*
X170091Y158570D01*
X169956Y159253D01*
X169569Y159832D01*
X164440Y164961D01*
X163861Y165347D01*
X163178Y165483D01*
X138994D01*
X138994Y165483D01*
X138311Y165347D01*
X137732Y164961D01*
X137732Y164961D01*
X134795Y162024D01*
X131429D01*
Y167345D01*
X131312Y167930D01*
X130981Y168426D01*
X126082Y173326D01*
X125585Y173657D01*
X125000Y173774D01*
X117760D01*
X114535Y176998D01*
X114720Y177689D01*
Y178610D01*
X114482Y179501D01*
X114021Y180299D01*
X113370Y180950D01*
X112571Y181411D01*
X111681Y181650D01*
X110760D01*
X109870Y181411D01*
X109071Y180950D01*
X108420Y180299D01*
X107959Y179501D01*
X107720Y178610D01*
Y177689D01*
X107959Y176799D01*
X108420Y176001D01*
X109071Y175349D01*
X109870Y174888D01*
X110760Y174650D01*
X111681D01*
X112372Y174835D01*
X116045Y171163D01*
X116541Y170831D01*
X117126Y170715D01*
X124366D01*
X128370Y166711D01*
Y110050D01*
X128392Y109939D01*
Y108268D01*
X128508Y107682D01*
X128840Y107186D01*
X136770Y99256D01*
X136502Y98792D01*
X136264Y97902D01*
Y96980D01*
X136502Y96090D01*
X136963Y95292D01*
X137615Y94640D01*
X138413Y94179D01*
X139303Y93941D01*
X140225D01*
X141115Y94179D01*
X141913Y94640D01*
X142564Y95292D01*
X143025Y96090D01*
X143264Y96980D01*
Y97902D01*
X143025Y98792D01*
X142564Y99590D01*
X141913Y100242D01*
X141115Y100702D01*
X140225Y100941D01*
X139411D01*
X131451Y108901D01*
Y109630D01*
X137024D01*
Y109746D01*
X137524Y109953D01*
X139034Y108443D01*
X139612Y108056D01*
X140295Y107920D01*
X140295Y107921D01*
X155698D01*
X155832Y107421D01*
X155331Y107131D01*
X154680Y106480D01*
X154219Y105682D01*
X153980Y104791D01*
Y103870D01*
X154219Y102980D01*
X154680Y102182D01*
X155331Y101530D01*
X155951Y101172D01*
Y91185D01*
X142083Y77317D01*
X125606D01*
Y78756D01*
X118488D01*
Y73380D01*
X117858D01*
X116094Y75144D01*
Y76772D01*
X115955Y77469D01*
X115560Y78060D01*
X114969Y78455D01*
X114272Y78594D01*
X112697D01*
X111999Y78455D01*
X111408Y78060D01*
X111013Y77469D01*
X110874Y76772D01*
Y74803D01*
X111013Y74106D01*
X111408Y73514D01*
X111999Y73119D01*
X112697Y72981D01*
X113931D01*
X116143Y70769D01*
X116639Y70437D01*
X117224Y70321D01*
X118488D01*
Y69443D01*
X115986D01*
X115955Y69595D01*
X115560Y70186D01*
X114969Y70581D01*
X114272Y70720D01*
X112697D01*
X111999Y70581D01*
X111408Y70186D01*
X111013Y69595D01*
X110874Y68898D01*
Y66929D01*
X111013Y66232D01*
X111408Y65640D01*
X111999Y65245D01*
X112697Y65107D01*
X114272D01*
X114969Y65245D01*
X115560Y65640D01*
X115955Y66232D01*
X115986Y66384D01*
X118488D01*
Y64945D01*
X125606D01*
Y70321D01*
X126729D01*
X127347Y69703D01*
Y65929D01*
X134465D01*
Y71866D01*
X129509D01*
X128444Y72932D01*
X127947Y73263D01*
X127362Y73380D01*
X125606D01*
Y74258D01*
X142717D01*
X142877Y74290D01*
X143123Y73829D01*
X133286Y63992D01*
X127347D01*
Y58055D01*
X134465D01*
Y60845D01*
X167420Y93800D01*
X167752Y94297D01*
X167868Y94882D01*
Y101172D01*
X168488Y101530D01*
X169139Y102182D01*
X169600Y102980D01*
X169839Y103870D01*
Y104791D01*
X169600Y105682D01*
X169139Y106480D01*
X168488Y107131D01*
X167987Y107421D01*
X168121Y107921D01*
X189548D01*
X195882Y101587D01*
Y94709D01*
X205441D01*
Y97000D01*
X205610Y97105D01*
X205941Y97180D01*
X206512Y96609D01*
X207311Y96148D01*
X208201Y95910D01*
X209122D01*
X210012Y96148D01*
X210810Y96609D01*
X211382Y97180D01*
X211882Y97067D01*
Y94709D01*
X221441D01*
Y99339D01*
X229351D01*
X229435Y99193D01*
X230098Y98530D01*
X230910Y98061D01*
X231815Y97819D01*
X232752D01*
X233657Y98061D01*
X234469Y98530D01*
X235131Y99193D01*
X235600Y100004D01*
X235842Y100909D01*
Y101847D01*
X235600Y102752D01*
X235131Y103563D01*
X234469Y104226D01*
X233657Y104694D01*
X232752Y104937D01*
X231815D01*
X230910Y104694D01*
X230098Y104226D01*
X229435Y103563D01*
X229351Y103417D01*
X221441D01*
Y104110D01*
X218701D01*
Y107504D01*
X221441D01*
Y116905D01*
X218701D01*
Y120299D01*
X221441D01*
Y129701D01*
X218701D01*
Y133095D01*
X221441D01*
Y142496D01*
X211882D01*
Y140138D01*
X211382Y140025D01*
X210810Y140596D01*
X210012Y141057D01*
X209122Y141295D01*
X208201D01*
X207311Y141057D01*
X206512Y140596D01*
X205941Y140025D01*
X205610Y140100D01*
X205441Y140205D01*
Y142496D01*
X198725D01*
X198534Y142958D01*
X199832Y144257D01*
X199832Y144257D01*
X200219Y144836D01*
X200355Y145518D01*
X200663Y145890D01*
X205441D01*
Y148181D01*
X205610Y148286D01*
X205941Y148361D01*
X206512Y147790D01*
X207311Y147329D01*
X208201Y147091D01*
X209122D01*
X210012Y147329D01*
X210810Y147790D01*
X211382Y148361D01*
X211882Y148248D01*
Y145890D01*
X221441D01*
Y152847D01*
X241664Y173070D01*
X242126Y172879D01*
X242126Y26984D01*
X241087D01*
X239034Y26659D01*
X237057Y26017D01*
X235205Y25073D01*
X233524Y23852D01*
X232054Y22382D01*
X230832Y20700D01*
X229889Y18848D01*
X229246Y16872D01*
X228921Y14819D01*
Y12740D01*
X229246Y10687D01*
X229889Y8711D01*
X230832Y6859D01*
X232054Y5177D01*
X233524Y3708D01*
X235205Y2486D01*
X237057Y1542D01*
X237255Y1478D01*
X237176Y984D01*
X101228Y984D01*
X100803Y1165D01*
X100803Y1484D01*
Y8677D01*
X90535D01*
Y1484D01*
X90110Y984D01*
X65401Y984D01*
X64976Y1165D01*
X64976Y1484D01*
Y3392D01*
X73398D01*
X73983Y3508D01*
X74479Y3840D01*
X76604Y5965D01*
X77295Y5779D01*
X78217D01*
X79107Y6018D01*
X79905Y6479D01*
X80557Y7130D01*
X81017Y7929D01*
X81256Y8819D01*
Y9740D01*
X81017Y10631D01*
X80557Y11429D01*
X79905Y12080D01*
X79540Y12291D01*
Y46699D01*
X90535D01*
Y44472D01*
X100803D01*
Y51846D01*
X100803Y51984D01*
Y52346D01*
X100803Y52484D01*
Y53134D01*
X108087D01*
Y63402D01*
X100575D01*
Y59858D01*
X90535D01*
Y52484D01*
X90535Y52346D01*
Y51984D01*
X90535Y51846D01*
Y49758D01*
X79540D01*
Y56102D01*
X79540Y56102D01*
Y73760D01*
X79905Y73971D01*
X80557Y74623D01*
X80767Y74987D01*
X83661D01*
X84344Y75123D01*
X84923Y75510D01*
X88531Y79118D01*
X92535D01*
Y86236D01*
X86598D01*
Y82198D01*
X86496Y82130D01*
X86496Y82130D01*
X82922Y78556D01*
X80767D01*
X80557Y78921D01*
X79905Y79572D01*
X79107Y80033D01*
X78217Y80272D01*
X77295D01*
X76405Y80033D01*
X75607Y79572D01*
X74955Y78921D01*
X74494Y78123D01*
X74256Y77232D01*
Y76311D01*
X74494Y75421D01*
X74955Y74623D01*
X75607Y73971D01*
X75972Y73760D01*
Y57632D01*
X64976D01*
Y59858D01*
X60834D01*
X60735Y60358D01*
X60403Y60854D01*
X57259Y63999D01*
X56762Y64330D01*
X56177Y64447D01*
X47804D01*
X47219Y64330D01*
X46722Y63999D01*
X41537Y58813D01*
X37220D01*
Y62417D01*
X29709D01*
Y52150D01*
X37220D01*
Y55754D01*
X42170D01*
X42755Y55870D01*
X43251Y56202D01*
X46963Y59914D01*
X47425Y59723D01*
Y52150D01*
X49280D01*
X49487Y51650D01*
X48579Y50742D01*
X26731D01*
X26597Y51242D01*
X26755Y51333D01*
X27407Y51985D01*
X27868Y52783D01*
X28106Y53673D01*
Y54595D01*
X27868Y55485D01*
X27407Y56283D01*
X26755Y56935D01*
X26136Y57292D01*
Y58055D01*
X28165D01*
Y63992D01*
X21047D01*
Y58055D01*
X23077D01*
Y57292D01*
X22457Y56935D01*
X21806Y56283D01*
X21345Y55485D01*
X21106Y54595D01*
Y53673D01*
X21345Y52783D01*
X21806Y51985D01*
X22457Y51333D01*
X22615Y51242D01*
X22481Y50742D01*
X18323D01*
Y52181D01*
X11205D01*
Y46244D01*
X12250D01*
Y44898D01*
X10811D01*
Y37780D01*
X16748D01*
Y44898D01*
X15309D01*
Y46244D01*
X18323D01*
Y47683D01*
X49213D01*
X49798Y47800D01*
X50294Y48131D01*
X52263Y50100D01*
X52594Y50596D01*
X52710Y51181D01*
Y52150D01*
X54277D01*
X54709Y51984D01*
X54709Y51650D01*
Y44472D01*
X64976D01*
Y51846D01*
X64976Y51984D01*
Y52346D01*
X64976Y52484D01*
Y54573D01*
X75972D01*
Y48228D01*
Y12291D01*
X75607Y12080D01*
X74955Y11429D01*
X74494Y10631D01*
X74256Y9740D01*
Y8819D01*
X74441Y8128D01*
X72764Y6451D01*
X64976D01*
Y8677D01*
X54709D01*
Y1484D01*
X54284Y984D01*
X18729D01*
X18651Y1478D01*
X18848Y1542D01*
X20700Y2486D01*
X22382Y3708D01*
X23852Y5177D01*
X25073Y6859D01*
X26017Y8711D01*
X26659Y10687D01*
X26984Y12740D01*
Y14819D01*
X26659Y16872D01*
X26017Y18848D01*
X25073Y20700D01*
X23852Y22382D01*
X22382Y23852D01*
X20700Y25073D01*
X18848Y26017D01*
X16872Y26659D01*
X14819Y26984D01*
X12740D01*
X10687Y26659D01*
X8711Y26017D01*
X6859Y25073D01*
X5177Y23852D01*
X3708Y22382D01*
X2486Y20700D01*
X1542Y18848D01*
X1478Y18651D01*
X984Y18729D01*
X984Y69882D01*
X984D01*
Y69882D01*
X1177Y70588D01*
X1912Y71855D01*
X2948Y72891D01*
X4215Y73626D01*
X4921Y73819D01*
X16869Y73819D01*
X17060Y73357D01*
X13682Y69979D01*
X13351Y69483D01*
X13234Y68898D01*
Y60055D01*
X11205D01*
Y58616D01*
X9465D01*
Y60055D01*
X2347D01*
Y54118D01*
X9465D01*
Y55557D01*
X11205D01*
Y54118D01*
X18323D01*
Y60055D01*
X16293D01*
Y68264D01*
X28192Y80164D01*
X35561D01*
X35739Y79873D01*
X35778Y79673D01*
X34861Y78756D01*
X29906D01*
Y73380D01*
X28150D01*
X27564Y73263D01*
X27068Y72932D01*
X26002Y71866D01*
X21047D01*
Y65929D01*
X28165D01*
Y69703D01*
X28783Y70321D01*
X29906D01*
Y64945D01*
X37024D01*
Y66384D01*
X39526D01*
X39557Y66232D01*
X39952Y65640D01*
X40543Y65245D01*
X41240Y65107D01*
X42815D01*
X43512Y65245D01*
X44104Y65640D01*
X44499Y66232D01*
X44637Y66929D01*
Y68898D01*
X44499Y69595D01*
X44104Y70186D01*
X43512Y70581D01*
X42815Y70720D01*
X41240D01*
X40543Y70581D01*
X39952Y70186D01*
X39557Y69595D01*
X39526Y69443D01*
X37024D01*
Y70321D01*
X38386D01*
X38971Y70437D01*
X39467Y70769D01*
X41679Y72981D01*
X43110D01*
X43808Y73119D01*
X44399Y73514D01*
X44794Y74106D01*
X44933Y74803D01*
Y76772D01*
X44794Y77469D01*
X44399Y78060D01*
X44273Y78144D01*
X44363Y78686D01*
X44395Y78694D01*
X45193Y79155D01*
X45845Y79807D01*
X46306Y80605D01*
X46544Y81495D01*
Y82417D01*
X46306Y83307D01*
X45845Y84105D01*
X45193Y84756D01*
X44395Y85217D01*
X43505Y85456D01*
X42583D01*
X42216Y85357D01*
X41957Y85806D01*
X52135Y95983D01*
X52656Y95797D01*
X52841Y95106D01*
X53302Y94308D01*
X53953Y93656D01*
X54751Y93195D01*
X55642Y92957D01*
X56563D01*
X57453Y93195D01*
X58251Y93656D01*
X58903Y94308D01*
X58977Y94435D01*
X66536D01*
X66620Y94121D01*
X67081Y93323D01*
X67733Y92672D01*
X68531Y92211D01*
X69421Y91972D01*
X70343D01*
X71233Y92211D01*
X72031Y92672D01*
X72683Y93323D01*
X73143Y94121D01*
X73382Y95012D01*
Y95933D01*
X73143Y96823D01*
X72683Y97622D01*
X72031Y98273D01*
X71764Y98427D01*
X71898Y98927D01*
X76530D01*
X76924Y98245D01*
X77575Y97593D01*
X78373Y97132D01*
X79264Y96894D01*
X79314D01*
X79505Y96432D01*
X74001Y90928D01*
X73670Y90432D01*
X73553Y89846D01*
Y88803D01*
X65346D01*
Y86332D01*
X64015D01*
X63189Y87159D01*
Y89396D01*
X56889D01*
Y84996D01*
X60849D01*
X61003Y84796D01*
X60756Y84296D01*
X56889D01*
Y79896D01*
X62626D01*
X63879Y78643D01*
X64375Y78311D01*
X64961Y78195D01*
X68865D01*
X69451Y78311D01*
X69947Y78643D01*
X70767Y79463D01*
X71098Y79959D01*
X71214Y80544D01*
Y80803D01*
X76862D01*
Y84803D01*
Y88803D01*
X76830D01*
X76702Y89303D01*
X87311Y99911D01*
X110048D01*
X110285Y99411D01*
X110030Y98970D01*
X102864D01*
X102547Y99033D01*
X90614D01*
X90029Y98917D01*
X89533Y98585D01*
X81399Y90452D01*
X81067Y89955D01*
X80951Y89370D01*
Y88803D01*
X77862D01*
Y84803D01*
Y80803D01*
X84260D01*
Y88803D01*
X84260Y88803D01*
X84260D01*
X84482Y89209D01*
X91248Y95974D01*
X92332D01*
X92569Y95474D01*
X92211Y94855D01*
X91983Y94004D01*
X98962D01*
X98734Y94855D01*
X98376Y95474D01*
X98613Y95974D01*
X102293D01*
X102610Y95912D01*
X110030D01*
X110388Y95292D01*
X111040Y94640D01*
X111838Y94179D01*
X112728Y93941D01*
X113650D01*
X114540Y94179D01*
X115338Y94640D01*
X115990Y95292D01*
X116451Y96090D01*
X116689Y96980D01*
Y97902D01*
X116451Y98792D01*
X116129Y99349D01*
X116411Y99849D01*
X119873D01*
X120231Y99229D01*
X120882Y98577D01*
X120963Y98531D01*
X120926Y97974D01*
X119885Y97543D01*
X118593Y96680D01*
X117494Y95581D01*
X116630Y94288D01*
X116035Y92852D01*
X115732Y91328D01*
Y89774D01*
X116035Y88250D01*
X116630Y86814D01*
X117494Y85522D01*
X118593Y84423D01*
X119885Y83559D01*
X121321Y82965D01*
X122845Y82661D01*
X124399D01*
X125923Y82965D01*
X127359Y83559D01*
X128651Y84423D01*
X129750Y85522D01*
X130614Y86814D01*
X131209Y88250D01*
X131512Y89774D01*
Y91328D01*
X131209Y92852D01*
X130614Y94288D01*
X129750Y95581D01*
X128651Y96680D01*
X127359Y97543D01*
X125923Y98138D01*
X125520Y98218D01*
X125362Y98759D01*
X125832Y99229D01*
X126293Y100027D01*
X126532Y100917D01*
Y100967D01*
X126993Y101159D01*
X131345Y96807D01*
Y95472D01*
X131461Y94887D01*
X131793Y94391D01*
X138417Y87766D01*
X138232Y87075D01*
Y86153D01*
X138471Y85263D01*
X138932Y84465D01*
X139583Y83814D01*
X140381Y83353D01*
X141271Y83114D01*
X142193D01*
X143083Y83353D01*
X143881Y83814D01*
X144533Y84465D01*
X144994Y85263D01*
X145232Y86153D01*
Y87075D01*
X144994Y87965D01*
X144533Y88763D01*
X143881Y89415D01*
X143083Y89876D01*
X142193Y90114D01*
X141271D01*
X140580Y89929D01*
X134403Y96106D01*
Y97441D01*
X134287Y98026D01*
X133956Y98522D01*
X127050Y105428D01*
X127241Y105890D01*
X127575D01*
Y107965D01*
X124213D01*
Y108465D01*
X123713D01*
Y111039D01*
X120850D01*
X120685Y111471D01*
Y112221D01*
X117626D01*
Y109252D01*
X117126D01*
Y108752D01*
X113567D01*
Y106907D01*
X112377D01*
X107201Y112083D01*
X107408Y112583D01*
X112221D01*
Y114612D01*
X113567D01*
Y114157D01*
X120685D01*
X120850Y113726D01*
Y113370D01*
X127575D01*
Y118520D01*
X120850D01*
X120685Y118951D01*
Y120095D01*
X113567D01*
Y117671D01*
X112221D01*
Y119701D01*
X106844D01*
Y128331D01*
X112221D01*
Y130360D01*
X113567D01*
Y129905D01*
X120685D01*
X120850Y129474D01*
Y129118D01*
X127575D01*
Y134268D01*
X120850D01*
X120685Y134699D01*
Y135843D01*
X113567D01*
Y133419D01*
X112221D01*
Y135449D01*
X106844D01*
Y144079D01*
X112221D01*
Y146108D01*
X113567D01*
Y145653D01*
X120685D01*
X120850Y145222D01*
Y144866D01*
X127575D01*
Y150016D01*
X120850D01*
X120685Y150447D01*
Y151591D01*
X113567D01*
Y149167D01*
X112221D01*
Y151197D01*
X106844D01*
Y159827D01*
X112221D01*
Y161856D01*
X113567D01*
Y161402D01*
X120685D01*
X120850Y160970D01*
Y160614D01*
X127575D01*
Y165764D01*
X120850D01*
X120685Y166195D01*
Y167339D01*
X113567D01*
Y164915D01*
X112221D01*
Y166945D01*
X106844D01*
Y167323D01*
X106728Y167908D01*
X106396Y168404D01*
X98585Y176215D01*
X98089Y176547D01*
X97504Y176663D01*
X84358D01*
X79285Y181736D01*
Y182979D01*
X79308Y183094D01*
Y183371D01*
X79808Y183578D01*
X80329Y183057D01*
X81230Y182537D01*
X82236Y182268D01*
X83276D01*
X84282Y182537D01*
X85183Y183057D01*
X85919Y183793D01*
X86439Y184695D01*
X86642Y185451D01*
X87209D01*
X87794Y185568D01*
X88290Y185899D01*
X88341Y185951D01*
X88803Y185759D01*
Y185700D01*
X89073Y184695D01*
X89593Y183793D01*
X90329Y183057D01*
X91230Y182537D01*
X92236Y182268D01*
X93276D01*
X94282Y182537D01*
X95183Y183057D01*
X95919Y183793D01*
X96439Y184695D01*
X96709Y185700D01*
Y186741D01*
X96441Y187742D01*
X102051Y193352D01*
X116695D01*
X116887Y192891D01*
D02*
G37*
G36*
X1542Y201624D02*
X2486Y199772D01*
X3708Y198091D01*
X5177Y196621D01*
X6859Y195399D01*
X8711Y194456D01*
X10687Y193813D01*
X12166Y193579D01*
X12339Y193045D01*
X9270Y189976D01*
X4315D01*
Y184039D01*
X11433D01*
Y187813D01*
X15078Y191459D01*
X19456D01*
X20042Y191575D01*
X20538Y191907D01*
X28421Y199790D01*
X28921Y199586D01*
Y197819D01*
X29648D01*
X29840Y197357D01*
X22673Y190190D01*
X22260Y189976D01*
Y189976D01*
X22260Y189976D01*
X15142D01*
Y184039D01*
X22260D01*
Y186016D01*
X22759Y186115D01*
X23256Y186447D01*
X24045Y187236D01*
X24469Y186953D01*
X24303Y186553D01*
X24000Y185029D01*
Y183475D01*
X24303Y181951D01*
X24898Y180515D01*
X25761Y179223D01*
X26860Y178124D01*
X28153Y177260D01*
X29588Y176665D01*
X31113Y176362D01*
X32667D01*
X34191Y176665D01*
X35627Y177260D01*
X36919Y178124D01*
X38018Y179223D01*
X38882Y180515D01*
X39476Y181951D01*
X39779Y183475D01*
Y185029D01*
X39476Y186553D01*
X38882Y187989D01*
X38018Y189281D01*
X36919Y190380D01*
X35627Y191244D01*
X34191Y191839D01*
X32667Y192142D01*
X31113D01*
X29588Y191839D01*
X29189Y191673D01*
X28905Y192097D01*
X32370Y195562D01*
X36661Y191270D01*
X36661Y191270D01*
X37240Y190883D01*
X37923Y190748D01*
X55323D01*
X55373Y190673D01*
X55106Y190173D01*
X53256D01*
Y186221D01*
Y182268D01*
X55627D01*
X55818Y181806D01*
X53580Y179568D01*
X53165Y179740D01*
Y179740D01*
X47228D01*
Y172622D01*
X48413D01*
Y171119D01*
X45982Y168689D01*
X45596Y168111D01*
X45460Y167428D01*
Y162460D01*
X45095Y162250D01*
X44443Y161598D01*
X43983Y160800D01*
X43744Y159910D01*
Y158988D01*
X43983Y158098D01*
X44443Y157300D01*
X45095Y156648D01*
X45460Y156438D01*
Y154543D01*
X42823D01*
Y151575D01*
Y148606D01*
X45460D01*
Y146669D01*
X38764D01*
Y140732D01*
X45882D01*
Y141917D01*
X46505D01*
X47853Y140569D01*
X47853Y140569D01*
X48431Y140182D01*
X49114Y140046D01*
X50208D01*
X50335Y139892D01*
Y139772D01*
X55098D01*
Y138772D01*
X50335D01*
Y138652D01*
X50428Y138181D01*
X50554Y137992D01*
X50428Y137803D01*
X50335Y137333D01*
Y136092D01*
X50428Y135622D01*
X50554Y135433D01*
X50428Y135245D01*
X50335Y134774D01*
Y133534D01*
X50428Y133063D01*
X50554Y132874D01*
X50428Y132685D01*
X50335Y132215D01*
Y130974D01*
X50428Y130504D01*
X50554Y130315D01*
X50428Y130126D01*
X50335Y129656D01*
Y128415D01*
X50428Y127945D01*
X50695Y127545D01*
X51094Y127279D01*
X51565Y127185D01*
X56959D01*
X57150Y126723D01*
X54988Y124561D01*
X44925D01*
X38483Y131003D01*
X37987Y131334D01*
X37417Y131448D01*
Y133480D01*
X31480D01*
Y126362D01*
X37417D01*
Y127089D01*
X37879Y127281D01*
X42106Y123054D01*
X41914Y122592D01*
X37417D01*
Y124622D01*
X31480D01*
Y117504D01*
X37417D01*
Y119534D01*
X43305D01*
X43463Y119502D01*
X54933D01*
X55124Y119040D01*
X49818Y113734D01*
X37417D01*
Y115764D01*
X31480D01*
Y108646D01*
X37417D01*
Y110675D01*
X49788D01*
X49980Y110213D01*
X44642Y104876D01*
X37417D01*
Y106905D01*
X31480D01*
Y99787D01*
X37417D01*
Y101817D01*
X45276D01*
X45861Y101934D01*
X46357Y102265D01*
X62018Y117926D01*
X62467Y117667D01*
X62445Y117587D01*
Y116665D01*
X62683Y115775D01*
X63144Y114977D01*
X63796Y114325D01*
X64594Y113865D01*
X65484Y113626D01*
X66406D01*
X67097Y113811D01*
X68156Y112752D01*
Y112110D01*
X65346D01*
Y109895D01*
X64836D01*
X64524Y110206D01*
Y110697D01*
X64285Y111587D01*
X63824Y112385D01*
X63173Y113037D01*
X62375Y113498D01*
X61484Y113736D01*
X60563D01*
X59673Y113498D01*
X58875Y113037D01*
X58223Y112385D01*
X57762Y111587D01*
X57524Y110697D01*
Y109775D01*
X57762Y108885D01*
X58223Y108087D01*
X58875Y107436D01*
X59673Y106975D01*
X60563Y106736D01*
X61484D01*
X62375Y106975D01*
X62586Y107097D01*
X62835Y106849D01*
X63414Y106462D01*
X64096Y106326D01*
X64096Y106326D01*
X65346D01*
Y104110D01*
X78208D01*
X78293Y103876D01*
X78296Y103610D01*
X77575Y103194D01*
X76924Y102543D01*
X76602Y101986D01*
X54445D01*
X53860Y101870D01*
X53364Y101538D01*
X39944Y88118D01*
X39503Y88384D01*
X39779Y89774D01*
Y91328D01*
X39476Y92852D01*
X38882Y94288D01*
X38018Y95581D01*
X36919Y96680D01*
X35627Y97543D01*
X34191Y98138D01*
X32667Y98441D01*
X31113D01*
X29588Y98138D01*
X28153Y97543D01*
X26860Y96680D01*
X25761Y95581D01*
X24898Y94288D01*
X24303Y92852D01*
X24000Y91328D01*
Y89774D01*
X24303Y88250D01*
X24898Y86814D01*
X25761Y85522D01*
X26860Y84423D01*
X27909Y83722D01*
X27757Y83222D01*
X27559D01*
X26974Y83106D01*
X26478Y82774D01*
X21131Y77428D01*
X20669Y77619D01*
X20669Y139764D01*
X20669D01*
X20669Y139764D01*
X20546Y140309D01*
X20047Y141306D01*
X19259Y142095D01*
X18262Y142593D01*
X17717Y142717D01*
X3937Y142717D01*
X3937Y142717D01*
X3407Y142861D01*
X2457Y143412D01*
X1680Y144189D01*
X1129Y145139D01*
X984Y145669D01*
X984Y201743D01*
X1478Y201821D01*
X1542Y201624D01*
D02*
G37*
G36*
X77933Y136370D02*
Y136092D01*
X78027Y135622D01*
X78153Y135433D01*
X78027Y135245D01*
X77933Y134774D01*
Y134653D01*
X82697D01*
Y133653D01*
X77933D01*
Y133534D01*
X78027Y133063D01*
X78153Y132874D01*
X78027Y132685D01*
X77933Y132215D01*
Y132095D01*
X82697D01*
Y131095D01*
X77933D01*
Y130974D01*
X78027Y130504D01*
X78153Y130315D01*
X78027Y130126D01*
X77933Y129656D01*
Y129535D01*
X82697D01*
Y129035D01*
X83197D01*
Y127185D01*
X86230D01*
X86701Y127279D01*
X87100Y127545D01*
X87367Y127945D01*
X87461Y128415D01*
Y129168D01*
X87961Y129376D01*
X88212Y129124D01*
X89010Y128663D01*
X89901Y128425D01*
X90822D01*
X91712Y128663D01*
X92510Y129124D01*
X93162Y129776D01*
X93623Y130574D01*
X93674Y130764D01*
X94174Y130699D01*
Y130675D01*
X94290Y130089D01*
X94622Y129593D01*
X99849Y124366D01*
Y119701D01*
X98409D01*
Y112583D01*
X103786D01*
Y111806D01*
X103902Y111221D01*
X104234Y110725D01*
X110662Y104297D01*
X111158Y103965D01*
X111743Y103849D01*
X119891D01*
X120128Y103349D01*
X119873Y102907D01*
X115163D01*
X114846Y102970D01*
X97707D01*
X97573Y103470D01*
X97622Y103498D01*
X98273Y104150D01*
X98734Y104948D01*
X98962Y105799D01*
X91983D01*
X92211Y104948D01*
X92672Y104150D01*
X93323Y103498D01*
X93372Y103470D01*
X93238Y102970D01*
X86677D01*
X86092Y102854D01*
X85596Y102522D01*
X83686Y100613D01*
X83224Y100804D01*
Y100855D01*
X82986Y101745D01*
X82525Y102543D01*
X81874Y103194D01*
X81153Y103610D01*
X81156Y103876D01*
X81241Y104110D01*
X84260D01*
Y112110D01*
X84626Y112434D01*
X85201Y112589D01*
X85999Y113049D01*
X86651Y113701D01*
X87112Y114499D01*
X87350Y115389D01*
Y116311D01*
X87112Y117201D01*
X86651Y117999D01*
X85999Y118651D01*
X85201Y119112D01*
X84311Y119350D01*
X83390D01*
X82803Y119193D01*
X82303Y119543D01*
Y119555D01*
X82065Y120445D01*
X81604Y121244D01*
X80952Y121895D01*
X80794Y121986D01*
X80928Y122486D01*
X89635D01*
X90026Y121808D01*
X90678Y121156D01*
X91476Y120696D01*
X92366Y120457D01*
X93288D01*
X94178Y120696D01*
X94976Y121156D01*
X95628Y121808D01*
X96088Y122606D01*
X96327Y123496D01*
Y124418D01*
X96088Y125308D01*
X95628Y126106D01*
X94976Y126758D01*
X94178Y127218D01*
X93288Y127457D01*
X92366D01*
X91476Y127218D01*
X90678Y126758D01*
X90026Y126106D01*
X89702Y125545D01*
X76421D01*
X72270Y129697D01*
Y135639D01*
X72770Y135876D01*
X73389Y135518D01*
X74279Y135280D01*
X75201D01*
X76091Y135518D01*
X76889Y135979D01*
X77433Y136523D01*
X77933Y136370D01*
D02*
G37*
%LPC*%
G36*
X193394Y215724D02*
X193374D01*
Y212272D01*
X196827D01*
Y212292D01*
X196557Y213297D01*
X196037Y214199D01*
X195301Y214935D01*
X194400Y215455D01*
X193394Y215724D01*
D02*
G37*
G36*
X192374D02*
X192354D01*
X191348Y215455D01*
X190447Y214935D01*
X189711Y214199D01*
X189191Y213297D01*
X188921Y212292D01*
Y212272D01*
X192374D01*
Y215724D01*
D02*
G37*
G36*
X173394D02*
X173374D01*
Y212272D01*
X176827D01*
Y212292D01*
X176557Y213297D01*
X176037Y214199D01*
X175301Y214935D01*
X174400Y215455D01*
X173394Y215724D01*
D02*
G37*
G36*
X172374D02*
X172354D01*
X171348Y215455D01*
X170447Y214935D01*
X169711Y214199D01*
X169191Y213297D01*
X168921Y212292D01*
Y212272D01*
X172374D01*
Y215724D01*
D02*
G37*
G36*
X123394D02*
X123374D01*
Y212272D01*
X126827D01*
Y212292D01*
X126557Y213297D01*
X126037Y214199D01*
X125301Y214935D01*
X124400Y215455D01*
X123394Y215724D01*
D02*
G37*
G36*
X122374D02*
X122354D01*
X121348Y215455D01*
X120447Y214935D01*
X119711Y214199D01*
X119191Y213297D01*
X118921Y212292D01*
Y212272D01*
X122374D01*
Y215724D01*
D02*
G37*
G36*
X93394D02*
X93374D01*
Y212272D01*
X96827D01*
Y212292D01*
X96557Y213297D01*
X96037Y214199D01*
X95301Y214935D01*
X94400Y215455D01*
X93394Y215724D01*
D02*
G37*
G36*
X92374D02*
X92354D01*
X91348Y215455D01*
X90447Y214935D01*
X89711Y214199D01*
X89191Y213297D01*
X88921Y212292D01*
Y212272D01*
X92374D01*
Y215724D01*
D02*
G37*
G36*
X53394D02*
X53374D01*
Y212272D01*
X56827D01*
Y212292D01*
X56557Y213297D01*
X56037Y214199D01*
X55301Y214935D01*
X54400Y215455D01*
X53394Y215724D01*
D02*
G37*
G36*
X52374D02*
X52354D01*
X51348Y215455D01*
X50447Y214935D01*
X49711Y214199D01*
X49191Y213297D01*
X48921Y212292D01*
Y212272D01*
X52374D01*
Y215724D01*
D02*
G37*
G36*
X223394D02*
X222354D01*
X221348Y215455D01*
X220447Y214935D01*
X219711Y214199D01*
X219191Y213297D01*
X218921Y212292D01*
Y211251D01*
X219191Y210246D01*
X219711Y209345D01*
X220447Y208609D01*
X221348Y208088D01*
X222354Y207819D01*
X223394D01*
X224400Y208088D01*
X225301Y208609D01*
X226037Y209345D01*
X226557Y210246D01*
X226827Y211251D01*
Y212292D01*
X226557Y213297D01*
X226037Y214199D01*
X225301Y214935D01*
X224400Y215455D01*
X223394Y215724D01*
D02*
G37*
G36*
X213394D02*
X212354D01*
X211348Y215455D01*
X210447Y214935D01*
X209711Y214199D01*
X209191Y213297D01*
X208921Y212292D01*
Y211251D01*
X209191Y210246D01*
X209711Y209345D01*
X210447Y208609D01*
X211348Y208088D01*
X212354Y207819D01*
X213394D01*
X214400Y208088D01*
X215301Y208609D01*
X216037Y209345D01*
X216557Y210246D01*
X216827Y211251D01*
Y212292D01*
X216557Y213297D01*
X216037Y214199D01*
X215301Y214935D01*
X214400Y215455D01*
X213394Y215724D01*
D02*
G37*
G36*
X196827Y211272D02*
X193374D01*
Y207819D01*
X193394D01*
X194400Y208088D01*
X195301Y208609D01*
X196037Y209345D01*
X196557Y210246D01*
X196827Y211251D01*
Y211272D01*
D02*
G37*
G36*
X192374D02*
X188921D01*
Y211251D01*
X189191Y210246D01*
X189711Y209345D01*
X190447Y208609D01*
X191348Y208088D01*
X192354Y207819D01*
X192374D01*
Y211272D01*
D02*
G37*
G36*
X176827D02*
X173374D01*
Y207819D01*
X173394D01*
X174400Y208088D01*
X175301Y208609D01*
X176037Y209345D01*
X176557Y210246D01*
X176827Y211251D01*
Y211272D01*
D02*
G37*
G36*
X172374D02*
X168921D01*
Y211251D01*
X169191Y210246D01*
X169711Y209345D01*
X170447Y208609D01*
X171348Y208088D01*
X172354Y207819D01*
X172374D01*
Y211272D01*
D02*
G37*
G36*
X163394Y215724D02*
X162354D01*
X161348Y215455D01*
X160447Y214935D01*
X159711Y214199D01*
X159191Y213297D01*
X158921Y212292D01*
Y211251D01*
X159191Y210246D01*
X159711Y209345D01*
X160447Y208609D01*
X161348Y208088D01*
X162354Y207819D01*
X163394D01*
X164400Y208088D01*
X165301Y208609D01*
X166037Y209345D01*
X166557Y210246D01*
X166827Y211251D01*
Y212292D01*
X166557Y213297D01*
X166037Y214199D01*
X165301Y214935D01*
X164400Y215455D01*
X163394Y215724D01*
D02*
G37*
G36*
X153394D02*
X152354D01*
X151348Y215455D01*
X150447Y214935D01*
X149711Y214199D01*
X149191Y213297D01*
X148921Y212292D01*
Y211251D01*
X149191Y210246D01*
X149711Y209345D01*
X150447Y208609D01*
X151348Y208088D01*
X152354Y207819D01*
X153394D01*
X154400Y208088D01*
X155301Y208609D01*
X156037Y209345D01*
X156557Y210246D01*
X156827Y211251D01*
Y212292D01*
X156557Y213297D01*
X156037Y214199D01*
X155301Y214935D01*
X154400Y215455D01*
X153394Y215724D01*
D02*
G37*
G36*
X143394D02*
X142354D01*
X141348Y215455D01*
X140447Y214935D01*
X139711Y214199D01*
X139191Y213297D01*
X138921Y212292D01*
Y211251D01*
X139191Y210246D01*
X139711Y209345D01*
X140447Y208609D01*
X141348Y208088D01*
X142354Y207819D01*
X143394D01*
X144400Y208088D01*
X145301Y208609D01*
X146037Y209345D01*
X146557Y210246D01*
X146827Y211251D01*
Y212292D01*
X146557Y213297D01*
X146037Y214199D01*
X145301Y214935D01*
X144400Y215455D01*
X143394Y215724D01*
D02*
G37*
G36*
X83394D02*
X82354D01*
X81348Y215455D01*
X80447Y214935D01*
X79711Y214199D01*
X79191Y213297D01*
X78921Y212292D01*
Y211251D01*
X79191Y210246D01*
X79711Y209345D01*
X80447Y208609D01*
X81348Y208088D01*
X82354Y207819D01*
X83394D01*
X84400Y208088D01*
X85301Y208609D01*
X86037Y209345D01*
X86557Y210246D01*
X86827Y211251D01*
Y212292D01*
X86557Y213297D01*
X86037Y214199D01*
X85301Y214935D01*
X84400Y215455D01*
X83394Y215724D01*
D02*
G37*
G36*
X63394D02*
X62354D01*
X61348Y215455D01*
X60447Y214935D01*
X59711Y214199D01*
X59191Y213297D01*
X58921Y212292D01*
Y211251D01*
X59191Y210246D01*
X59711Y209345D01*
X60447Y208609D01*
X61348Y208088D01*
X62354Y207819D01*
X63394D01*
X64400Y208088D01*
X65301Y208609D01*
X66037Y209345D01*
X66557Y210246D01*
X66827Y211251D01*
Y212292D01*
X66557Y213297D01*
X66037Y214199D01*
X65301Y214935D01*
X64400Y215455D01*
X63394Y215724D01*
D02*
G37*
G36*
X56827Y211272D02*
X53374D01*
Y207819D01*
X53394D01*
X54400Y208088D01*
X55301Y208609D01*
X56037Y209345D01*
X56557Y210246D01*
X56827Y211251D01*
Y211272D01*
D02*
G37*
G36*
X52374D02*
X48921D01*
Y211251D01*
X49191Y210246D01*
X49711Y209345D01*
X50447Y208609D01*
X51348Y208088D01*
X52354Y207819D01*
X52374D01*
Y211272D01*
D02*
G37*
G36*
X223394Y205724D02*
X223374D01*
Y202272D01*
X226827D01*
Y202292D01*
X226557Y203297D01*
X226037Y204199D01*
X225301Y204935D01*
X224400Y205455D01*
X223394Y205724D01*
D02*
G37*
G36*
X222374D02*
X222354D01*
X221348Y205455D01*
X220447Y204935D01*
X219711Y204199D01*
X219191Y203297D01*
X218921Y202292D01*
Y202272D01*
X222374D01*
Y205724D01*
D02*
G37*
G36*
X153394D02*
X153374D01*
Y202272D01*
X156827D01*
Y202292D01*
X156557Y203297D01*
X156037Y204199D01*
X155301Y204935D01*
X154400Y205455D01*
X153394Y205724D01*
D02*
G37*
G36*
X152374D02*
X152354D01*
X151348Y205455D01*
X150447Y204935D01*
X149711Y204199D01*
X149191Y203297D01*
X148921Y202292D01*
Y202272D01*
X152374D01*
Y205724D01*
D02*
G37*
G36*
X73394D02*
X73374D01*
Y202272D01*
X76827D01*
Y202292D01*
X76557Y203297D01*
X76037Y204199D01*
X75301Y204935D01*
X74400Y205455D01*
X73394Y205724D01*
D02*
G37*
G36*
X226827Y201272D02*
X223374D01*
Y197819D01*
X223394D01*
X224400Y198088D01*
X225301Y198609D01*
X226037Y199345D01*
X226557Y200246D01*
X226827Y201251D01*
Y201272D01*
D02*
G37*
G36*
X222374D02*
X218921D01*
Y201251D01*
X219191Y200246D01*
X219711Y199345D01*
X220447Y198609D01*
X221348Y198088D01*
X222354Y197819D01*
X222374D01*
Y201272D01*
D02*
G37*
G36*
X76827D02*
X73374D01*
Y197819D01*
X73394D01*
X74400Y198088D01*
X75301Y198609D01*
X76037Y199345D01*
X76557Y200246D01*
X76827Y201251D01*
Y201272D01*
D02*
G37*
G36*
X53394Y205724D02*
X52354D01*
X51348Y205455D01*
X50447Y204935D01*
X49711Y204199D01*
X49191Y203297D01*
X48921Y202292D01*
Y201251D01*
X49191Y200246D01*
X49711Y199345D01*
X50447Y198609D01*
X51348Y198088D01*
X52354Y197819D01*
X53394D01*
X54400Y198088D01*
X55301Y198609D01*
X56037Y199345D01*
X56557Y200246D01*
X56827Y201251D01*
Y202292D01*
X56557Y203297D01*
X56037Y204199D01*
X55301Y204935D01*
X54400Y205455D01*
X53394Y205724D01*
D02*
G37*
G36*
X43394D02*
X42354D01*
X41348Y205455D01*
X40447Y204935D01*
X39711Y204199D01*
X39191Y203297D01*
X38921Y202292D01*
Y201251D01*
X39191Y200246D01*
X39711Y199345D01*
X40447Y198609D01*
X41348Y198088D01*
X42354Y197819D01*
X43394D01*
X44400Y198088D01*
X45301Y198609D01*
X46037Y199345D01*
X46557Y200246D01*
X46827Y201251D01*
Y202292D01*
X46557Y203297D01*
X46037Y204199D01*
X45301Y204935D01*
X44400Y205455D01*
X43394Y205724D01*
D02*
G37*
G36*
X176017Y190702D02*
X172467D01*
Y189102D01*
X176017D01*
Y190702D01*
D02*
G37*
G36*
X145291Y185055D02*
X142232D01*
Y182587D01*
X145291D01*
Y185055D01*
D02*
G37*
G36*
X141232D02*
X138173D01*
Y182349D01*
X137673Y182215D01*
X137643Y182267D01*
X136992Y182919D01*
X136194Y183380D01*
X135303Y183618D01*
X134382D01*
X133492Y183380D01*
X132694Y182919D01*
X132042Y182267D01*
X131581Y181469D01*
X131342Y180579D01*
Y179657D01*
X131581Y178767D01*
X132042Y177969D01*
X132694Y177317D01*
X133492Y176857D01*
X134382Y176618D01*
X135303D01*
X136021Y176810D01*
X138173Y174658D01*
Y171244D01*
X145291D01*
Y172123D01*
X146817D01*
Y171502D01*
X154917D01*
Y175702D01*
X146817D01*
Y175692D01*
X145291D01*
Y177181D01*
X140697D01*
X139222Y178656D01*
X139413Y179118D01*
X141232D01*
Y182087D01*
Y185055D01*
D02*
G37*
G36*
X145291Y181587D02*
X142232D01*
Y179118D01*
X145291D01*
Y181587D01*
D02*
G37*
G36*
X176017Y180702D02*
X172467D01*
Y179102D01*
X176017D01*
Y180702D01*
D02*
G37*
G36*
X171467D02*
X167917D01*
Y179102D01*
X171467D01*
Y180702D01*
D02*
G37*
G36*
X176017Y178102D02*
X172467D01*
Y176502D01*
X176017D01*
Y178102D01*
D02*
G37*
G36*
X171467D02*
X167917D01*
Y176502D01*
X171467D01*
Y178102D01*
D02*
G37*
G36*
Y175702D02*
X167917D01*
Y174102D01*
X171467D01*
Y175702D01*
D02*
G37*
G36*
Y173102D02*
X167917D01*
Y171502D01*
X171467D01*
Y173102D01*
D02*
G37*
G36*
X116626Y159465D02*
X113567D01*
Y156996D01*
X116626D01*
Y159465D01*
D02*
G37*
G36*
X124713Y158283D02*
Y156209D01*
X127575D01*
Y158283D01*
X124713D01*
D02*
G37*
G36*
X116626Y155996D02*
X113567D01*
Y153528D01*
X116626D01*
Y155996D01*
D02*
G37*
G36*
X127575Y155209D02*
X124713D01*
Y153134D01*
X127575D01*
Y155209D01*
D02*
G37*
G36*
X120685Y159465D02*
X117626D01*
Y156496D01*
Y153528D01*
X120594Y153527D01*
X120850Y153134D01*
X120942Y153134D01*
X123713D01*
Y155709D01*
Y158283D01*
X121185D01*
X120850Y158283D01*
X120685Y158715D01*
Y159465D01*
D02*
G37*
G36*
X232752Y155646D02*
X231815D01*
X230910Y155403D01*
X230098Y154935D01*
X229435Y154272D01*
X228967Y153460D01*
X228724Y152555D01*
Y151618D01*
X228967Y150713D01*
X229435Y149901D01*
X230098Y149239D01*
X230910Y148770D01*
X231815Y148528D01*
X232752D01*
X233657Y148770D01*
X234469Y149239D01*
X235131Y149901D01*
X235600Y150713D01*
X235842Y151618D01*
Y152555D01*
X235600Y153460D01*
X235131Y154272D01*
X234469Y154935D01*
X233657Y155403D01*
X232752Y155646D01*
D02*
G37*
G36*
X116626Y143717D02*
X113567D01*
Y141248D01*
X116626D01*
Y143717D01*
D02*
G37*
G36*
X124713Y142535D02*
Y140461D01*
X127575D01*
Y142535D01*
X124713D01*
D02*
G37*
G36*
X232752Y145291D02*
X231815D01*
X230910Y145049D01*
X230098Y144580D01*
X229435Y143918D01*
X228967Y143106D01*
X228724Y142201D01*
Y141264D01*
X228967Y140358D01*
X229435Y139547D01*
X230098Y138884D01*
X230910Y138416D01*
X231815Y138173D01*
X232752D01*
X233657Y138416D01*
X234469Y138884D01*
X235131Y139547D01*
X235600Y140358D01*
X235842Y141264D01*
Y142201D01*
X235600Y143106D01*
X235131Y143918D01*
X234469Y144580D01*
X233657Y145049D01*
X232752Y145291D01*
D02*
G37*
G36*
X116626Y140248D02*
X113567D01*
Y137779D01*
X116626D01*
Y140248D01*
D02*
G37*
G36*
X127575Y139461D02*
X124713D01*
Y137386D01*
X127575D01*
Y139461D01*
D02*
G37*
G36*
X120685Y143717D02*
X117626D01*
Y140748D01*
Y137779D01*
X120594Y137779D01*
X120850Y137386D01*
X120942Y137386D01*
X123713D01*
Y139961D01*
Y142535D01*
X121185D01*
X120850Y142535D01*
X120685Y142967D01*
Y143717D01*
D02*
G37*
G36*
X116626Y127969D02*
X113567D01*
Y125500D01*
X116626D01*
Y127969D01*
D02*
G37*
G36*
X124713Y126787D02*
Y124713D01*
X127575D01*
Y126787D01*
X124713D01*
D02*
G37*
G36*
X116626Y124500D02*
X113567D01*
Y122031D01*
X116626D01*
Y124500D01*
D02*
G37*
G36*
X127575Y123713D02*
X124713D01*
Y121638D01*
X127575D01*
Y123713D01*
D02*
G37*
G36*
X120685Y127969D02*
X117626D01*
Y125000D01*
Y122031D01*
X120594Y122031D01*
X120850Y121638D01*
X120942Y121638D01*
X123713D01*
Y124213D01*
Y126787D01*
X121185D01*
X120850Y126787D01*
X120685Y127219D01*
Y127969D01*
D02*
G37*
G36*
X116626Y112221D02*
X113567D01*
Y109752D01*
X116626D01*
Y112221D01*
D02*
G37*
G36*
X124713Y111039D02*
Y108965D01*
X127575D01*
Y111039D01*
X124713D01*
D02*
G37*
G36*
X232752Y115291D02*
X231815D01*
X230910Y115049D01*
X230098Y114580D01*
X229435Y113918D01*
X228967Y113106D01*
X228724Y112201D01*
Y111264D01*
X228967Y110359D01*
X229435Y109547D01*
X230098Y108884D01*
X230910Y108416D01*
X231815Y108173D01*
X232752D01*
X233657Y108416D01*
X234469Y108884D01*
X235131Y109547D01*
X235600Y110359D01*
X235842Y111264D01*
Y112201D01*
X235600Y113106D01*
X235131Y113918D01*
X234469Y114580D01*
X233657Y115049D01*
X232752Y115291D01*
D02*
G37*
G36*
X180690Y105724D02*
X179546D01*
X178440Y105428D01*
X177449Y104856D01*
X176640Y104047D01*
X176068Y103056D01*
X175772Y101950D01*
Y100806D01*
X176068Y99700D01*
X176640Y98709D01*
X177449Y97900D01*
X178440Y97328D01*
X179546Y97031D01*
X180690D01*
X181796Y97328D01*
X182787Y97900D01*
X183596Y98709D01*
X184168Y99700D01*
X184465Y100806D01*
Y101950D01*
X184168Y103056D01*
X183596Y104047D01*
X182787Y104856D01*
X181796Y105428D01*
X180690Y105724D01*
D02*
G37*
G36*
X98962Y93004D02*
X95972D01*
Y90014D01*
X96823Y90242D01*
X97622Y90703D01*
X98273Y91355D01*
X98734Y92153D01*
X98962Y93004D01*
D02*
G37*
G36*
X94972D02*
X91983D01*
X92211Y92153D01*
X92672Y91355D01*
X93323Y90703D01*
X94121Y90242D01*
X94972Y90014D01*
Y93004D01*
D02*
G37*
G36*
X111721Y90104D02*
Y87114D01*
X114710D01*
X114482Y87965D01*
X114021Y88763D01*
X113370Y89415D01*
X112571Y89876D01*
X111721Y90104D01*
D02*
G37*
G36*
X110721D02*
X109870Y89876D01*
X109071Y89415D01*
X108420Y88763D01*
X107959Y87965D01*
X107731Y87114D01*
X110721D01*
Y90104D01*
D02*
G37*
G36*
X100409Y86236D02*
X97941D01*
Y83177D01*
X100409D01*
Y86236D01*
D02*
G37*
G36*
X96941D02*
X94472D01*
Y83177D01*
X96941D01*
Y86236D01*
D02*
G37*
G36*
X114710Y86114D02*
X111721D01*
Y83125D01*
X112571Y83353D01*
X113370Y83814D01*
X114021Y84465D01*
X114482Y85263D01*
X114710Y86114D01*
D02*
G37*
G36*
X110721D02*
X107731D01*
X107959Y85263D01*
X108420Y84465D01*
X109071Y83814D01*
X109870Y83353D01*
X110721Y83125D01*
Y86114D01*
D02*
G37*
G36*
X100409Y82177D02*
X97941D01*
Y79118D01*
X100409D01*
Y82177D01*
D02*
G37*
G36*
X96941D02*
X94472D01*
Y79118D01*
X96941D01*
Y82177D01*
D02*
G37*
G36*
X109563Y78559D02*
X107488D01*
Y76287D01*
X109563D01*
Y78559D01*
D02*
G37*
G36*
X51394D02*
X49319D01*
Y76287D01*
X51394D01*
Y78559D01*
D02*
G37*
G36*
X48319D02*
X46244D01*
Y76287D01*
X48319D01*
Y78559D01*
D02*
G37*
G36*
X106488D02*
X104413D01*
Y76287D01*
X106488D01*
Y78559D01*
D02*
G37*
G36*
X109563Y75287D02*
X107488D01*
Y73016D01*
X109563D01*
Y75287D01*
D02*
G37*
G36*
X106488D02*
X104413D01*
Y73016D01*
X106488D01*
Y75287D01*
D02*
G37*
G36*
X51394D02*
X49319D01*
Y73016D01*
X51394D01*
Y75287D01*
D02*
G37*
G36*
X48319D02*
X46244D01*
Y73016D01*
X48319D01*
Y75287D01*
D02*
G37*
G36*
X64976Y77575D02*
X54709D01*
Y70063D01*
X64976D01*
Y71099D01*
X65476Y71306D01*
X65764Y71018D01*
X66562Y70557D01*
X67453Y70319D01*
X68374D01*
X69264Y70557D01*
X70062Y71018D01*
X70714Y71670D01*
X71175Y72468D01*
X71413Y73358D01*
Y74280D01*
X71175Y75170D01*
X70714Y75968D01*
X70062Y76620D01*
X69264Y77080D01*
X68374Y77319D01*
X67453D01*
X66562Y77080D01*
X65764Y76620D01*
X65476Y76332D01*
X64976Y76539D01*
Y77575D01*
D02*
G37*
G36*
X100803D02*
X90535D01*
Y70063D01*
X100803D01*
Y77575D01*
D02*
G37*
G36*
X109563Y70685D02*
X107488D01*
Y68413D01*
X109563D01*
Y70685D01*
D02*
G37*
G36*
X106488D02*
X104413D01*
Y68413D01*
X106488D01*
Y70685D01*
D02*
G37*
G36*
X51098D02*
X49024D01*
Y68413D01*
X51098D01*
Y70685D01*
D02*
G37*
G36*
X48024D02*
X45949D01*
Y68413D01*
X48024D01*
Y70685D01*
D02*
G37*
G36*
X232752Y74937D02*
X231815D01*
X230910Y74695D01*
X230098Y74226D01*
X229435Y73563D01*
X228967Y72752D01*
X228724Y71846D01*
Y70909D01*
X228967Y70004D01*
X229435Y69193D01*
X230098Y68530D01*
X230910Y68061D01*
X231815Y67819D01*
X232752D01*
X233657Y68061D01*
X234469Y68530D01*
X235131Y69193D01*
X235600Y70004D01*
X235842Y70909D01*
Y71846D01*
X235600Y72752D01*
X235131Y73563D01*
X234469Y74226D01*
X233657Y74695D01*
X232752Y74937D01*
D02*
G37*
G36*
X109563Y67413D02*
X107488D01*
Y65142D01*
X109563D01*
Y67413D01*
D02*
G37*
G36*
X106488D02*
X104413D01*
Y65142D01*
X106488D01*
Y67413D01*
D02*
G37*
G36*
X51098Y67413D02*
X49024D01*
Y65142D01*
X51098D01*
Y67413D01*
D02*
G37*
G36*
X48024D02*
X45949D01*
Y65142D01*
X48024D01*
Y67413D01*
D02*
G37*
G36*
X232752Y64583D02*
X231815D01*
X230910Y64340D01*
X230098Y63872D01*
X229435Y63209D01*
X228967Y62397D01*
X228724Y61492D01*
Y60555D01*
X228967Y59650D01*
X229435Y58838D01*
X230098Y58176D01*
X230910Y57707D01*
X231815Y57465D01*
X232752D01*
X233657Y57707D01*
X234469Y58176D01*
X235131Y58838D01*
X235600Y59650D01*
X235842Y60555D01*
Y61492D01*
X235600Y62397D01*
X235131Y63209D01*
X234469Y63872D01*
X233657Y64340D01*
X232752Y64583D01*
D02*
G37*
G36*
X125803Y63402D02*
X118291D01*
Y53134D01*
X125803D01*
Y63402D01*
D02*
G37*
G36*
X9465Y52181D02*
X6406D01*
Y49713D01*
X9465D01*
Y52181D01*
D02*
G37*
G36*
X5406D02*
X2347D01*
Y49713D01*
X5406D01*
Y52181D01*
D02*
G37*
G36*
X9465Y48713D02*
X6406D01*
Y46244D01*
X9465D01*
Y48713D01*
D02*
G37*
G36*
X5406D02*
X2347D01*
Y46244D01*
X5406D01*
Y48713D01*
D02*
G37*
G36*
X8874Y44898D02*
X6406D01*
Y41839D01*
X8874D01*
Y44898D01*
D02*
G37*
G36*
X5406D02*
X2937D01*
Y41839D01*
X5406D01*
Y44898D01*
D02*
G37*
G36*
X105776Y45823D02*
X104854D01*
X103964Y45584D01*
X103166Y45123D01*
X102514Y44472D01*
X102053Y43674D01*
X101837Y42864D01*
X101500Y42639D01*
X94588Y35727D01*
X94256Y35231D01*
X94140Y34646D01*
Y34268D01*
X90535D01*
Y26756D01*
X90535D01*
Y26394D01*
X90535D01*
Y18882D01*
X100575D01*
Y17307D01*
X102801D01*
Y15748D01*
X102918Y15163D01*
X103249Y14667D01*
X104234Y13682D01*
X104730Y13351D01*
X105315Y13234D01*
X105754D01*
Y10449D01*
X103331D01*
Y3331D01*
X109268D01*
Y10449D01*
X108813D01*
Y13234D01*
X109630D01*
Y11795D01*
X116748D01*
Y17732D01*
X109630D01*
Y16293D01*
X105948D01*
X105860Y16382D01*
Y17307D01*
X108087D01*
Y27575D01*
X100803D01*
Y34268D01*
X98107D01*
X97916Y34730D01*
X102937Y39751D01*
X103166Y39522D01*
X103964Y39061D01*
X104854Y38823D01*
X105776D01*
X106666Y39061D01*
X107464Y39522D01*
X108116Y40174D01*
X108576Y40972D01*
X108815Y41862D01*
Y42784D01*
X108576Y43674D01*
X108116Y44472D01*
X107464Y45123D01*
X106666Y45584D01*
X105776Y45823D01*
D02*
G37*
G36*
X133480Y40370D02*
X130421D01*
Y37902D01*
X133480D01*
Y40370D01*
D02*
G37*
G36*
X129421D02*
X126362D01*
Y37902D01*
X129421D01*
Y40370D01*
D02*
G37*
G36*
X8874Y40839D02*
X6406D01*
Y37780D01*
X8874D01*
Y40839D01*
D02*
G37*
G36*
X5406D02*
X2937D01*
Y37780D01*
X5406D01*
Y40839D01*
D02*
G37*
G36*
X28165Y39386D02*
X25106D01*
Y36917D01*
X28165D01*
Y39386D01*
D02*
G37*
G36*
X24106D02*
X21047D01*
Y36917D01*
X24106D01*
Y39386D01*
D02*
G37*
G36*
X71327Y41886D02*
X70405D01*
X69515Y41647D01*
X68717Y41186D01*
X68065Y40535D01*
X67708Y39915D01*
X55118D01*
X54533Y39799D01*
X54037Y39467D01*
X42323Y27753D01*
X40451Y29625D01*
X39955Y29956D01*
X39370Y30073D01*
X28165D01*
Y31512D01*
X21047D01*
Y25575D01*
X28165D01*
Y27014D01*
X29524D01*
X29709Y26591D01*
X29709Y26514D01*
Y16323D01*
X37220D01*
Y26514D01*
X37220Y26591D01*
X37405Y27014D01*
X38737D01*
X40628Y25122D01*
X40421Y24622D01*
X38764D01*
Y18685D01*
X45882D01*
Y24622D01*
X44224D01*
X44017Y25122D01*
X55752Y36856D01*
X67708D01*
X68065Y36237D01*
X68717Y35585D01*
X69515Y35124D01*
X70405Y34886D01*
X71327D01*
X72217Y35124D01*
X73015Y35585D01*
X73667Y36237D01*
X74128Y37035D01*
X74366Y37925D01*
Y38847D01*
X74128Y39737D01*
X73667Y40535D01*
X73015Y41186D01*
X72217Y41647D01*
X71327Y41886D01*
D02*
G37*
G36*
X133480Y36902D02*
X130421D01*
Y34433D01*
X133480D01*
Y36902D01*
D02*
G37*
G36*
X129421D02*
X126362D01*
Y34433D01*
X129421D01*
Y36902D01*
D02*
G37*
G36*
X28165Y35917D02*
X25106D01*
Y33449D01*
X28165D01*
Y35917D01*
D02*
G37*
G36*
X24106D02*
X21047D01*
Y33449D01*
X24106D01*
Y35917D01*
D02*
G37*
G36*
X152036Y57634D02*
X151114D01*
X150224Y57395D01*
X149426Y56935D01*
X148774Y56283D01*
X148313Y55485D01*
X148075Y54595D01*
Y53673D01*
X148313Y52783D01*
X148774Y51985D01*
X149426Y51333D01*
X150045Y50975D01*
Y46893D01*
X134209Y31057D01*
X133480D01*
Y32496D01*
X126362D01*
Y31057D01*
X116142D01*
X115557Y30940D01*
X115060Y30609D01*
X112108Y27656D01*
X111776Y27160D01*
X111660Y26575D01*
Y25606D01*
X109630D01*
Y19669D01*
X116748D01*
Y25606D01*
X115091D01*
X114883Y26106D01*
X116775Y27998D01*
X118106D01*
X118291Y27575D01*
X118291Y27498D01*
Y17307D01*
X125803D01*
Y20124D01*
X127319D01*
X132266Y15178D01*
Y12402D01*
X131709Y12080D01*
X131058Y11429D01*
X130597Y10631D01*
X130358Y9740D01*
Y8819D01*
X130597Y7929D01*
X131058Y7130D01*
X131709Y6479D01*
X132507Y6018D01*
X133397Y5779D01*
X134319D01*
X135209Y6018D01*
X136007Y6479D01*
X136659Y7130D01*
X137120Y7929D01*
X137358Y8819D01*
Y9740D01*
X137120Y10631D01*
X136659Y11429D01*
X136007Y12080D01*
X135325Y12474D01*
Y15811D01*
X135208Y16396D01*
X134877Y16893D01*
X129034Y22735D01*
X128538Y23066D01*
X127953Y23183D01*
X125803D01*
Y27211D01*
X126225Y27607D01*
X126284Y27622D01*
X126362Y27606D01*
Y26559D01*
X133480D01*
Y27998D01*
X134843D01*
X135428Y28115D01*
X135924Y28446D01*
X152656Y45178D01*
X152988Y45675D01*
X153104Y46260D01*
Y50975D01*
X153724Y51333D01*
X154376Y51985D01*
X154836Y52783D01*
X155075Y53673D01*
Y54595D01*
X154836Y55485D01*
X154376Y56283D01*
X153724Y56935D01*
X152926Y57395D01*
X152036Y57634D01*
D02*
G37*
G36*
X232752Y34583D02*
X231815D01*
X230910Y34340D01*
X230098Y33872D01*
X229435Y33209D01*
X228967Y32397D01*
X228724Y31492D01*
Y30555D01*
X228967Y29650D01*
X229435Y28838D01*
X230098Y28176D01*
X230910Y27707D01*
X231815Y27465D01*
X232752D01*
X233657Y27707D01*
X234469Y28176D01*
X235131Y28838D01*
X235600Y29650D01*
X235842Y30555D01*
Y31492D01*
X235600Y32397D01*
X235131Y33209D01*
X234469Y33872D01*
X233657Y34340D01*
X232752Y34583D01*
D02*
G37*
G36*
X180690Y26984D02*
X180618D01*
Y23138D01*
X184465D01*
Y23210D01*
X184168Y24316D01*
X183596Y25307D01*
X182787Y26116D01*
X181796Y26688D01*
X180690Y26984D01*
D02*
G37*
G36*
X179618D02*
X179546D01*
X178440Y26688D01*
X177449Y26116D01*
X176640Y25307D01*
X176068Y24316D01*
X175772Y23210D01*
Y23138D01*
X179618D01*
Y26984D01*
D02*
G37*
G36*
X184465Y22138D02*
X180618D01*
Y18291D01*
X180690D01*
X181796Y18587D01*
X182787Y19160D01*
X183596Y19969D01*
X184168Y20960D01*
X184465Y22066D01*
Y22138D01*
D02*
G37*
G36*
X179618D02*
X175772D01*
Y22066D01*
X176068Y20960D01*
X176640Y19969D01*
X177449Y19160D01*
X178440Y18587D01*
X179546Y18291D01*
X179618D01*
Y22138D01*
D02*
G37*
G36*
X64976Y34268D02*
X54709D01*
Y27091D01*
X54709Y26756D01*
X54277Y26591D01*
X47425D01*
Y16323D01*
X54937D01*
Y18882D01*
X58313D01*
Y18153D01*
X55469Y15309D01*
X45882D01*
Y16748D01*
X38764D01*
Y10811D01*
X45882D01*
Y12250D01*
X47683D01*
Y9465D01*
X46244D01*
Y2347D01*
X52181D01*
Y9465D01*
X50742D01*
Y12250D01*
X56102D01*
X56688Y12367D01*
X57184Y12698D01*
X60924Y16438D01*
X61256Y16934D01*
X61372Y17520D01*
Y18882D01*
X64976D01*
Y26256D01*
X64976Y26394D01*
Y26756D01*
X64976Y26894D01*
Y34268D01*
D02*
G37*
G36*
X117142Y10449D02*
X114673D01*
Y7390D01*
X117142D01*
Y10449D01*
D02*
G37*
G36*
X113673D02*
X111205D01*
Y7390D01*
X113673D01*
Y10449D01*
D02*
G37*
G36*
X44307Y9465D02*
X41839D01*
Y6406D01*
X44307D01*
Y9465D01*
D02*
G37*
G36*
X40839D02*
X38370D01*
Y6406D01*
X40839D01*
Y9465D01*
D02*
G37*
G36*
X117142Y6390D02*
X114673D01*
Y3331D01*
X117142D01*
Y6390D01*
D02*
G37*
G36*
X113673D02*
X111205D01*
Y3331D01*
X113673D01*
Y6390D01*
D02*
G37*
G36*
X44307Y5406D02*
X41839D01*
Y2347D01*
X44307D01*
Y5406D01*
D02*
G37*
G36*
X40839D02*
X38370D01*
Y2347D01*
X40839D01*
Y5406D01*
D02*
G37*
G36*
X52256Y190173D02*
X48803D01*
Y186721D01*
X52256D01*
Y190173D01*
D02*
G37*
G36*
Y185721D02*
X48803D01*
Y182268D01*
X52256D01*
Y185721D01*
D02*
G37*
G36*
X45291Y179740D02*
X42823D01*
Y176681D01*
X45291D01*
Y179740D01*
D02*
G37*
G36*
X41823D02*
X39354D01*
Y176681D01*
X41823D01*
Y179740D01*
D02*
G37*
G36*
X45291Y175681D02*
X42823D01*
Y172622D01*
X45291D01*
Y175681D01*
D02*
G37*
G36*
X41823D02*
X39354D01*
Y172622D01*
X41823D01*
Y175681D01*
D02*
G37*
G36*
X22260Y182102D02*
X15142D01*
Y176165D01*
X17171D01*
Y165198D01*
X17019Y165168D01*
X16428Y164773D01*
X16033Y164182D01*
X15894Y163484D01*
Y161909D01*
X16033Y161212D01*
X16428Y160621D01*
X17019Y160226D01*
X17717Y160087D01*
X19685D01*
X20382Y160226D01*
X20974Y160621D01*
X21369Y161212D01*
X21508Y161909D01*
Y163484D01*
X21369Y164182D01*
X20974Y164773D01*
X20382Y165168D01*
X20230Y165198D01*
Y176165D01*
X22260D01*
Y182102D01*
D02*
G37*
G36*
X11433D02*
X4315D01*
Y176165D01*
X6345D01*
Y165198D01*
X6192Y165168D01*
X5601Y164773D01*
X5206Y164182D01*
X5067Y163484D01*
Y161909D01*
X5206Y161212D01*
X5601Y160621D01*
X6192Y160226D01*
X6890Y160087D01*
X8858D01*
X9556Y160226D01*
X10147Y160621D01*
X10542Y161212D01*
X10681Y161909D01*
Y163484D01*
X10542Y164182D01*
X10147Y164773D01*
X9556Y165168D01*
X9403Y165198D01*
Y176165D01*
X11433D01*
Y182102D01*
D02*
G37*
G36*
X21472Y158776D02*
X19201D01*
Y156701D01*
X21472D01*
Y158776D01*
D02*
G37*
G36*
X10646D02*
X8374D01*
Y156701D01*
X10646D01*
Y158776D01*
D02*
G37*
G36*
X18201D02*
X15929D01*
Y156701D01*
X18201D01*
Y158776D01*
D02*
G37*
G36*
X7374D02*
X5102D01*
Y156701D01*
X7374D01*
Y158776D01*
D02*
G37*
G36*
X21472Y155701D02*
X19201D01*
Y153626D01*
X21472D01*
Y155701D01*
D02*
G37*
G36*
X18201D02*
X15929D01*
Y153626D01*
X18201D01*
Y155701D01*
D02*
G37*
G36*
X10646D02*
X8374D01*
Y153626D01*
X10646D01*
Y155701D01*
D02*
G37*
G36*
X7374D02*
X5102D01*
Y153626D01*
X7374D01*
Y155701D01*
D02*
G37*
G36*
X41823Y154543D02*
X38764D01*
Y152075D01*
X41823D01*
Y154543D01*
D02*
G37*
G36*
Y151075D02*
X38764D01*
Y148606D01*
X41823D01*
Y151075D01*
D02*
G37*
G36*
X29543Y133480D02*
X27075D01*
Y130421D01*
X29543D01*
Y133480D01*
D02*
G37*
G36*
X26075D02*
X23606D01*
Y130421D01*
X26075D01*
Y133480D01*
D02*
G37*
G36*
X29543Y129421D02*
X27075D01*
Y126362D01*
X29543D01*
Y129421D01*
D02*
G37*
G36*
X26075D02*
X23606D01*
Y126362D01*
X26075D01*
Y129421D01*
D02*
G37*
G36*
X29543Y124622D02*
X27075D01*
Y121563D01*
X29543D01*
Y124622D01*
D02*
G37*
G36*
X26075D02*
X23606D01*
Y121563D01*
X26075D01*
Y124622D01*
D02*
G37*
G36*
X29543Y120563D02*
X27075D01*
Y117504D01*
X29543D01*
Y120563D01*
D02*
G37*
G36*
X26075D02*
X23606D01*
Y117504D01*
X26075D01*
Y120563D01*
D02*
G37*
G36*
X29543Y115764D02*
X27075D01*
Y112705D01*
X29543D01*
Y115764D01*
D02*
G37*
G36*
X26075D02*
X23606D01*
Y112705D01*
X26075D01*
Y115764D01*
D02*
G37*
G36*
X29543Y111705D02*
X27075D01*
Y108646D01*
X29543D01*
Y111705D01*
D02*
G37*
G36*
X26075D02*
X23606D01*
Y108646D01*
X26075D01*
Y111705D01*
D02*
G37*
G36*
X29543Y106905D02*
X27075D01*
Y103847D01*
X29543D01*
Y106905D01*
D02*
G37*
G36*
X26075D02*
X23606D01*
Y103847D01*
X26075D01*
Y106905D01*
D02*
G37*
G36*
X29543Y102847D02*
X27075D01*
Y99787D01*
X29543D01*
Y102847D01*
D02*
G37*
G36*
X26075D02*
X23606D01*
Y99787D01*
X26075D01*
Y102847D01*
D02*
G37*
G36*
X82197Y128535D02*
X77933D01*
Y128415D01*
X78027Y127945D01*
X78293Y127545D01*
X78693Y127279D01*
X79163Y127185D01*
X82197D01*
Y128535D01*
D02*
G37*
G36*
X95972Y109789D02*
Y106799D01*
X98962D01*
X98734Y107650D01*
X98273Y108448D01*
X97622Y109100D01*
X96823Y109561D01*
X95972Y109789D01*
D02*
G37*
G36*
X94972D02*
X94121Y109561D01*
X93323Y109100D01*
X92672Y108448D01*
X92211Y107650D01*
X91983Y106799D01*
X94972D01*
Y109789D01*
D02*
G37*
%LPD*%
D10*
X73398Y4921D02*
X77756Y9279D01*
X59842Y4921D02*
X73398D01*
X133795Y9342D02*
Y15811D01*
Y9342D02*
X133858Y9279D01*
X125000Y172244D02*
X129899Y167345D01*
Y110050D02*
Y167345D01*
X129921Y108268D02*
X139701Y98488D01*
X129899Y110050D02*
X129921Y110028D01*
Y108268D02*
Y110028D01*
X162402Y152536D02*
X164035Y154170D01*
Y155252D01*
X162402Y119095D02*
Y152536D01*
X117126Y172244D02*
X125000D01*
X132874Y95472D02*
Y97441D01*
Y95472D02*
X141732Y86614D01*
X141732D01*
X124937Y105378D02*
X132874Y97441D01*
X111743Y105378D02*
X124937D01*
X86677Y101441D02*
X114846D01*
X114909Y101378D02*
X123031D01*
X114846Y101441D02*
X114909Y101378D01*
X92768Y124016D02*
X92827Y123957D01*
X75787Y124016D02*
X92768D01*
X73294Y120603D02*
X74803Y119095D01*
X70953Y120603D02*
X73294D01*
X70187Y121369D02*
X70953Y120603D01*
X74803Y108110D02*
Y119095D01*
X78106Y115094D02*
Y118398D01*
X78803Y119095D01*
X77606Y114594D02*
X78106Y115094D01*
X82480Y113878D02*
X83850Y115248D01*
X77606Y108354D02*
Y114594D01*
X83850Y115248D02*
Y115850D01*
X34449Y103347D02*
X45276D01*
X70740Y128811D02*
Y129063D01*
X45276Y103347D02*
X70740Y128811D01*
X65945Y117126D02*
X69685Y113386D01*
X97441Y82677D02*
X107283D01*
X95472Y92422D02*
Y93504D01*
X97441Y82677D02*
Y90453D01*
X107283Y82677D02*
X111221Y86614D01*
X95472Y92422D02*
X97441Y90453D01*
X104550Y41557D02*
X105315Y42323D01*
X102581Y41557D02*
X104550D01*
X95669Y34646D02*
X102581Y41557D01*
X190653Y192850D02*
X197616Y199814D01*
X169944Y192850D02*
X190653D01*
X197616Y199814D02*
Y202811D01*
X177496Y172859D02*
X179134Y174498D01*
Y184055D01*
X172943Y168307D02*
X177496Y172859D01*
X136972Y168307D02*
X172943D01*
X177496Y172859D02*
Y172859D01*
X130315Y68898D02*
X130905D01*
X127362Y71850D02*
X130315Y68898D01*
X117224Y71850D02*
X127362D01*
X113484Y75590D02*
X117224Y71850D01*
X113484Y75590D02*
Y75787D01*
X122047Y67913D02*
X122047Y67913D01*
X113484Y67913D02*
X122047D01*
X116142Y29528D02*
X134843D01*
X151575Y46260D01*
Y54134D01*
X122047Y75787D02*
X142717D01*
X157480Y90551D02*
Y104331D01*
X142717Y75787D02*
X157480Y90551D01*
X139701Y97503D02*
Y98488D01*
Y97503D02*
X139764Y97441D01*
X166339Y94882D02*
Y104331D01*
X131890Y61024D02*
X132480D01*
X166339Y94882D01*
X132874Y172244D02*
X133035D01*
X136972Y168307D01*
X24606Y54134D02*
Y61024D01*
X33465Y75787D02*
X34055D01*
X39458Y81190D01*
X42279D01*
X43044Y81956D01*
X33465Y67913D02*
X42028D01*
X33465Y67913D02*
X33465Y67913D01*
X24606Y68898D02*
X25197D01*
X28150Y71850D01*
X38386D01*
X42323Y75746D02*
Y75787D01*
X41270Y74693D02*
X42323Y75746D01*
X41229Y74693D02*
X41270D01*
X38386Y71850D02*
X41229Y74693D01*
X56102Y96457D02*
X56595Y95965D01*
X69390D01*
X69882Y95472D01*
X35682Y81693D02*
X54445Y100457D01*
X79661D01*
X27559Y81693D02*
X35682D01*
X79661Y100457D02*
X79724Y100394D01*
X95669Y30512D02*
Y34646D01*
X59842Y73819D02*
X67913D01*
X59842Y73819D02*
X59842Y73819D01*
X86944Y152347D02*
X89144Y154546D01*
Y157605D02*
X89909Y158371D01*
X89144Y154546D02*
Y157605D01*
X89354Y164583D02*
X93909Y160028D01*
X95909Y158028D02*
X97909Y156028D01*
Y159965D02*
X101378Y156496D01*
X95909Y158028D02*
Y161965D01*
X93909Y157075D02*
Y160028D01*
Y157075D02*
X95703Y155281D01*
X97909Y159965D02*
Y163902D01*
X101378Y147638D02*
Y156496D01*
X97909Y135949D02*
X101378Y132480D01*
X95703Y130675D02*
Y155281D01*
Y130675D02*
X101378Y125000D01*
X97909Y135949D02*
Y156028D01*
X91291Y166583D02*
X95909Y161965D01*
X93228Y168583D02*
X97909Y163902D01*
X82976Y152347D02*
X86944D01*
X82417Y151787D02*
X82976Y152347D01*
X208421Y206224D02*
X212874Y201772D01*
X201030Y206224D02*
X208421D01*
X197616Y202811D02*
X201030Y206224D01*
X160696Y178602D02*
X167386Y185292D01*
Y190292D02*
X169944Y192850D01*
X167386Y185292D02*
Y190292D01*
X163228Y186850D02*
Y190693D01*
X163386Y190850D01*
X159980Y183602D02*
X163228Y186850D01*
X151054Y188789D02*
X157293D01*
X157480Y188976D01*
X150867Y188602D02*
X151054Y188789D01*
X184250Y196850D02*
X187992Y200593D01*
X128937Y196850D02*
X184250D01*
X126969Y194882D02*
X128937Y196850D01*
X150867Y183602D02*
X159980D01*
X129890Y192882D02*
X131858Y194850D01*
X119041Y192882D02*
X129890D01*
X131858Y194850D02*
X185953D01*
X192874Y201772D01*
X101417Y194882D02*
X126969D01*
X187992Y200593D02*
Y206653D01*
X97110Y196882D02*
X117984D01*
X92756Y186221D02*
X101417Y194882D01*
X117984Y196882D02*
X122874Y201772D01*
X87209Y186981D02*
X97110Y196882D01*
X112380Y186221D02*
X119041Y192882D01*
X90614Y97504D02*
X102547D01*
X102610Y97441D02*
X113189D01*
X102547Y97504D02*
X102610Y97441D01*
X82480Y89370D02*
X90614Y97504D01*
X95472Y113189D02*
X97441Y115157D01*
X95472Y106299D02*
Y113189D01*
X75083Y89846D02*
X86677Y101441D01*
X82480Y84803D02*
Y89370D01*
X97441Y115157D02*
Y125000D01*
X92051Y127957D02*
X94484D01*
X97441Y125000D01*
X88705Y127925D02*
X92018D01*
X87594Y129035D02*
X88705Y127925D01*
X82697Y129035D02*
X87594D01*
X92018Y127925D02*
X92051Y127957D01*
X70740Y129063D02*
X75787Y124016D01*
Y131745D02*
Y133568D01*
Y129921D02*
Y131745D01*
X75937Y131595D02*
X82697D01*
X75787Y131745D02*
X75937Y131595D01*
X76373Y134153D02*
X82697D01*
X75787Y129921D02*
X76394Y129315D01*
X82417D01*
X75787Y133568D02*
X76373Y134153D01*
X82417Y129315D02*
X82697Y129035D01*
X101378Y116142D02*
Y125000D01*
X122835Y21654D02*
X127953D01*
X133795Y15811D01*
X62740Y144682D02*
X69882Y151823D01*
Y157480D01*
X70740Y129063D02*
Y140436D01*
X62740Y133606D02*
Y144682D01*
X66740Y131322D02*
Y142093D01*
X64740Y132150D02*
Y143853D01*
X50451Y112205D02*
X68740Y130493D01*
X70740Y140436D02*
X74414Y144110D01*
X61008Y131874D02*
X62740Y133606D01*
X56450Y121031D02*
X66740Y131322D01*
X68740Y130493D02*
Y141265D01*
X55621Y123031D02*
X64740Y132150D01*
X44291Y123031D02*
X55621D01*
X43463Y121031D02*
X56450D01*
X34449Y112205D02*
X50451D01*
X60740Y148339D02*
X63976Y151575D01*
X64740Y143853D02*
X72674Y151787D01*
X66740Y142093D02*
X73875Y149228D01*
X60740Y135828D02*
Y148339D01*
X68740Y141265D02*
X74145Y146669D01*
X59346Y134433D02*
X60740Y135828D01*
X74145Y146669D02*
X82417D01*
X74414Y144110D02*
X82417D01*
X73875Y149228D02*
X82417D01*
X74803Y138779D02*
X77854Y141831D01*
X74740Y138779D02*
X74803D01*
X53517Y167691D02*
X67913Y182087D01*
X69173Y168583D02*
X93228D01*
X70126Y166583D02*
X91291D01*
X68221Y170583D02*
X94772D01*
X55098Y157185D02*
X60728D01*
X55098Y159744D02*
X60335D01*
X59941Y162303D02*
X68221Y170583D01*
X55098Y154626D02*
X61122D01*
X71079Y164583D01*
X60335Y159744D02*
X69173Y168583D01*
X71079Y164583D02*
X89354D01*
X55098Y162303D02*
X59941D01*
X60728Y157185D02*
X70126Y166583D01*
X77854Y141831D02*
X82697D01*
X149252Y159449D02*
X149409Y159606D01*
X141732Y159449D02*
X149252D01*
X141732Y153449D02*
X142641D01*
X86944Y136433D02*
X89596Y133781D01*
Y132690D02*
Y133781D01*
Y132690D02*
X90361Y131924D01*
X82976Y136433D02*
X86944D01*
X90442Y149617D02*
X90551Y149726D01*
X83365Y149617D02*
X90442D01*
X83256Y149508D02*
X83365Y149617D01*
X87603Y146669D02*
X90547Y143726D01*
X82976Y146669D02*
X87603D01*
X82697Y139272D02*
X82756Y139213D01*
X87165D01*
X91193Y138153D02*
X91538Y137808D01*
X87165Y139213D02*
X88225Y138153D01*
X91193D01*
X82697Y146949D02*
X82976Y146669D01*
Y149787D02*
X83256Y149508D01*
X82417Y149228D02*
X82976Y149787D01*
X82697Y136713D02*
X82976Y136433D01*
X82480Y108110D02*
Y113878D01*
X143701Y129921D02*
X149094D01*
X149409Y129606D01*
X141732Y142717D02*
Y147449D01*
Y142717D02*
X144843Y139606D01*
X149409D01*
X142641Y153449D02*
X145409Y150681D01*
X148335D01*
X148505Y140510D02*
X149409Y139606D01*
X14764Y68898D02*
X27559Y81693D01*
X75083Y85083D02*
Y89846D01*
X77362Y108110D02*
X77606Y108354D01*
X111221Y178150D02*
X117126Y172244D01*
X55118Y38386D02*
X70866D01*
X42323Y25591D02*
X55118Y38386D01*
X14764Y57087D02*
Y68898D01*
X34449Y121063D02*
X43431D01*
X37402Y129921D02*
X44291Y123031D01*
X34449Y129921D02*
X37402D01*
X43431Y121063D02*
X43463Y121031D01*
X148335Y150681D02*
X149409Y149606D01*
X67913Y182087D02*
Y206811D01*
X68865Y79724D02*
X69685Y80544D01*
X64961Y79724D02*
X68865D01*
X69685Y80544D02*
Y84803D01*
X67913Y206811D02*
X72874Y211772D01*
X69685Y108110D02*
Y113386D01*
X55378Y134433D02*
X59346D01*
X55098Y134153D02*
X55378Y134433D01*
X55378Y131874D02*
X61008D01*
X72674Y151787D02*
X82417D01*
X83724Y175134D02*
X97504D01*
X105315Y111806D02*
Y167323D01*
X97504Y175134D02*
X105315Y167323D01*
X82417Y146669D02*
X82697Y146949D01*
X55098Y131595D02*
X55378Y131874D01*
X63050Y81635D02*
X64961Y79724D01*
X60039Y82096D02*
X60500Y81635D01*
X63050D01*
X105315Y111806D02*
X111743Y105378D01*
X74803Y84803D02*
X75083Y85083D01*
X60989Y87196D02*
X63382Y84803D01*
X67126D01*
X60039Y87196D02*
X60989D01*
X77756Y181102D02*
X83724Y175134D01*
X77756Y181102D02*
Y183071D01*
X77779Y183094D02*
Y187540D01*
X77756Y183071D02*
X77779Y183094D01*
Y187540D02*
X83152Y192913D01*
X90313D02*
X98421Y201022D01*
X83152Y192913D02*
X90313D01*
X98421Y201022D02*
X102124D01*
X102874Y201772D01*
X83516Y186981D02*
X87209D01*
X82756Y186221D02*
X83516Y186981D01*
X91030Y206224D02*
X138421D01*
X142874Y201772D01*
X87327Y199927D02*
Y202522D01*
X73620Y186221D02*
X87327Y199927D01*
X94772Y170583D02*
X101378Y163976D01*
X102756Y186221D02*
X112380D01*
X116142Y116142D02*
X117126Y117126D01*
X109252Y116142D02*
X116142D01*
X150867Y178602D02*
X160696D01*
X182874Y211772D02*
X187992Y206653D01*
X182874Y211772D02*
Y211772D01*
X87327Y202522D02*
X91030Y206224D01*
X72756Y186221D02*
X73620D01*
X82417Y144110D02*
X82697Y144390D01*
X101378Y131890D02*
Y132480D01*
Y163386D02*
Y163976D01*
X118307Y115945D02*
X124016D01*
X117126Y117126D02*
X118307Y115945D01*
Y131693D02*
X124016D01*
X117126Y132874D02*
X118307Y131693D01*
X116142Y131890D02*
X117126Y132874D01*
X109252Y131890D02*
X116142D01*
Y147638D02*
X117126Y148622D01*
X109252Y147638D02*
X116142D01*
X117126Y148622D02*
X118307Y147441D01*
X124016D01*
X117126Y164370D02*
X118307Y163189D01*
X124016D01*
X116142Y163386D02*
X117126Y164370D01*
X109252Y163386D02*
X116142D01*
X59322Y56623D02*
Y59772D01*
X47804Y62917D02*
X56177D01*
X59322Y56623D02*
X59842Y56102D01*
X56177Y62917D02*
X59322Y59772D01*
X59842Y56102D02*
X77756D01*
X33465Y57284D02*
X42170D01*
X47804Y62917D01*
X49213Y49213D02*
X51181Y51181D01*
X14764Y49213D02*
X49213D01*
X51181Y51181D02*
Y57284D01*
X77756Y48228D02*
X95669D01*
X77756Y56102D02*
X77756Y56102D01*
X122047Y22441D02*
X122835Y21654D01*
X113189Y22638D02*
Y26575D01*
X116142Y29528D01*
X107283Y14764D02*
X113189D01*
X105315D02*
X107283D01*
X106299Y6890D02*
X107283Y7874D01*
Y14764D01*
X104331Y15748D02*
X105315Y14764D01*
X104331Y15748D02*
Y22441D01*
X39370Y28543D02*
X42323Y25591D01*
X24606Y28543D02*
X39370D01*
X42323Y21654D02*
Y25591D01*
X5906Y57087D02*
X14764D01*
X13780Y41339D02*
Y48228D01*
X14764Y49213D01*
X49213Y13780D02*
X56102D01*
X42323D02*
X49213D01*
Y5906D02*
Y13780D01*
X59842Y17520D02*
Y22638D01*
X56102Y13780D02*
X59842Y17520D01*
X18701Y162697D02*
Y179134D01*
X7874Y162697D02*
Y179134D01*
X18701Y187008D02*
X19221Y187528D01*
X22174D02*
X32550Y197905D01*
Y201448D02*
X32874Y201772D01*
X19221Y187528D02*
X22174D01*
X14445Y192988D02*
X19456D01*
X8465Y187008D02*
X14445Y192988D01*
X27484Y206382D02*
X32874Y211772D01*
X27484Y201016D02*
Y206382D01*
X19456Y192988D02*
X27484Y201016D01*
X7874Y187008D02*
X8465D01*
D16*
X124213Y108465D02*
D03*
Y115945D02*
D03*
X133661Y112205D02*
D03*
X124213Y124213D02*
D03*
Y131693D02*
D03*
X133661Y127953D02*
D03*
X124213Y139961D02*
D03*
Y147441D02*
D03*
X133661Y143701D02*
D03*
X124213Y155709D02*
D03*
Y163189D02*
D03*
X133661Y159449D02*
D03*
D17*
X216661Y188976D02*
D03*
X200661D02*
D03*
X216661Y176181D02*
D03*
X200661D02*
D03*
X216661Y163386D02*
D03*
X200661D02*
D03*
X216661Y150591D02*
D03*
X200661D02*
D03*
X216661Y99410D02*
D03*
X200661D02*
D03*
X216661Y112205D02*
D03*
X200661D02*
D03*
X216661Y125000D02*
D03*
X200661D02*
D03*
X216661Y137795D02*
D03*
X200661D02*
D03*
D18*
X122047Y75787D02*
D03*
Y67913D02*
D03*
X42323Y143701D02*
D03*
Y151575D02*
D03*
X141732Y182087D02*
D03*
Y174213D02*
D03*
X117126Y117126D02*
D03*
Y109252D02*
D03*
Y132874D02*
D03*
Y125000D02*
D03*
Y148622D02*
D03*
Y140748D02*
D03*
Y164370D02*
D03*
Y156496D02*
D03*
X130905Y68898D02*
D03*
Y61024D02*
D03*
X33465Y67913D02*
D03*
Y75787D02*
D03*
X24606Y68898D02*
D03*
Y61024D02*
D03*
X42323Y21654D02*
D03*
Y13780D02*
D03*
X24606Y28543D02*
D03*
Y36417D02*
D03*
X113189Y22638D02*
D03*
Y14764D02*
D03*
X129921Y29528D02*
D03*
Y37402D02*
D03*
X5906Y57087D02*
D03*
Y49213D02*
D03*
X14764Y57087D02*
D03*
Y49213D02*
D03*
X7874Y179134D02*
D03*
Y187008D02*
D03*
X18701D02*
D03*
Y179134D02*
D03*
D19*
X174213Y124606D02*
D03*
Y129606D02*
D03*
Y134606D02*
D03*
Y139606D02*
D03*
Y144606D02*
D03*
Y149606D02*
D03*
Y154606D02*
D03*
Y159606D02*
D03*
X149409D02*
D03*
Y154606D02*
D03*
Y149606D02*
D03*
Y144606D02*
D03*
Y139606D02*
D03*
Y134606D02*
D03*
Y129606D02*
D03*
Y124606D02*
D03*
D20*
X82697Y129035D02*
D03*
Y131595D02*
D03*
Y134153D02*
D03*
Y136713D02*
D03*
Y139272D02*
D03*
Y141831D02*
D03*
Y144390D02*
D03*
Y146949D02*
D03*
Y149508D02*
D03*
Y152067D02*
D03*
Y154626D02*
D03*
Y157185D02*
D03*
Y159744D02*
D03*
Y162303D02*
D03*
X55098Y129035D02*
D03*
Y131595D02*
D03*
Y134153D02*
D03*
Y136713D02*
D03*
Y139272D02*
D03*
Y141831D02*
D03*
Y144390D02*
D03*
Y146949D02*
D03*
Y149508D02*
D03*
Y152067D02*
D03*
Y154626D02*
D03*
Y157185D02*
D03*
Y159744D02*
D03*
Y162303D02*
D03*
D21*
X97441Y82677D02*
D03*
X89567D02*
D03*
X26575Y129921D02*
D03*
X34449D02*
D03*
X26575Y121063D02*
D03*
X34449D02*
D03*
X26575Y112205D02*
D03*
X34449D02*
D03*
X26575Y103347D02*
D03*
X34449D02*
D03*
X109252Y116142D02*
D03*
X101378D02*
D03*
X109252Y131890D02*
D03*
X101378D02*
D03*
X109252Y147638D02*
D03*
X101378D02*
D03*
X109252Y163386D02*
D03*
X101378D02*
D03*
X50197Y176181D02*
D03*
X42323D02*
D03*
X49213Y5906D02*
D03*
X41339D02*
D03*
X106299Y6890D02*
D03*
X114173D02*
D03*
X13780Y41339D02*
D03*
X5906D02*
D03*
D22*
X18701Y156201D02*
D03*
X7874D02*
D03*
D23*
X18701Y162697D02*
D03*
X7874D02*
D03*
D24*
X113484Y67913D02*
D03*
Y75787D02*
D03*
X42028Y67913D02*
D03*
X42323Y75787D02*
D03*
D25*
X106988Y67913D02*
D03*
Y75787D02*
D03*
X48524Y67913D02*
D03*
X48819Y75787D02*
D03*
D26*
X67126Y108110D02*
D03*
X69685D02*
D03*
X72244D02*
D03*
X74803D02*
D03*
X77362D02*
D03*
X79921D02*
D03*
X82480D02*
D03*
X82480Y84803D02*
D03*
X79921D02*
D03*
X77362D02*
D03*
X74803D02*
D03*
X72244D02*
D03*
X69685D02*
D03*
X67126D02*
D03*
D27*
X60039Y87196D02*
D03*
Y82096D02*
D03*
D28*
X171967Y173602D02*
D03*
Y183602D02*
D03*
Y188602D02*
D03*
X150867D02*
D03*
Y183602D02*
D03*
Y178602D02*
D03*
Y173602D02*
D03*
X171967Y178602D02*
D03*
D29*
X95669Y4921D02*
D03*
X59842D02*
D03*
Y22638D02*
D03*
X95669D02*
D03*
X59842Y48228D02*
D03*
X95669D02*
D03*
Y30512D02*
D03*
X59842D02*
D03*
X95669Y56102D02*
D03*
X59842D02*
D03*
Y73819D02*
D03*
X95669D02*
D03*
D30*
X33465Y21457D02*
D03*
Y57284D02*
D03*
X51181D02*
D03*
Y21457D02*
D03*
X122047Y58268D02*
D03*
Y22441D02*
D03*
X104331D02*
D03*
Y58268D02*
D03*
D56*
X77756Y9279D02*
Y48228D01*
X201646Y187992D02*
X208661D01*
X200661Y188976D02*
X201646Y187992D01*
X202756Y157480D02*
X209772D01*
X158021Y154542D02*
X158086Y154478D01*
X149409Y154606D02*
X149474Y154542D01*
X158021D01*
X158386Y154606D02*
X158465Y154528D01*
Y144685D02*
Y154528D01*
X155512Y124016D02*
Y124606D01*
Y127953D01*
X168307Y124100D02*
X171344Y121063D01*
X163178Y163699D02*
X168307Y158570D01*
Y124100D02*
Y158570D01*
X155512Y120079D02*
Y124016D01*
X187008Y176181D02*
Y186024D01*
X174213Y159606D02*
Y163386D01*
X187008Y176181D01*
X191929Y146653D02*
Y160433D01*
X194882Y163386D01*
Y145669D02*
Y155512D01*
X188976Y163205D02*
X195063Y169291D01*
X194882Y155512D02*
X196850Y157480D01*
X179961Y139606D02*
X188976Y148622D01*
X178819Y129606D02*
X194882Y145669D01*
X188976Y148622D02*
Y163205D01*
X179882Y134606D02*
X191929Y146653D01*
X249142Y183071D02*
X335630D01*
X219691Y153541D02*
Y153620D01*
X216740Y150591D02*
X219691Y153541D01*
Y153620D02*
X249142Y183071D01*
X216583Y150591D02*
X216740D01*
X232283Y174213D02*
X240158Y182087D01*
X240158D01*
X292695Y186396D02*
X296260Y189961D01*
X326772D01*
X225394Y182087D02*
X229703Y186396D01*
X292695D01*
X335630Y162402D02*
X340551Y167323D01*
Y178150D01*
X335630Y183071D02*
X340551Y178150D01*
X326772Y162402D02*
X335630D01*
X225394Y172039D02*
Y182087D01*
X219445Y181060D02*
X227362Y188976D01*
X289370D01*
X216661Y176181D02*
X219445Y178965D01*
Y181060D01*
X219691Y166337D02*
X225394Y172039D01*
X219691Y166337D02*
Y166337D01*
X216740Y163386D02*
X219691Y166337D01*
X216661Y163386D02*
X216740D01*
X289370Y188976D02*
X304134Y203740D01*
X220570Y191929D02*
X264764D01*
X267717Y194882D01*
X219612Y191927D02*
X220568D01*
X220570Y191929D01*
X216661Y188976D02*
X219612Y191927D01*
X267717Y194882D02*
X267717D01*
X276575Y203740D01*
X200661Y150591D02*
X208661D01*
X200661Y163386D02*
X208661D01*
X200661Y176181D02*
X208661D01*
X197711Y173230D02*
X200661Y176181D01*
X196850Y183071D02*
X209646D01*
X213585Y179132D01*
X213711D01*
X216661Y176181D01*
X213711Y191927D02*
X216661Y188976D01*
X211185Y194327D02*
X213585Y191927D01*
X195311Y194327D02*
X211185D01*
X213585Y191927D02*
X213711D01*
X195063Y169291D02*
X210677D01*
X216583Y163386D01*
X179055Y144606D02*
X186024Y151575D01*
X174213Y144606D02*
X179055D01*
X186024Y151575D02*
Y163787D01*
X183071Y154528D02*
Y164370D01*
X174213Y149606D02*
X178150D01*
X183071Y154528D01*
X174213Y134606D02*
X179882D01*
X174213Y139606D02*
X179961D01*
X186024Y163787D02*
X195467Y173230D01*
X183071Y164370D02*
X193898Y175197D01*
X180118Y165354D02*
X189961Y175197D01*
X177788Y155150D02*
X180118Y157480D01*
Y165354D01*
X174213Y154606D02*
X174756Y155150D01*
X177788D01*
X187008Y186024D02*
X195311Y194327D01*
X198693Y187008D02*
X200661Y188976D01*
X193898Y187008D02*
X198693D01*
X189961Y175197D02*
Y183071D01*
X193898Y187008D01*
Y175197D02*
Y180118D01*
X196850Y183071D01*
X195467Y173230D02*
X197711D01*
X213632Y153541D02*
Y153620D01*
X209772Y157480D02*
X213632Y153620D01*
X196850Y157480D02*
X202756D01*
X213632Y153541D02*
X216583Y150591D01*
X194882Y163386D02*
X200661D01*
X174213Y129606D02*
X178819D01*
X195232Y142180D02*
X198571Y145518D01*
Y148500D02*
X200661Y150591D01*
X198571Y145518D02*
Y148500D01*
X195232Y142082D02*
Y142180D01*
X174403Y124796D02*
X177946D01*
X174213Y124606D02*
X174403Y124796D01*
X177946D02*
X195232Y142082D01*
X138779Y123031D02*
X146967Y114845D01*
X178380D01*
X188536Y125000D01*
X47244Y143701D02*
Y159449D01*
X142319Y173907D02*
X150562D01*
X150867Y173602D01*
X141142Y174213D02*
X141732D01*
X135236Y180118D02*
X141142Y174213D01*
X141732Y174494D02*
X142319Y173907D01*
X138994Y163699D02*
X163178D01*
X155512Y127953D02*
X158465Y130905D01*
Y134843D01*
X154921Y124606D02*
X155512Y124016D01*
X149409Y124606D02*
X154921D01*
X50197Y170380D02*
Y176181D01*
X47244Y167428D02*
X50197Y170380D01*
X47244Y159449D02*
Y167428D01*
X134744Y159449D02*
X138994Y163699D01*
X133858Y134843D02*
X138779Y129921D01*
Y123031D02*
Y129921D01*
X133858Y134843D02*
Y143701D01*
X135274Y120632D02*
Y127423D01*
Y120632D02*
X143701Y112205D01*
X200661D01*
X134744Y127953D02*
X135274Y127423D01*
X133858Y127953D02*
X134744D01*
X133858Y112205D02*
X137795D01*
X140295Y109705D02*
X190287D01*
X137795Y112205D02*
X140295Y109705D01*
X171344Y121063D02*
X178150D01*
X188536Y125000D02*
X200661D01*
X50197Y176181D02*
X51017Y177001D01*
X53537D01*
X62756Y186221D01*
X49114Y141831D02*
X55098D01*
X47244Y143701D02*
X49114Y141831D01*
X47244Y143701D02*
X47244D01*
X42323D02*
X47244D01*
X64096Y108110D02*
X67126D01*
X61971Y110236D02*
X64096Y108110D01*
X61024Y110236D02*
X61971D01*
X37923Y192532D02*
X56445D01*
X62756Y186221D01*
X32550Y197905D02*
X37923Y192532D01*
X88348Y80868D02*
X89567Y82087D01*
Y82677D01*
X87758Y80868D02*
X88348D01*
X83661Y76772D02*
X87758Y80868D01*
X77756Y76772D02*
X83661D01*
X134843Y180118D02*
X135236D01*
X133858Y159449D02*
X134744D01*
X158465Y134843D02*
Y144685D01*
X149409Y134606D02*
X158228D01*
X158465Y134843D01*
X149409Y144606D02*
X158386D01*
X158465Y144685D01*
X178150Y121063D02*
X194882Y137795D01*
X190287Y109705D02*
X200583Y99410D01*
X200661D01*
X194882Y137795D02*
X200661D01*
X77756Y56102D02*
Y76772D01*
X77756Y48228D02*
Y56102D01*
X32550Y197905D02*
Y201448D01*
D57*
X323866Y73772D02*
Y73772D01*
X285906Y111732D02*
X323866Y73772D01*
X272284Y111732D02*
X285906D01*
X323866Y73772D02*
X324803Y72835D01*
X302454Y108964D02*
Y111562D01*
Y108964D02*
X324803Y86614D01*
X324803D01*
X302284Y111732D02*
X302454Y111562D01*
X302284Y31024D02*
X302454Y31194D01*
X324501D01*
X324803Y31496D01*
X272284Y31024D02*
X285591Y17717D01*
X324803D01*
D58*
X218630Y101378D02*
X232283D01*
X32874Y211772D02*
X42874D01*
X200661Y99410D02*
X208661D01*
X200661Y112205D02*
X208661D01*
X200661Y112205D02*
X200661Y112205D01*
X200661Y125000D02*
X208661D01*
X200661Y137795D02*
X208661D01*
X216661Y125000D02*
Y137795D01*
Y112205D02*
Y125000D01*
Y99410D02*
Y112205D01*
Y99410D02*
X218630Y101378D01*
D59*
X180118Y101378D02*
D03*
Y22638D02*
D03*
D60*
X92756Y186221D02*
D03*
X102756D02*
D03*
X62756D02*
D03*
X72756D02*
D03*
X82756D02*
D03*
X32874Y211772D02*
D03*
X42874Y201772D02*
D03*
Y211772D02*
D03*
X52874Y201772D02*
D03*
Y211772D02*
D03*
X62874Y201772D02*
D03*
Y211772D02*
D03*
X72874Y201772D02*
D03*
Y211772D02*
D03*
X82874Y201772D02*
D03*
Y211772D02*
D03*
X92874Y201772D02*
D03*
Y211772D02*
D03*
X102874Y201772D02*
D03*
Y211772D02*
D03*
X112874Y201772D02*
D03*
Y211772D02*
D03*
X122874Y201772D02*
D03*
Y211772D02*
D03*
X132874Y201772D02*
D03*
Y211772D02*
D03*
X142874Y201772D02*
D03*
Y211772D02*
D03*
X152874Y201772D02*
D03*
Y211772D02*
D03*
X162874Y201772D02*
D03*
Y211772D02*
D03*
X172874Y201772D02*
D03*
Y211772D02*
D03*
X182874Y201772D02*
D03*
Y211772D02*
D03*
X192874Y201772D02*
D03*
Y211772D02*
D03*
X202874Y201772D02*
D03*
Y211772D02*
D03*
X212874Y201772D02*
D03*
Y211772D02*
D03*
X222874Y201772D02*
D03*
Y211772D02*
D03*
D61*
X52756Y186221D02*
D03*
D62*
X31890Y184252D02*
D03*
X123622D02*
D03*
Y90551D02*
D03*
X31890D02*
D03*
D63*
X32874Y201772D02*
D03*
D64*
X326772Y162402D02*
D03*
Y189961D02*
D03*
X324803Y100394D02*
D03*
Y72835D02*
D03*
Y45276D02*
D03*
Y17717D02*
D03*
D65*
X326772Y176181D02*
D03*
Y203740D02*
D03*
X290354D02*
D03*
X262795D02*
D03*
X324803Y114173D02*
D03*
Y86614D02*
D03*
Y59055D02*
D03*
Y31496D02*
D03*
D66*
X304134Y203740D02*
D03*
X276575D02*
D03*
D67*
X232283Y31024D02*
D03*
Y61024D02*
D03*
Y101378D02*
D03*
Y71378D02*
D03*
Y141732D02*
D03*
Y111732D02*
D03*
Y182087D02*
D03*
Y152087D02*
D03*
D68*
X272284Y31024D02*
D03*
X302284D02*
D03*
Y71378D02*
D03*
X272284D02*
D03*
X302284Y111732D02*
D03*
X272284D02*
D03*
X302284Y152087D02*
D03*
X272284D02*
D03*
D69*
X13780Y206693D02*
D03*
X242126D02*
D03*
Y13780D02*
D03*
X13780D02*
D03*
D70*
X77756Y9279D02*
D03*
X133858D02*
D03*
X208661Y187992D02*
D03*
X158086Y154478D02*
D03*
X164035Y155252D02*
D03*
X141732Y86614D02*
D03*
X123031Y101378D02*
D03*
X92827Y123957D02*
D03*
X70187Y121369D02*
D03*
X83850Y115850D02*
D03*
X78803Y119095D02*
D03*
X65945Y117126D02*
D03*
X111221Y86614D02*
D03*
X105315Y42323D02*
D03*
X240158Y182087D02*
D03*
X232283Y174213D02*
D03*
X208661Y150591D02*
D03*
Y163386D02*
D03*
Y176181D02*
D03*
X179134Y184055D02*
D03*
X139764Y97441D02*
D03*
X157480Y104331D02*
D03*
X166339D02*
D03*
X162402Y119095D02*
D03*
X155512Y120079D02*
D03*
X132874Y172244D02*
D03*
X24606Y54134D02*
D03*
X43044Y81956D02*
D03*
X151575Y54134D02*
D03*
X56102Y96457D02*
D03*
X67913Y73819D02*
D03*
X89909Y158371D02*
D03*
X47244Y159449D02*
D03*
X163386Y190850D02*
D03*
X157480Y188976D02*
D03*
X95472Y93504D02*
D03*
Y106299D02*
D03*
X74740Y138779D02*
D03*
X53517Y167691D02*
D03*
X69882Y157480D02*
D03*
X141732Y153449D02*
D03*
Y159449D02*
D03*
X90361Y131924D02*
D03*
X90551Y149726D02*
D03*
X90547Y143726D02*
D03*
X91538Y137808D02*
D03*
X141732Y147449D02*
D03*
X143701Y129921D02*
D03*
X69882Y95472D02*
D03*
X79724Y100394D02*
D03*
X111221Y178150D02*
D03*
X70866Y38386D02*
D03*
X61024Y110236D02*
D03*
X77756Y76772D02*
D03*
X63976Y151575D02*
D03*
X113189Y97441D02*
D03*
X134843Y180118D02*
D03*
X208661Y99410D02*
D03*
Y112205D02*
D03*
Y125000D02*
D03*
Y137795D02*
D03*
M02*
